<?xml version="1.0" encoding="utf-8" standalone="no"?>
<!DOCTYPE svg PUBLIC "-//W3C//DTD SVG 1.1//EN"
  "http://www.w3.org/Graphics/SVG/1.1/DTD/svg11.dtd">
<svg height="288pt" version="1.1" viewBox="0 0 432 288" width="432pt" xmlns="http://www.w3.org/2000/svg" xmlns:xlink="http://www.w3.org/1999/xlink">
 <metadata>
  <rdf:RDF xmlns:cc="http://creativecommons.org/ns#" xmlns:dc="http://purl.org/dc/elements/1.1/" xmlns:rdf="http://www.w3.org/1999/02/22-rdf-syntax-ns#">
   <cc:Work>
    <dc:type rdf:resource="http://purl.org/dc/dcmitype/StillImage"/>
    <dc:date>2021-10-28T10:38:06.549885</dc:date>
    <dc:format>image/svg+xml</dc:format>
    <dc:creator>
     <cc:Agent>
      <dc:title>Matplotlib v3.4.3, https://matplotlib.org/</dc:title>
     </cc:Agent>
    </dc:creator>
   </cc:Work>
  </rdf:RDF>
 </metadata>
 <defs>
  <style type="text/css">*{stroke-linecap:butt;stroke-linejoin:round;}</style>
 </defs>
 <g id="figure_1">
  <g id="patch_1">
   <path d="M 0 288 
L 432 288 
L 432 0 
L 0 0 
z
" style="fill:none;"/>
  </g>
  <g id="axes_1">
   <g id="patch_2">
    <path d="M 54.374438 240.717563 
L 421.2 240.717563 
L 421.2 15.587016 
L 54.374438 15.587016 
z
" style="fill:#542d59;"/>
   </g>
   <g id="matplotlib.axis_1">
    <g id="xtick_1">
     <g id="line2d_1">
      <path clip-path="url(#p28e97ef92d)" d="M 115.819126 240.717563 
L 115.819126 15.587016 
" style="fill:none;stroke:#9ad9c8;stroke-dasharray:1.12,1.848;stroke-dashoffset:0;stroke-opacity:0.26;stroke-width:1.12;"/>
     </g>
     <g id="line2d_2"/>
     <g id="text_1">
      <!-- 1.2 -->
      <g style="fill:#d9a384;" transform="translate(105.800157 255.891594)scale(0.126 -0.126)">
       <defs>
        <path d="M 794 531 
L 1825 531 
L 1825 4091 
L 703 3866 
L 703 4441 
L 1819 4666 
L 2450 4666 
L 2450 531 
L 3481 531 
L 3481 0 
L 794 0 
L 794 531 
z
" id="DejaVuSans-31" transform="scale(0.015625)"/>
        <path d="M 684 794 
L 1344 794 
L 1344 0 
L 684 0 
L 684 794 
z
" id="DejaVuSans-2e" transform="scale(0.015625)"/>
        <path d="M 1228 531 
L 3431 531 
L 3431 0 
L 469 0 
L 469 531 
Q 828 903 1448 1529 
Q 2069 2156 2228 2338 
Q 2531 2678 2651 2914 
Q 2772 3150 2772 3378 
Q 2772 3750 2511 3984 
Q 2250 4219 1831 4219 
Q 1534 4219 1204 4116 
Q 875 4013 500 3803 
L 500 4441 
Q 881 4594 1212 4672 
Q 1544 4750 1819 4750 
Q 2544 4750 2975 4387 
Q 3406 4025 3406 3419 
Q 3406 3131 3298 2873 
Q 3191 2616 2906 2266 
Q 2828 2175 2409 1742 
Q 1991 1309 1228 531 
z
" id="DejaVuSans-32" transform="scale(0.015625)"/>
       </defs>
       <use xlink:href="#DejaVuSans-31"/>
       <use x="63.623047" xlink:href="#DejaVuSans-2e"/>
       <use x="95.410156" xlink:href="#DejaVuSans-32"/>
      </g>
     </g>
    </g>
    <g id="xtick_2">
     <g id="line2d_3">
      <path clip-path="url(#p28e97ef92d)" d="M 187.403154 240.717563 
L 187.403154 15.587016 
" style="fill:none;stroke:#9ad9c8;stroke-dasharray:1.12,1.848;stroke-dashoffset:0;stroke-opacity:0.26;stroke-width:1.12;"/>
     </g>
     <g id="line2d_4"/>
     <g id="text_2">
      <!-- 1.4 -->
      <g style="fill:#d9a384;" transform="translate(177.384185 255.891594)scale(0.126 -0.126)">
       <defs>
        <path d="M 2419 4116 
L 825 1625 
L 2419 1625 
L 2419 4116 
z
M 2253 4666 
L 3047 4666 
L 3047 1625 
L 3713 1625 
L 3713 1100 
L 3047 1100 
L 3047 0 
L 2419 0 
L 2419 1100 
L 313 1100 
L 313 1709 
L 2253 4666 
z
" id="DejaVuSans-34" transform="scale(0.015625)"/>
       </defs>
       <use xlink:href="#DejaVuSans-31"/>
       <use x="63.623047" xlink:href="#DejaVuSans-2e"/>
       <use x="95.410156" xlink:href="#DejaVuSans-34"/>
      </g>
     </g>
    </g>
    <g id="xtick_3">
     <g id="line2d_5">
      <path clip-path="url(#p28e97ef92d)" d="M 258.987182 240.717563 
L 258.987182 15.587016 
" style="fill:none;stroke:#9ad9c8;stroke-dasharray:1.12,1.848;stroke-dashoffset:0;stroke-opacity:0.26;stroke-width:1.12;"/>
     </g>
     <g id="line2d_6"/>
     <g id="text_3">
      <!-- 1.6 -->
      <g style="fill:#d9a384;" transform="translate(248.968214 255.891594)scale(0.126 -0.126)">
       <defs>
        <path d="M 2113 2584 
Q 1688 2584 1439 2293 
Q 1191 2003 1191 1497 
Q 1191 994 1439 701 
Q 1688 409 2113 409 
Q 2538 409 2786 701 
Q 3034 994 3034 1497 
Q 3034 2003 2786 2293 
Q 2538 2584 2113 2584 
z
M 3366 4563 
L 3366 3988 
Q 3128 4100 2886 4159 
Q 2644 4219 2406 4219 
Q 1781 4219 1451 3797 
Q 1122 3375 1075 2522 
Q 1259 2794 1537 2939 
Q 1816 3084 2150 3084 
Q 2853 3084 3261 2657 
Q 3669 2231 3669 1497 
Q 3669 778 3244 343 
Q 2819 -91 2113 -91 
Q 1303 -91 875 529 
Q 447 1150 447 2328 
Q 447 3434 972 4092 
Q 1497 4750 2381 4750 
Q 2619 4750 2861 4703 
Q 3103 4656 3366 4563 
z
" id="DejaVuSans-36" transform="scale(0.015625)"/>
       </defs>
       <use xlink:href="#DejaVuSans-31"/>
       <use x="63.623047" xlink:href="#DejaVuSans-2e"/>
       <use x="95.410156" xlink:href="#DejaVuSans-36"/>
      </g>
     </g>
    </g>
    <g id="xtick_4">
     <g id="line2d_7">
      <path clip-path="url(#p28e97ef92d)" d="M 330.571211 240.717563 
L 330.571211 15.587016 
" style="fill:none;stroke:#9ad9c8;stroke-dasharray:1.12,1.848;stroke-dashoffset:0;stroke-opacity:0.26;stroke-width:1.12;"/>
     </g>
     <g id="line2d_8"/>
     <g id="text_4">
      <!-- 1.8 -->
      <g style="fill:#d9a384;" transform="translate(320.552242 255.891594)scale(0.126 -0.126)">
       <defs>
        <path d="M 2034 2216 
Q 1584 2216 1326 1975 
Q 1069 1734 1069 1313 
Q 1069 891 1326 650 
Q 1584 409 2034 409 
Q 2484 409 2743 651 
Q 3003 894 3003 1313 
Q 3003 1734 2745 1975 
Q 2488 2216 2034 2216 
z
M 1403 2484 
Q 997 2584 770 2862 
Q 544 3141 544 3541 
Q 544 4100 942 4425 
Q 1341 4750 2034 4750 
Q 2731 4750 3128 4425 
Q 3525 4100 3525 3541 
Q 3525 3141 3298 2862 
Q 3072 2584 2669 2484 
Q 3125 2378 3379 2068 
Q 3634 1759 3634 1313 
Q 3634 634 3220 271 
Q 2806 -91 2034 -91 
Q 1263 -91 848 271 
Q 434 634 434 1313 
Q 434 1759 690 2068 
Q 947 2378 1403 2484 
z
M 1172 3481 
Q 1172 3119 1398 2916 
Q 1625 2713 2034 2713 
Q 2441 2713 2670 2916 
Q 2900 3119 2900 3481 
Q 2900 3844 2670 4047 
Q 2441 4250 2034 4250 
Q 1625 4250 1398 4047 
Q 1172 3844 1172 3481 
z
" id="DejaVuSans-38" transform="scale(0.015625)"/>
       </defs>
       <use xlink:href="#DejaVuSans-31"/>
       <use x="63.623047" xlink:href="#DejaVuSans-2e"/>
       <use x="95.410156" xlink:href="#DejaVuSans-38"/>
      </g>
     </g>
    </g>
    <g id="xtick_5">
     <g id="line2d_9">
      <path clip-path="url(#p28e97ef92d)" d="M 402.155239 240.717563 
L 402.155239 15.587016 
" style="fill:none;stroke:#9ad9c8;stroke-dasharray:1.12,1.848;stroke-dashoffset:0;stroke-opacity:0.26;stroke-width:1.12;"/>
     </g>
     <g id="line2d_10"/>
     <g id="text_5">
      <!-- 2.0 -->
      <g style="fill:#d9a384;" transform="translate(392.136271 255.891594)scale(0.126 -0.126)">
       <defs>
        <path d="M 2034 4250 
Q 1547 4250 1301 3770 
Q 1056 3291 1056 2328 
Q 1056 1369 1301 889 
Q 1547 409 2034 409 
Q 2525 409 2770 889 
Q 3016 1369 3016 2328 
Q 3016 3291 2770 3770 
Q 2525 4250 2034 4250 
z
M 2034 4750 
Q 2819 4750 3233 4129 
Q 3647 3509 3647 2328 
Q 3647 1150 3233 529 
Q 2819 -91 2034 -91 
Q 1250 -91 836 529 
Q 422 1150 422 2328 
Q 422 3509 836 4129 
Q 1250 4750 2034 4750 
z
" id="DejaVuSans-30" transform="scale(0.015625)"/>
       </defs>
       <use xlink:href="#DejaVuSans-32"/>
       <use x="63.623047" xlink:href="#DejaVuSans-2e"/>
       <use x="95.410156" xlink:href="#DejaVuSans-30"/>
      </g>
     </g>
    </g>
    <g id="text_6">
     <!-- $\sqrt{s}$ [GeV] -->
     <g style="fill:#d9a384;" transform="translate(204.739219 274.20525)scale(0.144 -0.144)">
      <defs>
       <path d="M 3488 5191 
L 4078 5191 
L 4078 4891 
L 3719 4891 
L 1863 -128 
L 1656 -128 
L 659 2631 
L 269 2491 
L 191 2741 
L 1075 3047 
L 1875 831 
L 3488 5191 
z
" id="DejaVuSans-221a" transform="scale(0.015625)"/>
       <path d="M 3200 3397 
L 3091 2853 
Q 2863 2978 2609 3040 
Q 2356 3103 2088 3103 
Q 1634 3103 1373 2948 
Q 1113 2794 1113 2528 
Q 1113 2219 1719 2053 
Q 1766 2041 1788 2034 
L 1972 1978 
Q 2547 1819 2739 1644 
Q 2931 1469 2931 1166 
Q 2931 609 2489 259 
Q 2047 -91 1331 -91 
Q 1053 -91 747 -37 
Q 441 16 72 128 
L 184 722 
Q 500 559 806 475 
Q 1113 391 1394 391 
Q 1816 391 2080 572 
Q 2344 753 2344 1031 
Q 2344 1331 1650 1516 
L 1591 1531 
L 1394 1581 
Q 956 1697 753 1886 
Q 550 2075 550 2369 
Q 550 2928 970 3256 
Q 1391 3584 2113 3584 
Q 2397 3584 2667 3537 
Q 2938 3491 3200 3397 
z
" id="DejaVuSans-Oblique-73" transform="scale(0.015625)"/>
       <path id="DejaVuSans-20" transform="scale(0.015625)"/>
       <path d="M 550 4863 
L 1875 4863 
L 1875 4416 
L 1125 4416 
L 1125 -397 
L 1875 -397 
L 1875 -844 
L 550 -844 
L 550 4863 
z
" id="DejaVuSans-5b" transform="scale(0.015625)"/>
       <path d="M 3809 666 
L 3809 1919 
L 2778 1919 
L 2778 2438 
L 4434 2438 
L 4434 434 
Q 4069 175 3628 42 
Q 3188 -91 2688 -91 
Q 1594 -91 976 548 
Q 359 1188 359 2328 
Q 359 3472 976 4111 
Q 1594 4750 2688 4750 
Q 3144 4750 3555 4637 
Q 3966 4525 4313 4306 
L 4313 3634 
Q 3963 3931 3569 4081 
Q 3175 4231 2741 4231 
Q 1884 4231 1454 3753 
Q 1025 3275 1025 2328 
Q 1025 1384 1454 906 
Q 1884 428 2741 428 
Q 3075 428 3337 486 
Q 3600 544 3809 666 
z
" id="DejaVuSans-47" transform="scale(0.015625)"/>
       <path d="M 3597 1894 
L 3597 1613 
L 953 1613 
Q 991 1019 1311 708 
Q 1631 397 2203 397 
Q 2534 397 2845 478 
Q 3156 559 3463 722 
L 3463 178 
Q 3153 47 2828 -22 
Q 2503 -91 2169 -91 
Q 1331 -91 842 396 
Q 353 884 353 1716 
Q 353 2575 817 3079 
Q 1281 3584 2069 3584 
Q 2775 3584 3186 3129 
Q 3597 2675 3597 1894 
z
M 3022 2063 
Q 3016 2534 2758 2815 
Q 2500 3097 2075 3097 
Q 1594 3097 1305 2825 
Q 1016 2553 972 2059 
L 3022 2063 
z
" id="DejaVuSans-65" transform="scale(0.015625)"/>
       <path d="M 1831 0 
L 50 4666 
L 709 4666 
L 2188 738 
L 3669 4666 
L 4325 4666 
L 2547 0 
L 1831 0 
z
" id="DejaVuSans-56" transform="scale(0.015625)"/>
       <path d="M 1947 4863 
L 1947 -844 
L 622 -844 
L 622 -397 
L 1369 -397 
L 1369 4416 
L 622 4416 
L 622 4863 
L 1947 4863 
z
" id="DejaVuSans-5d" transform="scale(0.015625)"/>
      </defs>
      <use transform="translate(0 0.890625)" xlink:href="#DejaVuSans-221a"/>
      <use transform="translate(76.220703 0.75)" xlink:href="#DejaVuSans-Oblique-73"/>
      <use transform="translate(140.820312 0.890625)" xlink:href="#DejaVuSans-20"/>
      <use transform="translate(172.607422 0.890625)" xlink:href="#DejaVuSans-5b"/>
      <use transform="translate(211.621094 0.890625)" xlink:href="#DejaVuSans-47"/>
      <use transform="translate(289.111328 0.890625)" xlink:href="#DejaVuSans-65"/>
      <use transform="translate(350.634766 0.890625)" xlink:href="#DejaVuSans-56"/>
      <use transform="translate(419.042969 0.890625)" xlink:href="#DejaVuSans-5d"/>
      <path d="M 63.720703 75.5 
L 63.720703 81.75 
L 140.820312 81.75 
L 140.820312 75.5 
L 63.720703 75.5 
z
"/>
     </g>
    </g>
   </g>
   <g id="matplotlib.axis_2">
    <g id="ytick_1">
     <g id="line2d_11">
      <path clip-path="url(#p28e97ef92d)" d="M 54.374438 217.030212 
L 421.2 217.030212 
" style="fill:none;stroke:#9ad9c8;stroke-dasharray:1.12,1.848;stroke-dashoffset:0;stroke-opacity:0.26;stroke-width:1.12;"/>
     </g>
     <g id="line2d_12"/>
     <g id="text_7">
      <!-- 0.2 -->
      <g style="fill:#d9a384;" transform="translate(28.7365 221.817228)scale(0.126 -0.126)">
       <use xlink:href="#DejaVuSans-30"/>
       <use x="63.623047" xlink:href="#DejaVuSans-2e"/>
       <use x="95.410156" xlink:href="#DejaVuSans-32"/>
      </g>
     </g>
    </g>
    <g id="ytick_2">
     <g id="line2d_13">
      <path clip-path="url(#p28e97ef92d)" d="M 54.374438 193.331013 
L 421.2 193.331013 
" style="fill:none;stroke:#9ad9c8;stroke-dasharray:1.12,1.848;stroke-dashoffset:0;stroke-opacity:0.26;stroke-width:1.12;"/>
     </g>
     <g id="line2d_14"/>
     <g id="text_8">
      <!-- 0.4 -->
      <g style="fill:#d9a384;" transform="translate(28.7365 198.118028)scale(0.126 -0.126)">
       <use xlink:href="#DejaVuSans-30"/>
       <use x="63.623047" xlink:href="#DejaVuSans-2e"/>
       <use x="95.410156" xlink:href="#DejaVuSans-34"/>
      </g>
     </g>
    </g>
    <g id="ytick_3">
     <g id="line2d_15">
      <path clip-path="url(#p28e97ef92d)" d="M 54.374438 169.631813 
L 421.2 169.631813 
" style="fill:none;stroke:#9ad9c8;stroke-dasharray:1.12,1.848;stroke-dashoffset:0;stroke-opacity:0.26;stroke-width:1.12;"/>
     </g>
     <g id="line2d_16"/>
     <g id="text_9">
      <!-- 0.6 -->
      <g style="fill:#d9a384;" transform="translate(28.7365 174.418829)scale(0.126 -0.126)">
       <use xlink:href="#DejaVuSans-30"/>
       <use x="63.623047" xlink:href="#DejaVuSans-2e"/>
       <use x="95.410156" xlink:href="#DejaVuSans-36"/>
      </g>
     </g>
    </g>
    <g id="ytick_4">
     <g id="line2d_17">
      <path clip-path="url(#p28e97ef92d)" d="M 54.374438 145.932614 
L 421.2 145.932614 
" style="fill:none;stroke:#9ad9c8;stroke-dasharray:1.12,1.848;stroke-dashoffset:0;stroke-opacity:0.26;stroke-width:1.12;"/>
     </g>
     <g id="line2d_18"/>
     <g id="text_10">
      <!-- 0.8 -->
      <g style="fill:#d9a384;" transform="translate(28.7365 150.719629)scale(0.126 -0.126)">
       <use xlink:href="#DejaVuSans-30"/>
       <use x="63.623047" xlink:href="#DejaVuSans-2e"/>
       <use x="95.410156" xlink:href="#DejaVuSans-38"/>
      </g>
     </g>
    </g>
    <g id="ytick_5">
     <g id="line2d_19">
      <path clip-path="url(#p28e97ef92d)" d="M 54.374438 122.233414 
L 421.2 122.233414 
" style="fill:none;stroke:#9ad9c8;stroke-dasharray:1.12,1.848;stroke-dashoffset:0;stroke-opacity:0.26;stroke-width:1.12;"/>
     </g>
     <g id="line2d_20"/>
     <g id="text_11">
      <!-- 1 -->
      <g style="fill:#d9a384;" transform="translate(40.757688 127.02043)scale(0.126 -0.126)">
       <use xlink:href="#DejaVuSans-31"/>
      </g>
     </g>
    </g>
    <g id="ytick_6">
     <g id="line2d_21">
      <path clip-path="url(#p28e97ef92d)" d="M 54.374438 47.69078 
L 421.2 47.69078 
" style="fill:none;stroke:#9ad9c8;stroke-dasharray:1.12,1.848;stroke-dashoffset:0;stroke-opacity:0.26;stroke-width:1.12;"/>
     </g>
     <g id="line2d_22"/>
     <g id="text_12">
      <!-- 5 -->
      <g style="fill:#d9a384;" transform="translate(40.757688 52.477796)scale(0.126 -0.126)">
       <defs>
        <path d="M 691 4666 
L 3169 4666 
L 3169 4134 
L 1269 4134 
L 1269 2991 
Q 1406 3038 1543 3061 
Q 1681 3084 1819 3084 
Q 2600 3084 3056 2656 
Q 3513 2228 3513 1497 
Q 3513 744 3044 326 
Q 2575 -91 1722 -91 
Q 1428 -91 1123 -41 
Q 819 9 494 109 
L 494 744 
Q 775 591 1075 516 
Q 1375 441 1709 441 
Q 2250 441 2565 725 
Q 2881 1009 2881 1497 
Q 2881 1984 2565 2268 
Q 2250 2553 1709 2553 
Q 1456 2553 1204 2497 
Q 953 2441 691 2322 
L 691 4666 
z
" id="DejaVuSans-35" transform="scale(0.015625)"/>
       </defs>
       <use xlink:href="#DejaVuSans-35"/>
      </g>
     </g>
    </g>
    <g id="ytick_7">
     <g id="line2d_23">
      <path clip-path="url(#p28e97ef92d)" d="M 54.374438 15.587016 
L 421.2 15.587016 
" style="fill:none;stroke:#9ad9c8;stroke-dasharray:1.12,1.848;stroke-dashoffset:0;stroke-opacity:0.26;stroke-width:1.12;"/>
     </g>
     <g id="line2d_24"/>
     <g id="text_13">
      <!-- 10 -->
      <g style="fill:#d9a384;" transform="translate(32.740938 20.374031)scale(0.126 -0.126)">
       <use xlink:href="#DejaVuSans-31"/>
       <use x="63.623047" xlink:href="#DejaVuSans-30"/>
      </g>
     </g>
    </g>
    <g id="text_14">
     <!-- $\sigma$ [nb] -->
     <g style="fill:#d9a384;" transform="translate(21.74175 149.824289)rotate(-90)scale(0.144 -0.144)">
      <defs>
       <path d="M 2219 3044 
Q 1744 3044 1422 2700 
Q 1081 2341 969 1747 
Q 844 1119 1044 756 
Q 1241 397 1706 397 
Q 2166 397 2503 759 
Q 2844 1122 2966 1747 
Q 3075 2319 2881 2700 
Q 2700 3044 2219 3044 
z
M 2309 3503 
L 4219 3500 
L 4106 2925 
L 3463 2925 
Q 3706 2438 3575 1747 
Q 3406 888 2884 400 
Q 2359 -91 1609 -91 
Q 856 -91 525 400 
Q 194 888 363 1747 
Q 528 2609 1050 3097 
Q 1484 3503 2309 3503 
z
" id="DejaVuSans-Oblique-3c3" transform="scale(0.015625)"/>
       <path d="M 3513 2113 
L 3513 0 
L 2938 0 
L 2938 2094 
Q 2938 2591 2744 2837 
Q 2550 3084 2163 3084 
Q 1697 3084 1428 2787 
Q 1159 2491 1159 1978 
L 1159 0 
L 581 0 
L 581 3500 
L 1159 3500 
L 1159 2956 
Q 1366 3272 1645 3428 
Q 1925 3584 2291 3584 
Q 2894 3584 3203 3211 
Q 3513 2838 3513 2113 
z
" id="DejaVuSans-6e" transform="scale(0.015625)"/>
       <path d="M 3116 1747 
Q 3116 2381 2855 2742 
Q 2594 3103 2138 3103 
Q 1681 3103 1420 2742 
Q 1159 2381 1159 1747 
Q 1159 1113 1420 752 
Q 1681 391 2138 391 
Q 2594 391 2855 752 
Q 3116 1113 3116 1747 
z
M 1159 2969 
Q 1341 3281 1617 3432 
Q 1894 3584 2278 3584 
Q 2916 3584 3314 3078 
Q 3713 2572 3713 1747 
Q 3713 922 3314 415 
Q 2916 -91 2278 -91 
Q 1894 -91 1617 61 
Q 1341 213 1159 525 
L 1159 0 
L 581 0 
L 581 4863 
L 1159 4863 
L 1159 2969 
z
" id="DejaVuSans-62" transform="scale(0.015625)"/>
      </defs>
      <use transform="translate(0 0.015625)" xlink:href="#DejaVuSans-Oblique-3c3"/>
      <use transform="translate(63.378906 0.015625)" xlink:href="#DejaVuSans-20"/>
      <use transform="translate(95.166016 0.015625)" xlink:href="#DejaVuSans-5b"/>
      <use transform="translate(134.179688 0.015625)" xlink:href="#DejaVuSans-6e"/>
      <use transform="translate(197.558594 0.015625)" xlink:href="#DejaVuSans-62"/>
      <use transform="translate(261.035156 0.015625)" xlink:href="#DejaVuSans-5d"/>
     </g>
    </g>
   </g>
   <g id="LineCollection_1">
    <path clip-path="url(#p28e97ef92d)" d="M 78.910402 54.2371 
L 78.910402 48.887385 
" style="fill:none;stroke:#8c7b48;"/>
    <path clip-path="url(#p28e97ef92d)" d="M 98.145027 95.574758 
L 98.145027 87.375571 
" style="fill:none;stroke:#8c7b48;"/>
    <path clip-path="url(#p28e97ef92d)" d="M 114.413922 142.864195 
L 114.413922 117.50238 
" style="fill:none;stroke:#8c7b48;"/>
    <path clip-path="url(#p28e97ef92d)" d="M 131.904036 200.30707 
L 131.904036 169.877585 
" style="fill:none;stroke:#8c7b48;"/>
    <path clip-path="url(#p28e97ef92d)" d="M 149.871653 199.019889 
L 149.871653 172.728354 
" style="fill:none;stroke:#8c7b48;"/>
    <path clip-path="url(#p28e97ef92d)" d="M 167.216449 220.129552 
L 167.216449 201.482974 
" style="fill:none;stroke:#8c7b48;"/>
    <path clip-path="url(#p28e97ef92d)" d="M 185.255633 223.464579 
L 185.255633 206.477385 
" style="fill:none;stroke:#8c7b48;"/>
    <path clip-path="url(#p28e97ef92d)" d="M 202.936897 226.472378 
L 202.936897 208.73387 
" style="fill:none;stroke:#8c7b48;"/>
    <path clip-path="url(#p28e97ef92d)" d="M 221.083431 207.625365 
L 221.083431 187.166802 
" style="fill:none;stroke:#8c7b48;"/>
    <path clip-path="url(#p28e97ef92d)" d="M 238.657301 181.78562 
L 238.657301 158.812786 
" style="fill:none;stroke:#8c7b48;"/>
    <path clip-path="url(#p28e97ef92d)" d="M 256.768095 154.3731 
L 256.768095 127.643189 
" style="fill:none;stroke:#8c7b48;"/>
    <path clip-path="url(#p28e97ef92d)" d="M 274.393478 177.989784 
L 274.393478 154.165192 
" style="fill:none;stroke:#8c7b48;"/>
    <path clip-path="url(#p28e97ef92d)" d="M 292.223642 207.421784 
L 292.223642 191.731013 
" style="fill:none;stroke:#8c7b48;"/>
    <path clip-path="url(#p28e97ef92d)" d="M 309.682997 232.35812 
L 309.682997 221.458442 
" style="fill:none;stroke:#8c7b48;"/>
    <path clip-path="url(#p28e97ef92d)" d="M 328.028545 235.870427 
L 328.028545 224.431441 
" style="fill:none;stroke:#8c7b48;"/>
    <path clip-path="url(#p28e97ef92d)" d="M 347.977568 240.498469 
L 347.977568 231.47132 
" style="fill:none;stroke:#8c7b48;"/>
    <path clip-path="url(#p28e97ef92d)" d="M 366.837845 241.57547 
L 366.837845 239.883354 
" style="fill:none;stroke:#8c7b48;"/>
    <path clip-path="url(#p28e97ef92d)" d="M 376.042099 241.133976 
L 376.042099 240.32484 
" style="fill:none;stroke:#8c7b48;"/>
    <path clip-path="url(#p28e97ef92d)" d="M 385.202705 238.286804 
L 385.202705 228.45336 
" style="fill:none;stroke:#8c7b48;"/>
    <path clip-path="url(#p28e97ef92d)" d="M 394.439203 237.610936 
L 394.439203 227.992401 
" style="fill:none;stroke:#8c7b48;"/>
    <path clip-path="url(#p28e97ef92d)" d="M 403.808829 241.36853 
L 403.808829 240.090294 
" style="fill:none;stroke:#8c7b48;"/>
    <path clip-path="url(#p28e97ef92d)" d="M 364.000961 234.360668 
L 364.000961 225.793873 
" style="fill:none;stroke:#8c7b48;"/>
    <path clip-path="url(#p28e97ef92d)" d="M 356.045102 241.036807 
L 356.045102 234.788201 
" style="fill:none;stroke:#8c7b48;"/>
    <path clip-path="url(#p28e97ef92d)" d="M 340.028875 232.491709 
L 340.028875 222.533422 
" style="fill:none;stroke:#8c7b48;"/>
    <path clip-path="url(#p28e97ef92d)" d="M 321.162219 265.425615 
L 321.162219 216.033208 
" style="fill:none;stroke:#8c7b48;"/>
    <path clip-path="url(#p28e97ef92d)" d="M 303.051469 231.165777 
L 303.051469 219.386269 
" style="fill:none;stroke:#8c7b48;"/>
    <path clip-path="url(#p28e97ef92d)" d="M 283.840437 169.392605 
L 283.840437 148.359599 
" style="fill:none;stroke:#8c7b48;"/>
    <path clip-path="url(#p28e97ef92d)" d="M 267.190728 144.575377 
L 267.190728 121.550763 
" style="fill:none;stroke:#8c7b48;"/>
    <path clip-path="url(#p28e97ef92d)" d="M 248.916746 157.541327 
L 248.916746 132.628731 
" style="fill:none;stroke:#8c7b48;"/>
    <path clip-path="url(#p28e97ef92d)" d="M 195.656814 210.409162 
L 195.656814 190.987039 
" style="fill:none;stroke:#8c7b48;"/>
    <path clip-path="url(#p28e97ef92d)" d="M 212.980856 237.489656 
L 212.980856 222.589899 
" style="fill:none;stroke:#8c7b48;"/>
    <path clip-path="url(#p28e97ef92d)" d="M 231.198257 187.555806 
L 231.198257 166.745747 
" style="fill:none;stroke:#8c7b48;"/>
    <path clip-path="url(#p28e97ef92d)" d="M 177.91827 233.186936 
L 177.91827 212.318809 
" style="fill:none;stroke:#8c7b48;"/>
    <path clip-path="url(#p28e97ef92d)" d="M 159.972149 211.631378 
L 159.972149 192.240918 
" style="fill:none;stroke:#8c7b48;"/>
    <path clip-path="url(#p28e97ef92d)" d="M 141.868564 168.549456 
L 141.868564 141.741668 
" style="fill:none;stroke:#8c7b48;"/>
    <path clip-path="url(#p28e97ef92d)" d="M 124.201631 125.77744 
L 124.201631 113.050463 
" style="fill:none;stroke:#8c7b48;"/>
    <path clip-path="url(#p28e97ef92d)" d="M 106.548985 104.908142 
L 106.548985 97.17003 
" style="fill:none;stroke:#8c7b48;"/>
   </g>
   <g id="LineCollection_2">
    <path clip-path="url(#p28e97ef92d)" d="M 143.400473 162.926218 
L 143.400473 140.19555 
" style="fill:none;stroke:#9ad9c8;"/>
    <path clip-path="url(#p28e97ef92d)" d="M 171.847959 204.268729 
L 171.847959 185.614657 
" style="fill:none;stroke:#9ad9c8;"/>
    <path clip-path="url(#p28e97ef92d)" d="M 199.901741 214.812918 
L 199.901741 200.271763 
" style="fill:none;stroke:#9ad9c8;"/>
    <path clip-path="url(#p28e97ef92d)" d="M 228.420794 199.316204 
L 228.420794 182.819931 
" style="fill:none;stroke:#9ad9c8;"/>
    <path clip-path="url(#p28e97ef92d)" d="M 257.197582 152.231192 
L 257.197582 132.604565 
" style="fill:none;stroke:#9ad9c8;"/>
    <path clip-path="url(#p28e97ef92d)" d="M 285.51194 180.738539 
L 285.51194 165.526649 
" style="fill:none;stroke:#9ad9c8;"/>
    <path clip-path="url(#p28e97ef92d)" d="M 300.450081 221.125934 
L 300.450081 209.820569 
" style="fill:none;stroke:#9ad9c8;"/>
    <path clip-path="url(#p28e97ef92d)" d="M 315.438337 236.575539 
L 315.438337 230.157037 
" style="fill:none;stroke:#9ad9c8;"/>
    <path clip-path="url(#p28e97ef92d)" d="M 329.862536 241.537272 
L 329.862536 239.921552 
" style="fill:none;stroke:#9ad9c8;"/>
    <path clip-path="url(#p28e97ef92d)" d="M 344.904488 241.426953 
L 344.904488 237.483147 
" style="fill:none;stroke:#9ad9c8;"/>
    <path clip-path="url(#p28e97ef92d)" d="M 357.155389 241.20703 
L 357.155389 240.251793 
" style="fill:none;stroke:#9ad9c8;"/>
    <path clip-path="url(#p28e97ef92d)" d="M 367.508552 241.212613 
L 367.508552 240.246165 
" style="fill:none;stroke:#9ad9c8;"/>
    <path clip-path="url(#p28e97ef92d)" d="M 382.426683 236.390676 
L 382.426683 229.360713 
" style="fill:none;stroke:#9ad9c8;"/>
    <path clip-path="url(#p28e97ef92d)" d="M 390.343875 241.104626 
L 390.343875 240.354198 
" style="fill:none;stroke:#9ad9c8;"/>
    <path clip-path="url(#p28e97ef92d)" d="M 398.035575 238.365703 
L 398.035575 229.858662 
" style="fill:none;stroke:#9ad9c8;"/>
    <path clip-path="url(#p28e97ef92d)" d="M 375.236079 234.274396 
L 375.236079 224.239639 
" style="fill:none;stroke:#9ad9c8;"/>
   </g>
   <g id="LineCollection_3">
    <path clip-path="url(#p28e97ef92d)" d="M 292.493611 215.465971 
L 292.493611 203.078548 
" style="fill:none;stroke:#cc6fd9;"/>
    <path clip-path="url(#p28e97ef92d)" d="M 299.953222 224.74875 
L 299.953222 214.050298 
" style="fill:none;stroke:#cc6fd9;"/>
    <path clip-path="url(#p28e97ef92d)" d="M 307.056574 239.027993 
L 307.056574 230.407577 
" style="fill:none;stroke:#cc6fd9;"/>
    <path clip-path="url(#p28e97ef92d)" d="M 314.08482 240.941855 
L 314.08482 235.485558 
" style="fill:none;stroke:#cc6fd9;"/>
    <path clip-path="url(#p28e97ef92d)" d="M 322.753592 240.971126 
L 322.753592 240.48764 
" style="fill:none;stroke:#cc6fd9;"/>
    <path clip-path="url(#p28e97ef92d)" d="M 330.234569 256.950119 
L 330.234569 224.508705 
" style="fill:none;stroke:#cc6fd9;"/>
    <path clip-path="url(#p28e97ef92d)" d="M 337.525881 239.058182 
L 337.525881 233.075144 
" style="fill:none;stroke:#cc6fd9;"/>
    <path clip-path="url(#p28e97ef92d)" d="M 344.858831 240.260201 
L 344.858831 233.738116 
" style="fill:none;stroke:#cc6fd9;"/>
    <path clip-path="url(#p28e97ef92d)" d="M 352.391888 239.596085 
L 352.391888 233.180861 
" style="fill:none;stroke:#cc6fd9;"/>
    <path clip-path="url(#p28e97ef92d)" d="M 355.964055 240.375511 
L 355.964055 233.250334 
" style="fill:none;stroke:#cc6fd9;"/>
    <path clip-path="url(#p28e97ef92d)" d="M 360.549295 240.941639 
L 360.549295 237.313474 
" style="fill:none;stroke:#cc6fd9;"/>
    <path clip-path="url(#p28e97ef92d)" d="M 366.61633 240.970252 
L 366.61633 236.372138 
" style="fill:none;stroke:#cc6fd9;"/>
    <path clip-path="url(#p28e97ef92d)" d="M 373.973528 235.097956 
L 373.973528 228.307772 
" style="fill:none;stroke:#cc6fd9;"/>
    <path clip-path="url(#p28e97ef92d)" d="M 381.565394 240.908812 
L 381.565394 237.341521 
" style="fill:none;stroke:#cc6fd9;"/>
    <path clip-path="url(#p28e97ef92d)" d="M 389.23953 237.126765 
L 389.23953 230.373139 
" style="fill:none;stroke:#cc6fd9;"/>
    <path clip-path="url(#p28e97ef92d)" style="fill:none;stroke:#cc6fd9;"/>
    <path clip-path="url(#p28e97ef92d)" d="M 404.526111 233.700583 
L 404.526111 229.89552 
" style="fill:none;stroke:#cc6fd9;"/>
    <path clip-path="url(#p28e97ef92d)" d="M 358.310677 237.674534 
L 358.310677 233.010264 
" style="fill:none;stroke:#cc6fd9;"/>
    <path clip-path="url(#p28e97ef92d)" d="M 358.820556 241.422214 
L 358.820556 240.03661 
" style="fill:none;stroke:#cc6fd9;"/>
    <path clip-path="url(#p28e97ef92d)" d="M 359.347999 240.876393 
L 359.347999 237.988637 
" style="fill:none;stroke:#cc6fd9;"/>
    <path clip-path="url(#p28e97ef92d)" d="M 357.899716 240.847463 
L 357.899716 237.990959 
" style="fill:none;stroke:#cc6fd9;"/>
    <path clip-path="url(#p28e97ef92d)" d="M 357.356457 240.826734 
L 357.356457 236.77387 
" style="fill:none;stroke:#cc6fd9;"/>
    <path clip-path="url(#p28e97ef92d)" d="M 359.60757 241.455145 
L 359.60757 238.674438 
" style="fill:none;stroke:#cc6fd9;"/>
    <path clip-path="url(#p28e97ef92d)" d="M 357.146214 239.629464 
L 357.146214 233.747855 
" style="fill:none;stroke:#cc6fd9;"/>
    <path clip-path="url(#p28e97ef92d)" d="M 287.242382 201.055229 
L 287.242382 186.282954 
" style="fill:none;stroke:#cc6fd9;"/>
    <path clip-path="url(#p28e97ef92d)" d="M 276.917487 162.640753 
L 276.917487 149.015287 
" style="fill:none;stroke:#cc6fd9;"/>
    <path clip-path="url(#p28e97ef92d)" d="M 259.601877 155.862253 
L 259.601877 139.915495 
" style="fill:none;stroke:#cc6fd9;"/>
    <path clip-path="url(#p28e97ef92d)" d="M 240.984568 190.180604 
L 240.984568 176.065846 
" style="fill:none;stroke:#cc6fd9;"/>
    <path clip-path="url(#p28e97ef92d)" d="M 222.873818 199.433335 
L 222.873818 186.123151 
" style="fill:none;stroke:#cc6fd9;"/>
    <path clip-path="url(#p28e97ef92d)" d="M 205.255645 224.945996 
L 205.255645 213.539499 
" style="fill:none;stroke:#cc6fd9;"/>
    <path clip-path="url(#p28e97ef92d)" d="M 187.805596 231.988231 
L 187.805596 219.74568 
" style="fill:none;stroke:#cc6fd9;"/>
    <path clip-path="url(#p28e97ef92d)" d="M 169.40172 211.804668 
L 169.40172 199.54215 
" style="fill:none;stroke:#cc6fd9;"/>
    <path clip-path="url(#p28e97ef92d)" d="M 151.447996 204.270244 
L 151.447996 188.688945 
" style="fill:none;stroke:#cc6fd9;"/>
    <path clip-path="url(#p28e97ef92d)" d="M 145.181816 194.386322 
L 145.181816 185.902808 
" style="fill:none;stroke:#cc6fd9;"/>
   </g>
   <g id="LineCollection_4">
    <path clip-path="url(#p28e97ef92d)" d="M 71.048327 33.809116 
L 71.048327 31.522608 
" style="fill:none;stroke:#d9c384;"/>
    <path clip-path="url(#p28e97ef92d)" d="M 79.561099 57.017195 
L 79.561099 54.158433 
" style="fill:none;stroke:#d9c384;"/>
    <path clip-path="url(#p28e97ef92d)" d="M 97.819963 90.684576 
L 97.819963 85.9394 
" style="fill:none;stroke:#d9c384;"/>
    <path clip-path="url(#p28e97ef92d)" d="M 107.033173 109.825697 
L 107.033173 103.827014 
" style="fill:none;stroke:#d9c384;"/>
    <path clip-path="url(#p28e97ef92d)" d="M 115.740307 137.71314 
L 115.740307 121.390379 
" style="fill:none;stroke:#d9c384;"/>
    <path clip-path="url(#p28e97ef92d)" d="M 124.854104 145.448834 
L 124.854104 128.412961 
" style="fill:none;stroke:#d9c384;"/>
    <path clip-path="url(#p28e97ef92d)" d="M 133.437255 156.662134 
L 133.437255 139.078244 
" style="fill:none;stroke:#d9c384;"/>
    <path clip-path="url(#p28e97ef92d)" d="M 142.33816 199.566284 
L 142.33816 185.290344 
" style="fill:none;stroke:#d9c384;"/>
    <path clip-path="url(#p28e97ef92d)" d="M 145.1144 186.649899 
L 145.1144 180.002515 
" style="fill:none;stroke:#d9c384;"/>
    <path clip-path="url(#p28e97ef92d)" d="M 151.579376 209.25385 
L 151.579376 195.015369 
" style="fill:none;stroke:#d9c384;"/>
    <path clip-path="url(#p28e97ef92d)" d="M 160.405306 203.497857 
L 160.405306 189.158606 
" style="fill:none;stroke:#d9c384;"/>
    <path clip-path="url(#p28e97ef92d)" d="M 169.357198 205.470834 
L 169.357198 191.819594 
" style="fill:none;stroke:#d9c384;"/>
    <path clip-path="url(#p28e97ef92d)" d="M 178.179065 216.485293 
L 178.179065 204.965392 
" style="fill:none;stroke:#d9c384;"/>
    <path clip-path="url(#p28e97ef92d)" d="M 187.306377 221.687064 
L 187.306377 208.454789 
" style="fill:none;stroke:#d9c384;"/>
    <path clip-path="url(#p28e97ef92d)" d="M 196.416782 220.05249 
L 196.416782 207.639585 
" style="fill:none;stroke:#d9c384;"/>
    <path clip-path="url(#p28e97ef92d)" d="M 205.653717 220.128579 
L 205.653717 208.968015 
" style="fill:none;stroke:#d9c384;"/>
    <path clip-path="url(#p28e97ef92d)" d="M 214.144927 214.370788 
L 214.144927 201.62293 
" style="fill:none;stroke:#d9c384;"/>
    <path clip-path="url(#p28e97ef92d)" d="M 223.207184 202.85397 
L 223.207184 188.976227 
" style="fill:none;stroke:#d9c384;"/>
    <path clip-path="url(#p28e97ef92d)" d="M 232.356779 182.698073 
L 232.356779 169.965112 
" style="fill:none;stroke:#d9c384;"/>
    <path clip-path="url(#p28e97ef92d)" d="M 241.081781 185.087717 
L 241.081781 170.287008 
" style="fill:none;stroke:#d9c384;"/>
    <path clip-path="url(#p28e97ef92d)" d="M 249.981856 169.638395 
L 249.981856 155.430493 
" style="fill:none;stroke:#d9c384;"/>
    <path clip-path="url(#p28e97ef92d)" d="M 258.876294 146.274126 
L 258.876294 131.815035 
" style="fill:none;stroke:#d9c384;"/>
    <path clip-path="url(#p28e97ef92d)" d="M 268.023792 148.75183 
L 268.023792 135.638708 
" style="fill:none;stroke:#d9c384;"/>
    <path clip-path="url(#p28e97ef92d)" d="M 276.462573 163.270092 
L 276.462573 149.825848 
" style="fill:none;stroke:#d9c384;"/>
    <path clip-path="url(#p28e97ef92d)" d="M 285.852668 196.111742 
L 285.852668 184.013167 
" style="fill:none;stroke:#d9c384;"/>
    <path clip-path="url(#p28e97ef92d)" d="M 294.931243 219.220085 
L 294.931243 208.683345 
" style="fill:none;stroke:#d9c384;"/>
    <path clip-path="url(#p28e97ef92d)" d="M 303.022676 237.039182 
L 303.022676 229.697327 
" style="fill:none;stroke:#d9c384;"/>
    <path clip-path="url(#p28e97ef92d)" d="M 312.584631 239.256662 
L 312.584631 232.061948 
" style="fill:none;stroke:#d9c384;"/>
    <path clip-path="url(#p28e97ef92d)" d="M 321.639024 239.764647 
L 321.639024 233.111044 
" style="fill:none;stroke:#d9c384;"/>
    <path clip-path="url(#p28e97ef92d)" d="M 330.938656 241.411098 
L 330.938656 240.047704 
" style="fill:none;stroke:#d9c384;"/>
    <path clip-path="url(#p28e97ef92d)" d="M 340.147803 244.462462 
L 340.147803 236.995047 
" style="fill:none;stroke:#d9c384;"/>
    <path clip-path="url(#p28e97ef92d)" d="M 348.892554 241.008645 
L 348.892554 240.450176 
" style="fill:none;stroke:#d9c384;"/>
    <path clip-path="url(#p28e97ef92d)" d="M 356.512601 236.564463 
L 356.512601 231.891416 
" style="fill:none;stroke:#d9c384;"/>
    <path clip-path="url(#p28e97ef92d)" d="M 362.663479 240.851618 
L 362.663479 238.404269 
" style="fill:none;stroke:#d9c384;"/>
    <path clip-path="url(#p28e97ef92d)" d="M 366.468827 238.087213 
L 366.468827 233.632049 
" style="fill:none;stroke:#d9c384;"/>
    <path clip-path="url(#p28e97ef92d)" d="M 367.108339 238.57539 
L 367.108339 234.360837 
" style="fill:none;stroke:#d9c384;"/>
    <path clip-path="url(#p28e97ef92d)" d="M 370.691822 241.144871 
L 370.691822 240.313927 
" style="fill:none;stroke:#d9c384;"/>
    <path clip-path="url(#p28e97ef92d)" d="M 375.541963 237.941077 
L 375.541963 233.80789 
" style="fill:none;stroke:#d9c384;"/>
    <path clip-path="url(#p28e97ef92d)" d="M 382.742135 236.932165 
L 382.742135 233.959026 
" style="fill:none;stroke:#d9c384;"/>
    <path clip-path="url(#p28e97ef92d)" d="M 386.406753 234.573101 
L 386.406753 224.59443 
" style="fill:none;stroke:#d9c384;"/>
    <path clip-path="url(#p28e97ef92d)" d="M 393.425299 240.240857 
L 393.425299 236.247503 
" style="fill:none;stroke:#d9c384;"/>
   </g>
   <g id="LineCollection_5">
    <path clip-path="url(#p28e97ef92d)" d="M 355.419397 237.861641 
L 355.419397 235.856672 
" style="fill:none;stroke:#cd853f;"/>
    <path clip-path="url(#p28e97ef92d)" d="M 363.113894 239.822362 
L 363.113894 238.075165 
" style="fill:none;stroke:#cd853f;"/>
    <path clip-path="url(#p28e97ef92d)" d="M 366.585658 237.365463 
L 366.585658 235.469654 
" style="fill:none;stroke:#cd853f;"/>
    <path clip-path="url(#p28e97ef92d)" d="M 373.705438 238.459169 
L 373.705438 236.351185 
" style="fill:none;stroke:#cd853f;"/>
    <path clip-path="url(#p28e97ef92d)" d="M 381.09759 236.842495 
L 381.09759 234.247615 
" style="fill:none;stroke:#cd853f;"/>
   </g>
   <g id="line2d_25">
    <defs>
     <path d="M 0 1.4 
C 0.371284 1.4 0.727412 1.252487 0.989949 0.989949 
C 1.252487 0.727412 1.4 0.371284 1.4 0 
C 1.4 -0.371284 1.252487 -0.727412 0.989949 -0.989949 
C 0.727412 -1.252487 0.371284 -1.4 0 -1.4 
C -0.371284 -1.4 -0.727412 -1.252487 -0.989949 -0.989949 
C -1.252487 -0.727412 -1.4 -0.371284 -1.4 0 
C -1.4 0.371284 -1.252487 0.727412 -0.989949 0.989949 
C -0.727412 1.252487 -0.371284 1.4 0 1.4 
z
" id="mb0af1448d0"/>
    </defs>
    <g clip-path="url(#p28e97ef92d)">
     <use style="fill:#8c7b48;" x="78.910402" xlink:href="#mb0af1448d0" y="51.485046"/>
     <use style="fill:#8c7b48;" x="98.145027" xlink:href="#mb0af1448d0" y="91.293966"/>
     <use style="fill:#8c7b48;" x="114.413922" xlink:href="#mb0af1448d0" y="126.176905"/>
     <use style="fill:#8c7b48;" x="131.904036" xlink:href="#mb0af1448d0" y="185.092327"/>
     <use style="fill:#8c7b48;" x="149.871653" xlink:href="#mb0af1448d0" y="185.874121"/>
     <use style="fill:#8c7b48;" x="167.216449" xlink:href="#mb0af1448d0" y="210.806263"/>
     <use style="fill:#8c7b48;" x="185.255633" xlink:href="#mb0af1448d0" y="214.970982"/>
     <use style="fill:#8c7b48;" x="202.936897" xlink:href="#mb0af1448d0" y="217.603124"/>
     <use style="fill:#8c7b48;" x="221.083431" xlink:href="#mb0af1448d0" y="197.396084"/>
     <use style="fill:#8c7b48;" x="238.657301" xlink:href="#mb0af1448d0" y="170.299203"/>
     <use style="fill:#8c7b48;" x="256.768095" xlink:href="#mb0af1448d0" y="141.008144"/>
     <use style="fill:#8c7b48;" x="274.393478" xlink:href="#mb0af1448d0" y="166.077488"/>
     <use style="fill:#8c7b48;" x="292.223642" xlink:href="#mb0af1448d0" y="199.576399"/>
     <use style="fill:#8c7b48;" x="309.682997" xlink:href="#mb0af1448d0" y="226.908281"/>
     <use style="fill:#8c7b48;" x="328.028545" xlink:href="#mb0af1448d0" y="230.150934"/>
     <use style="fill:#8c7b48;" x="347.977568" xlink:href="#mb0af1448d0" y="235.984895"/>
     <use style="fill:#8c7b48;" x="366.837845" xlink:href="#mb0af1448d0" y="240.729412"/>
     <use style="fill:#8c7b48;" x="376.042099" xlink:href="#mb0af1448d0" y="240.729408"/>
     <use style="fill:#8c7b48;" x="385.202705" xlink:href="#mb0af1448d0" y="233.370082"/>
     <use style="fill:#8c7b48;" x="394.439203" xlink:href="#mb0af1448d0" y="232.801668"/>
     <use style="fill:#8c7b48;" x="403.808829" xlink:href="#mb0af1448d0" y="240.729412"/>
     <use style="fill:#8c7b48;" x="364.000961" xlink:href="#mb0af1448d0" y="230.07727"/>
     <use style="fill:#8c7b48;" x="356.045102" xlink:href="#mb0af1448d0" y="237.912504"/>
     <use style="fill:#8c7b48;" x="340.028875" xlink:href="#mb0af1448d0" y="227.512566"/>
     <use style="fill:#8c7b48;" x="321.162219" xlink:href="#mb0af1448d0" y="240.729412"/>
     <use style="fill:#8c7b48;" x="303.051469" xlink:href="#mb0af1448d0" y="225.276023"/>
     <use style="fill:#8c7b48;" x="283.840437" xlink:href="#mb0af1448d0" y="158.876102"/>
     <use style="fill:#8c7b48;" x="267.190728" xlink:href="#mb0af1448d0" y="132.524672"/>
     <use style="fill:#8c7b48;" x="248.916746" xlink:href="#mb0af1448d0" y="145.085029"/>
     <use style="fill:#8c7b48;" x="195.656814" xlink:href="#mb0af1448d0" y="200.6981"/>
     <use style="fill:#8c7b48;" x="212.980856" xlink:href="#mb0af1448d0" y="230.039777"/>
     <use style="fill:#8c7b48;" x="231.198257" xlink:href="#mb0af1448d0" y="177.150777"/>
     <use style="fill:#8c7b48;" x="177.91827" xlink:href="#mb0af1448d0" y="222.752873"/>
     <use style="fill:#8c7b48;" x="159.972149" xlink:href="#mb0af1448d0" y="201.936148"/>
     <use style="fill:#8c7b48;" x="141.868564" xlink:href="#mb0af1448d0" y="155.145562"/>
     <use style="fill:#8c7b48;" x="124.201631" xlink:href="#mb0af1448d0" y="118.043149"/>
     <use style="fill:#8c7b48;" x="106.548985" xlink:href="#mb0af1448d0" y="100.877671"/>
    </g>
   </g>
   <g id="line2d_26">
    <defs>
     <path d="M 0 1.4 
C 0.371284 1.4 0.727412 1.252487 0.989949 0.989949 
C 1.252487 0.727412 1.4 0.371284 1.4 0 
C 1.4 -0.371284 1.252487 -0.727412 0.989949 -0.989949 
C 0.727412 -1.252487 0.371284 -1.4 0 -1.4 
C -0.371284 -1.4 -0.727412 -1.252487 -0.989949 -0.989949 
C -1.252487 -0.727412 -1.4 -0.371284 -1.4 0 
C -1.4 0.371284 -1.252487 0.727412 -0.989949 0.989949 
C -0.727412 1.252487 -0.371284 1.4 0 1.4 
z
" id="ma8bdf24730"/>
    </defs>
    <g clip-path="url(#p28e97ef92d)">
     <use style="fill:#9ad9c8;" x="143.400473" xlink:href="#ma8bdf24730" y="151.560884"/>
     <use style="fill:#9ad9c8;" x="171.847959" xlink:href="#ma8bdf24730" y="194.941693"/>
     <use style="fill:#9ad9c8;" x="199.901741" xlink:href="#ma8bdf24730" y="207.54234"/>
     <use style="fill:#9ad9c8;" x="228.420794" xlink:href="#ma8bdf24730" y="191.068068"/>
     <use style="fill:#9ad9c8;" x="257.197582" xlink:href="#ma8bdf24730" y="142.417879"/>
     <use style="fill:#9ad9c8;" x="285.51194" xlink:href="#ma8bdf24730" y="173.132594"/>
     <use style="fill:#9ad9c8;" x="300.450081" xlink:href="#ma8bdf24730" y="215.473251"/>
     <use style="fill:#9ad9c8;" x="315.438337" xlink:href="#ma8bdf24730" y="233.366288"/>
     <use style="fill:#9ad9c8;" x="329.862536" xlink:href="#ma8bdf24730" y="240.729412"/>
     <use style="fill:#9ad9c8;" x="344.904488" xlink:href="#ma8bdf24730" y="239.45505"/>
     <use style="fill:#9ad9c8;" x="357.155389" xlink:href="#ma8bdf24730" y="240.729411"/>
     <use style="fill:#9ad9c8;" x="367.508552" xlink:href="#ma8bdf24730" y="240.729389"/>
     <use style="fill:#9ad9c8;" x="382.426683" xlink:href="#ma8bdf24730" y="232.875694"/>
     <use style="fill:#9ad9c8;" x="390.343875" xlink:href="#ma8bdf24730" y="240.729412"/>
     <use style="fill:#9ad9c8;" x="398.035575" xlink:href="#ma8bdf24730" y="234.112182"/>
     <use style="fill:#9ad9c8;" x="375.236079" xlink:href="#ma8bdf24730" y="229.257017"/>
    </g>
   </g>
   <g id="line2d_27">
    <defs>
     <path d="M 0 1.4 
C 0.371284 1.4 0.727412 1.252487 0.989949 0.989949 
C 1.252487 0.727412 1.4 0.371284 1.4 0 
C 1.4 -0.371284 1.252487 -0.727412 0.989949 -0.989949 
C 0.727412 -1.252487 0.371284 -1.4 0 -1.4 
C -0.371284 -1.4 -0.727412 -1.252487 -0.989949 -0.989949 
C -1.252487 -0.727412 -1.4 -0.371284 -1.4 0 
C -1.4 0.371284 -1.252487 0.727412 -0.989949 0.989949 
C -0.727412 1.252487 -0.371284 1.4 0 1.4 
z
" id="m833b5fa89c"/>
    </defs>
    <g clip-path="url(#p28e97ef92d)">
     <use style="fill:#cc6fd9;" x="292.493611" xlink:href="#m833b5fa89c" y="209.272259"/>
     <use style="fill:#cc6fd9;" x="299.953222" xlink:href="#m833b5fa89c" y="219.399524"/>
     <use style="fill:#cc6fd9;" x="307.056574" xlink:href="#m833b5fa89c" y="234.717785"/>
     <use style="fill:#cc6fd9;" x="314.08482" xlink:href="#m833b5fa89c" y="238.213706"/>
     <use style="fill:#cc6fd9;" x="322.753592" xlink:href="#m833b5fa89c" y="240.729383"/>
     <use style="fill:#cc6fd9;" x="330.234569" xlink:href="#m833b5fa89c" y="240.729412"/>
     <use style="fill:#cc6fd9;" x="337.525881" xlink:href="#m833b5fa89c" y="236.066663"/>
     <use style="fill:#cc6fd9;" x="344.858831" xlink:href="#m833b5fa89c" y="236.999158"/>
     <use style="fill:#cc6fd9;" x="352.391888" xlink:href="#m833b5fa89c" y="236.388473"/>
     <use style="fill:#cc6fd9;" x="355.964055" xlink:href="#m833b5fa89c" y="236.812922"/>
     <use style="fill:#cc6fd9;" x="360.549295" xlink:href="#m833b5fa89c" y="239.127557"/>
     <use style="fill:#cc6fd9;" x="366.61633" xlink:href="#m833b5fa89c" y="238.671195"/>
     <use style="fill:#cc6fd9;" x="373.973528" xlink:href="#m833b5fa89c" y="231.702864"/>
     <use style="fill:#cc6fd9;" x="381.565394" xlink:href="#m833b5fa89c" y="239.125166"/>
     <use style="fill:#cc6fd9;" x="389.23953" xlink:href="#m833b5fa89c" y="233.749952"/>
     <use style="fill:#cc6fd9;" x="404.526111" xlink:href="#m833b5fa89c" y="231.798052"/>
     <use style="fill:#cc6fd9;" x="358.310677" xlink:href="#m833b5fa89c" y="235.342399"/>
     <use style="fill:#cc6fd9;" x="358.820556" xlink:href="#m833b5fa89c" y="240.729412"/>
     <use style="fill:#cc6fd9;" x="359.347999" xlink:href="#m833b5fa89c" y="239.432515"/>
     <use style="fill:#cc6fd9;" x="357.899716" xlink:href="#m833b5fa89c" y="239.419211"/>
     <use style="fill:#cc6fd9;" x="357.356457" xlink:href="#m833b5fa89c" y="238.800302"/>
     <use style="fill:#cc6fd9;" x="359.60757" xlink:href="#m833b5fa89c" y="240.064792"/>
     <use style="fill:#cc6fd9;" x="357.146214" xlink:href="#m833b5fa89c" y="236.68866"/>
     <use style="fill:#cc6fd9;" x="287.242382" xlink:href="#m833b5fa89c" y="193.669092"/>
     <use style="fill:#cc6fd9;" x="276.917487" xlink:href="#m833b5fa89c" y="155.82802"/>
     <use style="fill:#cc6fd9;" x="259.601877" xlink:href="#m833b5fa89c" y="147.888874"/>
     <use style="fill:#cc6fd9;" x="240.984568" xlink:href="#m833b5fa89c" y="183.123225"/>
     <use style="fill:#cc6fd9;" x="222.873818" xlink:href="#m833b5fa89c" y="192.778243"/>
     <use style="fill:#cc6fd9;" x="205.255645" xlink:href="#m833b5fa89c" y="219.242748"/>
     <use style="fill:#cc6fd9;" x="187.805596" xlink:href="#m833b5fa89c" y="225.866956"/>
     <use style="fill:#cc6fd9;" x="169.40172" xlink:href="#m833b5fa89c" y="205.673409"/>
     <use style="fill:#cc6fd9;" x="151.447996" xlink:href="#m833b5fa89c" y="196.479594"/>
     <use style="fill:#cc6fd9;" x="145.181816" xlink:href="#m833b5fa89c" y="190.144565"/>
    </g>
   </g>
   <g id="line2d_28">
    <defs>
     <path d="M 0 1.4 
C 0.371284 1.4 0.727412 1.252487 0.989949 0.989949 
C 1.252487 0.727412 1.4 0.371284 1.4 0 
C 1.4 -0.371284 1.252487 -0.727412 0.989949 -0.989949 
C 0.727412 -1.252487 0.371284 -1.4 0 -1.4 
C -0.371284 -1.4 -0.727412 -1.252487 -0.989949 -0.989949 
C -1.252487 -0.727412 -1.4 -0.371284 -1.4 0 
C -1.4 0.371284 -1.252487 0.727412 -0.989949 0.989949 
C -0.727412 1.252487 -0.371284 1.4 0 1.4 
z
" id="m3886d778cb"/>
    </defs>
    <g clip-path="url(#p28e97ef92d)">
     <use style="fill:#d9c384;" x="71.048327" xlink:href="#m3886d778cb" y="32.651754"/>
     <use style="fill:#d9c384;" x="79.561099" xlink:href="#m3886d778cb" y="55.565761"/>
     <use style="fill:#d9c384;" x="97.819963" xlink:href="#m3886d778cb" y="88.251246"/>
     <use style="fill:#d9c384;" x="107.033173" xlink:href="#m3886d778cb" y="106.729307"/>
     <use style="fill:#d9c384;" x="115.740307" xlink:href="#m3886d778cb" y="128.88498"/>
     <use style="fill:#d9c384;" x="124.854104" xlink:href="#m3886d778cb" y="136.930898"/>
     <use style="fill:#d9c384;" x="133.437255" xlink:href="#m3886d778cb" y="147.870189"/>
     <use style="fill:#d9c384;" x="142.33816" xlink:href="#m3886d778cb" y="192.428314"/>
     <use style="fill:#d9c384;" x="145.1144" xlink:href="#m3886d778cb" y="183.326207"/>
     <use style="fill:#d9c384;" x="151.579376" xlink:href="#m3886d778cb" y="202.13461"/>
     <use style="fill:#d9c384;" x="160.405306" xlink:href="#m3886d778cb" y="196.328232"/>
     <use style="fill:#d9c384;" x="169.357198" xlink:href="#m3886d778cb" y="198.645214"/>
     <use style="fill:#d9c384;" x="178.179065" xlink:href="#m3886d778cb" y="210.725342"/>
     <use style="fill:#d9c384;" x="187.306377" xlink:href="#m3886d778cb" y="215.070926"/>
     <use style="fill:#d9c384;" x="196.416782" xlink:href="#m3886d778cb" y="213.846037"/>
     <use style="fill:#d9c384;" x="205.653717" xlink:href="#m3886d778cb" y="214.548297"/>
     <use style="fill:#d9c384;" x="214.144927" xlink:href="#m3886d778cb" y="207.996859"/>
     <use style="fill:#d9c384;" x="223.207184" xlink:href="#m3886d778cb" y="195.915098"/>
     <use style="fill:#d9c384;" x="232.356779" xlink:href="#m3886d778cb" y="176.331592"/>
     <use style="fill:#d9c384;" x="241.081781" xlink:href="#m3886d778cb" y="177.687363"/>
     <use style="fill:#d9c384;" x="249.981856" xlink:href="#m3886d778cb" y="162.534444"/>
     <use style="fill:#d9c384;" x="258.876294" xlink:href="#m3886d778cb" y="139.04458"/>
     <use style="fill:#d9c384;" x="268.023792" xlink:href="#m3886d778cb" y="142.195269"/>
     <use style="fill:#d9c384;" x="276.462573" xlink:href="#m3886d778cb" y="156.54797"/>
     <use style="fill:#d9c384;" x="285.852668" xlink:href="#m3886d778cb" y="190.062454"/>
     <use style="fill:#d9c384;" x="294.931243" xlink:href="#m3886d778cb" y="213.951715"/>
     <use style="fill:#d9c384;" x="303.022676" xlink:href="#m3886d778cb" y="233.368254"/>
     <use style="fill:#d9c384;" x="312.584631" xlink:href="#m3886d778cb" y="235.659305"/>
     <use style="fill:#d9c384;" x="321.639024" xlink:href="#m3886d778cb" y="236.437845"/>
     <use style="fill:#d9c384;" x="330.938656" xlink:href="#m3886d778cb" y="240.729401"/>
     <use style="fill:#d9c384;" x="340.147803" xlink:href="#m3886d778cb" y="240.728755"/>
     <use style="fill:#d9c384;" x="348.892554" xlink:href="#m3886d778cb" y="240.729411"/>
     <use style="fill:#d9c384;" x="356.512601" xlink:href="#m3886d778cb" y="234.22794"/>
     <use style="fill:#d9c384;" x="362.663479" xlink:href="#m3886d778cb" y="239.627943"/>
     <use style="fill:#d9c384;" x="366.468827" xlink:href="#m3886d778cb" y="235.859631"/>
     <use style="fill:#d9c384;" x="367.108339" xlink:href="#m3886d778cb" y="236.468113"/>
     <use style="fill:#d9c384;" x="370.691822" xlink:href="#m3886d778cb" y="240.729399"/>
     <use style="fill:#d9c384;" x="375.541963" xlink:href="#m3886d778cb" y="235.874484"/>
     <use style="fill:#d9c384;" x="382.742135" xlink:href="#m3886d778cb" y="235.445596"/>
     <use style="fill:#d9c384;" x="386.406753" xlink:href="#m3886d778cb" y="229.583766"/>
     <use style="fill:#d9c384;" x="393.425299" xlink:href="#m3886d778cb" y="238.24418"/>
    </g>
   </g>
   <g id="line2d_29">
    <defs>
     <path d="M 0 1.4 
C 0.371284 1.4 0.727412 1.252487 0.989949 0.989949 
C 1.252487 0.727412 1.4 0.371284 1.4 0 
C 1.4 -0.371284 1.252487 -0.727412 0.989949 -0.989949 
C 0.727412 -1.252487 0.371284 -1.4 0 -1.4 
C -0.371284 -1.4 -0.727412 -1.252487 -0.989949 -0.989949 
C -1.252487 -0.727412 -1.4 -0.371284 -1.4 0 
C -1.4 0.371284 -1.252487 0.727412 -0.989949 0.989949 
C -0.727412 1.252487 -0.371284 1.4 0 1.4 
z
" id="m8318c82263"/>
    </defs>
    <g clip-path="url(#p28e97ef92d)">
     <use style="fill:#cd853f;" x="355.419397" xlink:href="#m8318c82263" y="236.859156"/>
     <use style="fill:#cd853f;" x="363.113894" xlink:href="#m8318c82263" y="238.948763"/>
     <use style="fill:#cd853f;" x="366.585658" xlink:href="#m8318c82263" y="236.417559"/>
     <use style="fill:#cd853f;" x="373.705438" xlink:href="#m8318c82263" y="237.405177"/>
     <use style="fill:#cd853f;" x="381.09759" xlink:href="#m8318c82263" y="235.545055"/>
    </g>
   </g>
   <g id="patch_3">
    <path d="M 54.374438 240.717563 
L 54.374438 15.587016 
" style="fill:none;stroke:#d9a384;stroke-linecap:square;stroke-linejoin:miter;stroke-width:1.12;"/>
   </g>
   <g id="patch_4">
    <path d="M 421.2 240.717563 
L 421.2 15.587016 
" style="fill:none;stroke:#d9a384;stroke-linecap:square;stroke-linejoin:miter;stroke-width:1.12;"/>
   </g>
   <g id="patch_5">
    <path d="M 54.374437 240.717563 
L 421.2 240.717563 
" style="fill:none;stroke:#d9a384;stroke-linecap:square;stroke-linejoin:miter;stroke-width:1.12;"/>
   </g>
   <g id="patch_6">
    <path d="M 54.374437 15.587016 
L 421.2 15.587016 
" style="fill:none;stroke:#d9a384;stroke-linecap:square;stroke-linejoin:miter;stroke-width:1.12;"/>
   </g>
   <g id="legend_1">
    <g id="patch_7">
     <path d="M 323.595281 118.139203 
L 412.38 118.139203 
Q 414.9 118.139203 414.9 115.619203 
L 414.9 24.407016 
Q 414.9 21.887016 412.38 21.887016 
L 323.595281 21.887016 
Q 321.075281 21.887016 321.075281 24.407016 
L 321.075281 115.619203 
Q 321.075281 118.139203 323.595281 118.139203 
z
" style="fill:#542d59;opacity:0.8;stroke:#cccccc;stroke-linejoin:miter;stroke-width:0.16;"/>
    </g>
    <g id="LineCollection_6">
     <path d="M 338.715281 38.391047 
L 338.715281 25.791047 
" style="fill:none;stroke:#8c7b48;"/>
    </g>
    <g id="line2d_30"/>
    <g id="line2d_31">
     <defs>
      <path d="M 0 4.2 
C 1.113853 4.2 2.182235 3.757462 2.969848 2.969848 
C 3.757462 2.182235 4.2 1.113853 4.2 0 
C 4.2 -1.113853 3.757462 -2.182235 2.969848 -2.969848 
C 2.182235 -3.757462 1.113853 -4.2 0 -4.2 
C -1.113853 -4.2 -2.182235 -3.757462 -2.969848 -2.969848 
C -3.757462 -2.182235 -4.2 -1.113853 -4.2 0 
C -4.2 1.113853 -3.757462 2.182235 -2.969848 2.969848 
C -2.182235 3.757462 -1.113853 4.2 0 4.2 
z
" id="mccc62f1f57"/>
     </defs>
     <g>
      <use style="fill:#8c7b48;" x="338.715281" xlink:href="#mccc62f1f57" y="32.091047"/>
     </g>
    </g>
    <g id="text_15">
     <!-- HIGH11 -->
     <g style="fill:#d9a384;" transform="translate(361.395281 36.501047)scale(0.126 -0.126)">
      <defs>
       <path d="M 628 4666 
L 1259 4666 
L 1259 2753 
L 3553 2753 
L 3553 4666 
L 4184 4666 
L 4184 0 
L 3553 0 
L 3553 2222 
L 1259 2222 
L 1259 0 
L 628 0 
L 628 4666 
z
" id="DejaVuSans-48" transform="scale(0.015625)"/>
       <path d="M 628 4666 
L 1259 4666 
L 1259 0 
L 628 0 
L 628 4666 
z
" id="DejaVuSans-49" transform="scale(0.015625)"/>
      </defs>
      <use xlink:href="#DejaVuSans-48"/>
      <use x="75.195312" xlink:href="#DejaVuSans-49"/>
      <use x="104.6875" xlink:href="#DejaVuSans-47"/>
      <use x="182.177734" xlink:href="#DejaVuSans-48"/>
      <use x="257.373047" xlink:href="#DejaVuSans-31"/>
      <use x="320.996094" xlink:href="#DejaVuSans-31"/>
     </g>
    </g>
    <g id="LineCollection_7">
     <path d="M 338.715281 56.885484 
L 338.715281 44.285484 
" style="fill:none;stroke:#9ad9c8;"/>
    </g>
    <g id="line2d_32"/>
    <g id="line2d_33">
     <defs>
      <path d="M 0 4.2 
C 1.113853 4.2 2.182235 3.757462 2.969848 2.969848 
C 3.757462 2.182235 4.2 1.113853 4.2 0 
C 4.2 -1.113853 3.757462 -2.182235 2.969848 -2.969848 
C 2.182235 -3.757462 1.113853 -4.2 0 -4.2 
C -1.113853 -4.2 -2.182235 -3.757462 -2.969848 -2.969848 
C -3.757462 -2.182235 -4.2 -1.113853 -4.2 0 
C -4.2 1.113853 -3.757462 2.182235 -2.969848 2.969848 
C -2.182235 3.757462 -1.113853 4.2 0 4.2 
z
" id="m791f82102f"/>
     </defs>
     <g>
      <use style="fill:#9ad9c8;" x="338.715281" xlink:href="#m791f82102f" y="50.585484"/>
     </g>
    </g>
    <g id="text_16">
     <!-- HIGH12 -->
     <g style="fill:#d9a384;" transform="translate(361.395281 54.995484)scale(0.126 -0.126)">
      <use xlink:href="#DejaVuSans-48"/>
      <use x="75.195312" xlink:href="#DejaVuSans-49"/>
      <use x="104.6875" xlink:href="#DejaVuSans-47"/>
      <use x="182.177734" xlink:href="#DejaVuSans-48"/>
      <use x="257.373047" xlink:href="#DejaVuSans-31"/>
      <use x="320.996094" xlink:href="#DejaVuSans-32"/>
     </g>
    </g>
    <g id="LineCollection_8">
     <path d="M 338.715281 75.379922 
L 338.715281 62.779922 
" style="fill:none;stroke:#cc6fd9;"/>
    </g>
    <g id="line2d_34"/>
    <g id="line2d_35">
     <defs>
      <path d="M 0 4.2 
C 1.113853 4.2 2.182235 3.757462 2.969848 2.969848 
C 3.757462 2.182235 4.2 1.113853 4.2 0 
C 4.2 -1.113853 3.757462 -2.182235 2.969848 -2.969848 
C 2.182235 -3.757462 1.113853 -4.2 0 -4.2 
C -1.113853 -4.2 -2.182235 -3.757462 -2.969848 -2.969848 
C -3.757462 -2.182235 -4.2 -1.113853 -4.2 0 
C -4.2 1.113853 -3.757462 2.182235 -2.969848 2.969848 
C -2.182235 3.757462 -1.113853 4.2 0 4.2 
z
" id="m9e775b566d"/>
     </defs>
     <g>
      <use style="fill:#cc6fd9;" x="338.715281" xlink:href="#m9e775b566d" y="69.079922"/>
     </g>
    </g>
    <g id="text_17">
     <!-- HIGH17 -->
     <g style="fill:#d9a384;" transform="translate(361.395281 73.489922)scale(0.126 -0.126)">
      <defs>
       <path d="M 525 4666 
L 3525 4666 
L 3525 4397 
L 1831 0 
L 1172 0 
L 2766 4134 
L 525 4134 
L 525 4666 
z
" id="DejaVuSans-37" transform="scale(0.015625)"/>
      </defs>
      <use xlink:href="#DejaVuSans-48"/>
      <use x="75.195312" xlink:href="#DejaVuSans-49"/>
      <use x="104.6875" xlink:href="#DejaVuSans-47"/>
      <use x="182.177734" xlink:href="#DejaVuSans-48"/>
      <use x="257.373047" xlink:href="#DejaVuSans-31"/>
      <use x="320.996094" xlink:href="#DejaVuSans-37"/>
     </g>
    </g>
    <g id="LineCollection_9">
     <path d="M 338.715281 93.874359 
L 338.715281 81.274359 
" style="fill:none;stroke:#d9c384;"/>
    </g>
    <g id="line2d_36"/>
    <g id="line2d_37">
     <defs>
      <path d="M 0 4.2 
C 1.113853 4.2 2.182235 3.757462 2.969848 2.969848 
C 3.757462 2.182235 4.2 1.113853 4.2 0 
C 4.2 -1.113853 3.757462 -2.182235 2.969848 -2.969848 
C 2.182235 -3.757462 1.113853 -4.2 0 -4.2 
C -1.113853 -4.2 -2.182235 -3.757462 -2.969848 -2.969848 
C -3.757462 -2.182235 -4.2 -1.113853 -4.2 0 
C -4.2 1.113853 -3.757462 2.182235 -2.969848 2.969848 
C -2.182235 3.757462 -1.113853 4.2 0 4.2 
z
" id="mda47650118"/>
     </defs>
     <g>
      <use style="fill:#d9c384;" x="338.715281" xlink:href="#mda47650118" y="87.574359"/>
     </g>
    </g>
    <g id="text_18">
     <!-- HIGH19 -->
     <g style="fill:#d9a384;" transform="translate(361.395281 91.984359)scale(0.126 -0.126)">
      <defs>
       <path d="M 703 97 
L 703 672 
Q 941 559 1184 500 
Q 1428 441 1663 441 
Q 2288 441 2617 861 
Q 2947 1281 2994 2138 
Q 2813 1869 2534 1725 
Q 2256 1581 1919 1581 
Q 1219 1581 811 2004 
Q 403 2428 403 3163 
Q 403 3881 828 4315 
Q 1253 4750 1959 4750 
Q 2769 4750 3195 4129 
Q 3622 3509 3622 2328 
Q 3622 1225 3098 567 
Q 2575 -91 1691 -91 
Q 1453 -91 1209 -44 
Q 966 3 703 97 
z
M 1959 2075 
Q 2384 2075 2632 2365 
Q 2881 2656 2881 3163 
Q 2881 3666 2632 3958 
Q 2384 4250 1959 4250 
Q 1534 4250 1286 3958 
Q 1038 3666 1038 3163 
Q 1038 2656 1286 2365 
Q 1534 2075 1959 2075 
z
" id="DejaVuSans-39" transform="scale(0.015625)"/>
      </defs>
      <use xlink:href="#DejaVuSans-48"/>
      <use x="75.195312" xlink:href="#DejaVuSans-49"/>
      <use x="104.6875" xlink:href="#DejaVuSans-47"/>
      <use x="182.177734" xlink:href="#DejaVuSans-48"/>
      <use x="257.373047" xlink:href="#DejaVuSans-31"/>
      <use x="320.996094" xlink:href="#DejaVuSans-39"/>
     </g>
    </g>
    <g id="LineCollection_10">
     <path d="M 338.715281 112.368797 
L 338.715281 99.768797 
" style="fill:none;stroke:#cd853f;"/>
    </g>
    <g id="line2d_38"/>
    <g id="line2d_39">
     <defs>
      <path d="M 0 4.2 
C 1.113853 4.2 2.182235 3.757462 2.969848 2.969848 
C 3.757462 2.182235 4.2 1.113853 4.2 0 
C 4.2 -1.113853 3.757462 -2.182235 2.969848 -2.969848 
C 2.182235 -3.757462 1.113853 -4.2 0 -4.2 
C -1.113853 -4.2 -2.182235 -3.757462 -2.969848 -2.969848 
C -3.757462 -2.182235 -4.2 -1.113853 -4.2 0 
C -4.2 1.113853 -3.757462 2.182235 -2.969848 2.969848 
C -2.182235 3.757462 -1.113853 4.2 0 4.2 
z
" id="m43dd20c177"/>
     </defs>
     <g>
      <use style="fill:#cd853f;" x="338.715281" xlink:href="#m43dd20c177" y="106.068797"/>
     </g>
    </g>
    <g id="text_19">
     <!-- HIGH20 -->
     <g style="fill:#d9a384;" transform="translate(361.395281 110.478797)scale(0.126 -0.126)">
      <use xlink:href="#DejaVuSans-48"/>
      <use x="75.195312" xlink:href="#DejaVuSans-49"/>
      <use x="104.6875" xlink:href="#DejaVuSans-47"/>
      <use x="182.177734" xlink:href="#DejaVuSans-48"/>
      <use x="257.373047" xlink:href="#DejaVuSans-32"/>
      <use x="320.996094" xlink:href="#DejaVuSans-30"/>
     </g>
    </g>
   </g>
  </g>
 </g>
 <defs>
  <clipPath id="p28e97ef92d">
   <rect height="225.130547" width="366.825562" x="54.374438" y="15.587016"/>
  </clipPath>
 </defs>
</svg>
