<?xml version="1.0" encoding="utf-8"?>
<!-- Generator: Adobe Illustrator 26.0.1, SVG Export Plug-In . SVG Version: 6.00 Build 0)  -->
<svg version="1.1" id="Layer_1" xmlns="http://www.w3.org/2000/svg" xmlns:xlink="http://www.w3.org/1999/xlink" x="0px" y="0px"
	 viewBox="0 0 500 500" style="enable-background:new 0 0 500 500;" xml:space="preserve">
<style type="text/css">
	.st0{fill:#70FB06;}
	.st1{fill:#3CC27B;}
	.st2{fill:#0285F5;}
	.st3{fill:#FFFFFF;}
</style>
<g>
	<rect width="500" height="500"/>
	<g>
		<rect x="65.82" y="63.67" class="st0" width="49.87" height="49.87"/>
		<rect x="156.76" y="50.84" class="st0" width="75.53" height="75.53"/>
		
			<rect x="266.44" y="40.67" transform="matrix(-1.836970e-16 1 -1 -1.836970e-16 402.9815 -225.7667)" class="st1" width="95.87" height="95.87"/>
		<rect x="52.82" y="142.1" class="st0" width="75.87" height="75.87"/>
		
			<rect x="374.98" y="155.83" transform="matrix(-1.836970e-16 1 -1 -1.836970e-16 601.0558 -219.1468)" class="st1" width="70.25" height="70.25"/>
		<rect x="41.54" y="245.07" class="st1" width="98.42" height="98.42"/>
		
			<rect x="367.95" y="259.2" transform="matrix(-1.836970e-16 1 -1 -1.836970e-16 711.4451 -108.7575)" class="st2" width="84.3" height="84.3"/>
		<rect x="153.42" y="358.56" class="st2" width="106.34" height="106.34"/>
		
			<rect x="284.22" y="373.54" transform="matrix(-1.836970e-16 1 -1 -1.836970e-16 734.1495 89.3168)" class="st2" width="76.39" height="76.39"/>
		
			<rect x="383.06" y="384.69" transform="matrix(-1.836970e-16 1 -1 -1.836970e-16 821.8345 1.6318)" class="st2" width="54.08" height="54.08"/>
		<g>
			<polygon class="st3" points="248.34,242.07 166.61,242.07 166.61,160.34 248.34,160.34 206.6,200.37 			"/>
			<polygon class="st3" points="248.34,342.04 166.61,342.04 166.61,260.31 208.11,300.93 248.34,260.31 			"/>
			<polygon class="st3" points="352.55,342.04 266.38,342.04 266.38,255.87 			"/>
			<path class="st3" d="M347.1,206.24c0,25.35-20.55,45.9-45.9,45.9c-25.35,0-45.9-20.55-45.9-45.9s20.55-45.9,45.9-45.9l0.01,46.23
				L347.1,206.24z"/>
		</g>
	</g>
</g>
</svg>
