<?xml version="1.0" encoding="utf-8" standalone="no"?>
<!DOCTYPE svg PUBLIC "-//W3C//DTD SVG 1.1//EN"
  "http://www.w3.org/Graphics/SVG/1.1/DTD/svg11.dtd">
<svg height="288pt" version="1.1" viewBox="0 0 432 288" width="432pt" xmlns="http://www.w3.org/2000/svg" xmlns:xlink="http://www.w3.org/1999/xlink">
 <metadata>
  <rdf:RDF xmlns:cc="http://creativecommons.org/ns#" xmlns:dc="http://purl.org/dc/elements/1.1/" xmlns:rdf="http://www.w3.org/1999/02/22-rdf-syntax-ns#">
   <cc:Work>
    <dc:type rdf:resource="http://purl.org/dc/dcmitype/StillImage"/>
    <dc:date>2021-10-28T00:12:15.298144</dc:date>
    <dc:format>image/svg+xml</dc:format>
    <dc:creator>
     <cc:Agent>
      <dc:title>Matplotlib v3.4.3, https://matplotlib.org/</dc:title>
     </cc:Agent>
    </dc:creator>
   </cc:Work>
  </rdf:RDF>
 </metadata>
 <defs>
  <style type="text/css">*{stroke-linecap:butt;stroke-linejoin:round;}</style>
 </defs>
 <g id="figure_1">
  <g id="patch_1">
   <path d="M 0 288 
L 432 288 
L 432 0 
L 0 0 
z
" style="fill:none;"/>
  </g>
  <g id="axes_1">
   <g id="patch_2">
    <path d="M 55.413938 241.437563 
L 421.2 241.437563 
L 421.2 15.587016 
L 55.413938 15.587016 
z
" style="fill:#542d59;"/>
   </g>
   <g id="matplotlib.axis_1">
    <g id="xtick_1">
     <g id="line2d_1">
      <path clip-path="url(#p7b40ff5359)" d="M 94.209429 241.437563 
L 94.209429 15.587016 
" style="fill:none;stroke:#9ad9c8;stroke-dasharray:1.12,1.848;stroke-dashoffset:0;stroke-opacity:0.26;stroke-width:1.12;"/>
     </g>
     <g id="line2d_2"/>
     <g id="text_1">
      <!-- 100 -->
      <g style="fill:#d9a384;" transform="translate(82.184304 256.611594)scale(0.126 -0.126)">
       <defs>
        <path d="M 794 531 
L 1825 531 
L 1825 4091 
L 703 3866 
L 703 4441 
L 1819 4666 
L 2450 4666 
L 2450 531 
L 3481 531 
L 3481 0 
L 794 0 
L 794 531 
z
" id="DejaVuSans-31" transform="scale(0.015625)"/>
        <path d="M 2034 4250 
Q 1547 4250 1301 3770 
Q 1056 3291 1056 2328 
Q 1056 1369 1301 889 
Q 1547 409 2034 409 
Q 2525 409 2770 889 
Q 3016 1369 3016 2328 
Q 3016 3291 2770 3770 
Q 2525 4250 2034 4250 
z
M 2034 4750 
Q 2819 4750 3233 4129 
Q 3647 3509 3647 2328 
Q 3647 1150 3233 529 
Q 2819 -91 2034 -91 
Q 1250 -91 836 529 
Q 422 1150 422 2328 
Q 422 3509 836 4129 
Q 1250 4750 2034 4750 
z
" id="DejaVuSans-30" transform="scale(0.015625)"/>
       </defs>
       <use xlink:href="#DejaVuSans-31"/>
       <use x="63.623047" xlink:href="#DejaVuSans-30"/>
       <use x="127.246094" xlink:href="#DejaVuSans-30"/>
      </g>
     </g>
    </g>
    <g id="xtick_2">
     <g id="line2d_3">
      <path clip-path="url(#p7b40ff5359)" d="M 138.547134 241.437563 
L 138.547134 15.587016 
" style="fill:none;stroke:#9ad9c8;stroke-dasharray:1.12,1.848;stroke-dashoffset:0;stroke-opacity:0.26;stroke-width:1.12;"/>
     </g>
     <g id="line2d_4"/>
     <g id="text_2">
      <!-- 200 -->
      <g style="fill:#d9a384;" transform="translate(126.522009 256.611594)scale(0.126 -0.126)">
       <defs>
        <path d="M 1228 531 
L 3431 531 
L 3431 0 
L 469 0 
L 469 531 
Q 828 903 1448 1529 
Q 2069 2156 2228 2338 
Q 2531 2678 2651 2914 
Q 2772 3150 2772 3378 
Q 2772 3750 2511 3984 
Q 2250 4219 1831 4219 
Q 1534 4219 1204 4116 
Q 875 4013 500 3803 
L 500 4441 
Q 881 4594 1212 4672 
Q 1544 4750 1819 4750 
Q 2544 4750 2975 4387 
Q 3406 4025 3406 3419 
Q 3406 3131 3298 2873 
Q 3191 2616 2906 2266 
Q 2828 2175 2409 1742 
Q 1991 1309 1228 531 
z
" id="DejaVuSans-32" transform="scale(0.015625)"/>
       </defs>
       <use xlink:href="#DejaVuSans-32"/>
       <use x="63.623047" xlink:href="#DejaVuSans-30"/>
       <use x="127.246094" xlink:href="#DejaVuSans-30"/>
      </g>
     </g>
    </g>
    <g id="xtick_3">
     <g id="line2d_5">
      <path clip-path="url(#p7b40ff5359)" d="M 182.884838 241.437563 
L 182.884838 15.587016 
" style="fill:none;stroke:#9ad9c8;stroke-dasharray:1.12,1.848;stroke-dashoffset:0;stroke-opacity:0.26;stroke-width:1.12;"/>
     </g>
     <g id="line2d_6"/>
     <g id="text_3">
      <!-- 300 -->
      <g style="fill:#d9a384;" transform="translate(170.859713 256.611594)scale(0.126 -0.126)">
       <defs>
        <path d="M 2597 2516 
Q 3050 2419 3304 2112 
Q 3559 1806 3559 1356 
Q 3559 666 3084 287 
Q 2609 -91 1734 -91 
Q 1441 -91 1130 -33 
Q 819 25 488 141 
L 488 750 
Q 750 597 1062 519 
Q 1375 441 1716 441 
Q 2309 441 2620 675 
Q 2931 909 2931 1356 
Q 2931 1769 2642 2001 
Q 2353 2234 1838 2234 
L 1294 2234 
L 1294 2753 
L 1863 2753 
Q 2328 2753 2575 2939 
Q 2822 3125 2822 3475 
Q 2822 3834 2567 4026 
Q 2313 4219 1838 4219 
Q 1578 4219 1281 4162 
Q 984 4106 628 3988 
L 628 4550 
Q 988 4650 1302 4700 
Q 1616 4750 1894 4750 
Q 2613 4750 3031 4423 
Q 3450 4097 3450 3541 
Q 3450 3153 3228 2886 
Q 3006 2619 2597 2516 
z
" id="DejaVuSans-33" transform="scale(0.015625)"/>
       </defs>
       <use xlink:href="#DejaVuSans-33"/>
       <use x="63.623047" xlink:href="#DejaVuSans-30"/>
       <use x="127.246094" xlink:href="#DejaVuSans-30"/>
      </g>
     </g>
    </g>
    <g id="xtick_4">
     <g id="line2d_7">
      <path clip-path="url(#p7b40ff5359)" d="M 227.222543 241.437563 
L 227.222543 15.587016 
" style="fill:none;stroke:#9ad9c8;stroke-dasharray:1.12,1.848;stroke-dashoffset:0;stroke-opacity:0.26;stroke-width:1.12;"/>
     </g>
     <g id="line2d_8"/>
     <g id="text_4">
      <!-- 400 -->
      <g style="fill:#d9a384;" transform="translate(215.197418 256.611594)scale(0.126 -0.126)">
       <defs>
        <path d="M 2419 4116 
L 825 1625 
L 2419 1625 
L 2419 4116 
z
M 2253 4666 
L 3047 4666 
L 3047 1625 
L 3713 1625 
L 3713 1100 
L 3047 1100 
L 3047 0 
L 2419 0 
L 2419 1100 
L 313 1100 
L 313 1709 
L 2253 4666 
z
" id="DejaVuSans-34" transform="scale(0.015625)"/>
       </defs>
       <use xlink:href="#DejaVuSans-34"/>
       <use x="63.623047" xlink:href="#DejaVuSans-30"/>
       <use x="127.246094" xlink:href="#DejaVuSans-30"/>
      </g>
     </g>
    </g>
    <g id="xtick_5">
     <g id="line2d_9">
      <path clip-path="url(#p7b40ff5359)" d="M 271.560247 241.437563 
L 271.560247 15.587016 
" style="fill:none;stroke:#9ad9c8;stroke-dasharray:1.12,1.848;stroke-dashoffset:0;stroke-opacity:0.26;stroke-width:1.12;"/>
     </g>
     <g id="line2d_10"/>
     <g id="text_5">
      <!-- 500 -->
      <g style="fill:#d9a384;" transform="translate(259.535122 256.611594)scale(0.126 -0.126)">
       <defs>
        <path d="M 691 4666 
L 3169 4666 
L 3169 4134 
L 1269 4134 
L 1269 2991 
Q 1406 3038 1543 3061 
Q 1681 3084 1819 3084 
Q 2600 3084 3056 2656 
Q 3513 2228 3513 1497 
Q 3513 744 3044 326 
Q 2575 -91 1722 -91 
Q 1428 -91 1123 -41 
Q 819 9 494 109 
L 494 744 
Q 775 591 1075 516 
Q 1375 441 1709 441 
Q 2250 441 2565 725 
Q 2881 1009 2881 1497 
Q 2881 1984 2565 2268 
Q 2250 2553 1709 2553 
Q 1456 2553 1204 2497 
Q 953 2441 691 2322 
L 691 4666 
z
" id="DejaVuSans-35" transform="scale(0.015625)"/>
       </defs>
       <use xlink:href="#DejaVuSans-35"/>
       <use x="63.623047" xlink:href="#DejaVuSans-30"/>
       <use x="127.246094" xlink:href="#DejaVuSans-30"/>
      </g>
     </g>
    </g>
    <g id="xtick_6">
     <g id="line2d_11">
      <path clip-path="url(#p7b40ff5359)" d="M 315.897952 241.437563 
L 315.897952 15.587016 
" style="fill:none;stroke:#9ad9c8;stroke-dasharray:1.12,1.848;stroke-dashoffset:0;stroke-opacity:0.26;stroke-width:1.12;"/>
     </g>
     <g id="line2d_12"/>
     <g id="text_6">
      <!-- 600 -->
      <g style="fill:#d9a384;" transform="translate(303.872827 256.611594)scale(0.126 -0.126)">
       <defs>
        <path d="M 2113 2584 
Q 1688 2584 1439 2293 
Q 1191 2003 1191 1497 
Q 1191 994 1439 701 
Q 1688 409 2113 409 
Q 2538 409 2786 701 
Q 3034 994 3034 1497 
Q 3034 2003 2786 2293 
Q 2538 2584 2113 2584 
z
M 3366 4563 
L 3366 3988 
Q 3128 4100 2886 4159 
Q 2644 4219 2406 4219 
Q 1781 4219 1451 3797 
Q 1122 3375 1075 2522 
Q 1259 2794 1537 2939 
Q 1816 3084 2150 3084 
Q 2853 3084 3261 2657 
Q 3669 2231 3669 1497 
Q 3669 778 3244 343 
Q 2819 -91 2113 -91 
Q 1303 -91 875 529 
Q 447 1150 447 2328 
Q 447 3434 972 4092 
Q 1497 4750 2381 4750 
Q 2619 4750 2861 4703 
Q 3103 4656 3366 4563 
z
" id="DejaVuSans-36" transform="scale(0.015625)"/>
       </defs>
       <use xlink:href="#DejaVuSans-36"/>
       <use x="63.623047" xlink:href="#DejaVuSans-30"/>
       <use x="127.246094" xlink:href="#DejaVuSans-30"/>
      </g>
     </g>
    </g>
    <g id="xtick_7">
     <g id="line2d_13">
      <path clip-path="url(#p7b40ff5359)" d="M 360.235656 241.437563 
L 360.235656 15.587016 
" style="fill:none;stroke:#9ad9c8;stroke-dasharray:1.12,1.848;stroke-dashoffset:0;stroke-opacity:0.26;stroke-width:1.12;"/>
     </g>
     <g id="line2d_14"/>
     <g id="text_7">
      <!-- 700 -->
      <g style="fill:#d9a384;" transform="translate(348.210531 256.611594)scale(0.126 -0.126)">
       <defs>
        <path d="M 525 4666 
L 3525 4666 
L 3525 4397 
L 1831 0 
L 1172 0 
L 2766 4134 
L 525 4134 
L 525 4666 
z
" id="DejaVuSans-37" transform="scale(0.015625)"/>
       </defs>
       <use xlink:href="#DejaVuSans-37"/>
       <use x="63.623047" xlink:href="#DejaVuSans-30"/>
       <use x="127.246094" xlink:href="#DejaVuSans-30"/>
      </g>
     </g>
    </g>
    <g id="xtick_8">
     <g id="line2d_15">
      <path clip-path="url(#p7b40ff5359)" d="M 404.573361 241.437563 
L 404.573361 15.587016 
" style="fill:none;stroke:#9ad9c8;stroke-dasharray:1.12,1.848;stroke-dashoffset:0;stroke-opacity:0.26;stroke-width:1.12;"/>
     </g>
     <g id="line2d_16"/>
     <g id="text_8">
      <!-- 800 -->
      <g style="fill:#d9a384;" transform="translate(392.548236 256.611594)scale(0.126 -0.126)">
       <defs>
        <path d="M 2034 2216 
Q 1584 2216 1326 1975 
Q 1069 1734 1069 1313 
Q 1069 891 1326 650 
Q 1584 409 2034 409 
Q 2484 409 2743 651 
Q 3003 894 3003 1313 
Q 3003 1734 2745 1975 
Q 2488 2216 2034 2216 
z
M 1403 2484 
Q 997 2584 770 2862 
Q 544 3141 544 3541 
Q 544 4100 942 4425 
Q 1341 4750 2034 4750 
Q 2731 4750 3128 4425 
Q 3525 4100 3525 3541 
Q 3525 3141 3298 2862 
Q 3072 2584 2669 2484 
Q 3125 2378 3379 2068 
Q 3634 1759 3634 1313 
Q 3634 634 3220 271 
Q 2806 -91 2034 -91 
Q 1263 -91 848 271 
Q 434 634 434 1313 
Q 434 1759 690 2068 
Q 947 2378 1403 2484 
z
M 1172 3481 
Q 1172 3119 1398 2916 
Q 1625 2713 2034 2713 
Q 2441 2713 2670 2916 
Q 2900 3119 2900 3481 
Q 2900 3844 2670 4047 
Q 2441 4250 2034 4250 
Q 1625 4250 1398 4047 
Q 1172 3844 1172 3481 
z
" id="DejaVuSans-38" transform="scale(0.015625)"/>
       </defs>
       <use xlink:href="#DejaVuSans-38"/>
       <use x="63.623047" xlink:href="#DejaVuSans-30"/>
       <use x="127.246094" xlink:href="#DejaVuSans-30"/>
      </g>
     </g>
    </g>
    <g id="text_9">
     <!-- $\pi^\pm$ momenta [MeV/c] -->
     <g style="fill:#d9a384;" transform="translate(160.402969 274.20525)scale(0.144 -0.144)">
      <defs>
       <path d="M 584 3500 
L 3938 3500 
L 3825 2925 
L 3384 2925 
L 2966 775 
Q 2922 550 2981 450 
Q 3038 353 3209 353 
Q 3256 353 3325 363 
Q 3397 369 3419 372 
L 3338 -44 
Q 3222 -84 3103 -103 
Q 2981 -122 2866 -122 
Q 2491 -122 2388 81 
Q 2284 288 2391 838 
L 2797 2925 
L 1506 2925 
L 938 0 
L 350 0 
L 919 2925 
L 472 2925 
L 584 3500 
z
" id="DejaVuSans-Oblique-3c0" transform="scale(0.015625)"/>
       <path d="M 2944 4013 
L 2944 2803 
L 4684 2803 
L 4684 2272 
L 2944 2272 
L 2944 1063 
L 2419 1063 
L 2419 2272 
L 678 2272 
L 678 2803 
L 2419 2803 
L 2419 4013 
L 2944 4013 
z
M 678 531 
L 4684 531 
L 4684 0 
L 678 0 
L 678 531 
z
" id="DejaVuSans-b1" transform="scale(0.015625)"/>
       <path id="DejaVuSans-20" transform="scale(0.015625)"/>
       <path d="M 3328 2828 
Q 3544 3216 3844 3400 
Q 4144 3584 4550 3584 
Q 5097 3584 5394 3201 
Q 5691 2819 5691 2113 
L 5691 0 
L 5113 0 
L 5113 2094 
Q 5113 2597 4934 2840 
Q 4756 3084 4391 3084 
Q 3944 3084 3684 2787 
Q 3425 2491 3425 1978 
L 3425 0 
L 2847 0 
L 2847 2094 
Q 2847 2600 2669 2842 
Q 2491 3084 2119 3084 
Q 1678 3084 1418 2786 
Q 1159 2488 1159 1978 
L 1159 0 
L 581 0 
L 581 3500 
L 1159 3500 
L 1159 2956 
Q 1356 3278 1631 3431 
Q 1906 3584 2284 3584 
Q 2666 3584 2933 3390 
Q 3200 3197 3328 2828 
z
" id="DejaVuSans-6d" transform="scale(0.015625)"/>
       <path d="M 1959 3097 
Q 1497 3097 1228 2736 
Q 959 2375 959 1747 
Q 959 1119 1226 758 
Q 1494 397 1959 397 
Q 2419 397 2687 759 
Q 2956 1122 2956 1747 
Q 2956 2369 2687 2733 
Q 2419 3097 1959 3097 
z
M 1959 3584 
Q 2709 3584 3137 3096 
Q 3566 2609 3566 1747 
Q 3566 888 3137 398 
Q 2709 -91 1959 -91 
Q 1206 -91 779 398 
Q 353 888 353 1747 
Q 353 2609 779 3096 
Q 1206 3584 1959 3584 
z
" id="DejaVuSans-6f" transform="scale(0.015625)"/>
       <path d="M 3597 1894 
L 3597 1613 
L 953 1613 
Q 991 1019 1311 708 
Q 1631 397 2203 397 
Q 2534 397 2845 478 
Q 3156 559 3463 722 
L 3463 178 
Q 3153 47 2828 -22 
Q 2503 -91 2169 -91 
Q 1331 -91 842 396 
Q 353 884 353 1716 
Q 353 2575 817 3079 
Q 1281 3584 2069 3584 
Q 2775 3584 3186 3129 
Q 3597 2675 3597 1894 
z
M 3022 2063 
Q 3016 2534 2758 2815 
Q 2500 3097 2075 3097 
Q 1594 3097 1305 2825 
Q 1016 2553 972 2059 
L 3022 2063 
z
" id="DejaVuSans-65" transform="scale(0.015625)"/>
       <path d="M 3513 2113 
L 3513 0 
L 2938 0 
L 2938 2094 
Q 2938 2591 2744 2837 
Q 2550 3084 2163 3084 
Q 1697 3084 1428 2787 
Q 1159 2491 1159 1978 
L 1159 0 
L 581 0 
L 581 3500 
L 1159 3500 
L 1159 2956 
Q 1366 3272 1645 3428 
Q 1925 3584 2291 3584 
Q 2894 3584 3203 3211 
Q 3513 2838 3513 2113 
z
" id="DejaVuSans-6e" transform="scale(0.015625)"/>
       <path d="M 1172 4494 
L 1172 3500 
L 2356 3500 
L 2356 3053 
L 1172 3053 
L 1172 1153 
Q 1172 725 1289 603 
Q 1406 481 1766 481 
L 2356 481 
L 2356 0 
L 1766 0 
Q 1100 0 847 248 
Q 594 497 594 1153 
L 594 3053 
L 172 3053 
L 172 3500 
L 594 3500 
L 594 4494 
L 1172 4494 
z
" id="DejaVuSans-74" transform="scale(0.015625)"/>
       <path d="M 2194 1759 
Q 1497 1759 1228 1600 
Q 959 1441 959 1056 
Q 959 750 1161 570 
Q 1363 391 1709 391 
Q 2188 391 2477 730 
Q 2766 1069 2766 1631 
L 2766 1759 
L 2194 1759 
z
M 3341 1997 
L 3341 0 
L 2766 0 
L 2766 531 
Q 2569 213 2275 61 
Q 1981 -91 1556 -91 
Q 1019 -91 701 211 
Q 384 513 384 1019 
Q 384 1609 779 1909 
Q 1175 2209 1959 2209 
L 2766 2209 
L 2766 2266 
Q 2766 2663 2505 2880 
Q 2244 3097 1772 3097 
Q 1472 3097 1187 3025 
Q 903 2953 641 2809 
L 641 3341 
Q 956 3463 1253 3523 
Q 1550 3584 1831 3584 
Q 2591 3584 2966 3190 
Q 3341 2797 3341 1997 
z
" id="DejaVuSans-61" transform="scale(0.015625)"/>
       <path d="M 550 4863 
L 1875 4863 
L 1875 4416 
L 1125 4416 
L 1125 -397 
L 1875 -397 
L 1875 -844 
L 550 -844 
L 550 4863 
z
" id="DejaVuSans-5b" transform="scale(0.015625)"/>
       <path d="M 628 4666 
L 1569 4666 
L 2759 1491 
L 3956 4666 
L 4897 4666 
L 4897 0 
L 4281 0 
L 4281 4097 
L 3078 897 
L 2444 897 
L 1241 4097 
L 1241 0 
L 628 0 
L 628 4666 
z
" id="DejaVuSans-4d" transform="scale(0.015625)"/>
       <path d="M 1831 0 
L 50 4666 
L 709 4666 
L 2188 738 
L 3669 4666 
L 4325 4666 
L 2547 0 
L 1831 0 
z
" id="DejaVuSans-56" transform="scale(0.015625)"/>
       <path d="M 1625 4666 
L 2156 4666 
L 531 -594 
L 0 -594 
L 1625 4666 
z
" id="DejaVuSans-2f" transform="scale(0.015625)"/>
       <path d="M 3122 3366 
L 3122 2828 
Q 2878 2963 2633 3030 
Q 2388 3097 2138 3097 
Q 1578 3097 1268 2742 
Q 959 2388 959 1747 
Q 959 1106 1268 751 
Q 1578 397 2138 397 
Q 2388 397 2633 464 
Q 2878 531 3122 666 
L 3122 134 
Q 2881 22 2623 -34 
Q 2366 -91 2075 -91 
Q 1284 -91 818 406 
Q 353 903 353 1747 
Q 353 2603 823 3093 
Q 1294 3584 2113 3584 
Q 2378 3584 2631 3529 
Q 2884 3475 3122 3366 
z
" id="DejaVuSans-63" transform="scale(0.015625)"/>
       <path d="M 1947 4863 
L 1947 -844 
L 622 -844 
L 622 -397 
L 1369 -397 
L 1369 4416 
L 622 4416 
L 622 4863 
L 1947 4863 
z
" id="DejaVuSans-5d" transform="scale(0.015625)"/>
      </defs>
      <use transform="translate(0 0.826562)" xlink:href="#DejaVuSans-Oblique-3c0"/>
      <use transform="translate(78.308919 39.107812)scale(0.7)" xlink:href="#DejaVuSans-b1"/>
      <use transform="translate(153.333333 0.826562)" xlink:href="#DejaVuSans-20"/>
      <use transform="translate(185.120443 0.826562)" xlink:href="#DejaVuSans-6d"/>
      <use transform="translate(282.532552 0.826562)" xlink:href="#DejaVuSans-6f"/>
      <use transform="translate(343.714193 0.826562)" xlink:href="#DejaVuSans-6d"/>
      <use transform="translate(441.126302 0.826562)" xlink:href="#DejaVuSans-65"/>
      <use transform="translate(502.64974 0.826562)" xlink:href="#DejaVuSans-6e"/>
      <use transform="translate(566.028646 0.826562)" xlink:href="#DejaVuSans-74"/>
      <use transform="translate(605.23763 0.826562)" xlink:href="#DejaVuSans-61"/>
      <use transform="translate(666.516927 0.826562)" xlink:href="#DejaVuSans-20"/>
      <use transform="translate(698.304036 0.826562)" xlink:href="#DejaVuSans-5b"/>
      <use transform="translate(737.317708 0.826562)" xlink:href="#DejaVuSans-4d"/>
      <use transform="translate(823.597005 0.826562)" xlink:href="#DejaVuSans-65"/>
      <use transform="translate(885.120443 0.826562)" xlink:href="#DejaVuSans-56"/>
      <use transform="translate(953.528646 0.826562)" xlink:href="#DejaVuSans-2f"/>
      <use transform="translate(987.220052 0.826562)" xlink:href="#DejaVuSans-63"/>
      <use transform="translate(1042.200521 0.826562)" xlink:href="#DejaVuSans-5d"/>
     </g>
    </g>
   </g>
   <g id="matplotlib.axis_2">
    <g id="ytick_1">
     <g id="line2d_17">
      <path clip-path="url(#p7b40ff5359)" d="M 55.413938 241.437563 
L 421.2 241.437563 
" style="fill:none;stroke:#9ad9c8;stroke-dasharray:1.12,1.848;stroke-dashoffset:0;stroke-opacity:0.26;stroke-width:1.12;"/>
     </g>
     <g id="line2d_18"/>
     <g id="text_10">
      <!-- 0.0 -->
      <g style="fill:#d9a384;" transform="translate(29.776 246.224578)scale(0.126 -0.126)">
       <defs>
        <path d="M 684 794 
L 1344 794 
L 1344 0 
L 684 0 
L 684 794 
z
" id="DejaVuSans-2e" transform="scale(0.015625)"/>
       </defs>
       <use xlink:href="#DejaVuSans-30"/>
       <use x="63.623047" xlink:href="#DejaVuSans-2e"/>
       <use x="95.410156" xlink:href="#DejaVuSans-30"/>
      </g>
     </g>
    </g>
    <g id="ytick_2">
     <g id="line2d_19">
      <path clip-path="url(#p7b40ff5359)" d="M 55.413938 196.267453 
L 421.2 196.267453 
" style="fill:none;stroke:#9ad9c8;stroke-dasharray:1.12,1.848;stroke-dashoffset:0;stroke-opacity:0.26;stroke-width:1.12;"/>
     </g>
     <g id="line2d_20"/>
     <g id="text_11">
      <!-- 0.5 -->
      <g style="fill:#d9a384;" transform="translate(29.776 201.054469)scale(0.126 -0.126)">
       <use xlink:href="#DejaVuSans-30"/>
       <use x="63.623047" xlink:href="#DejaVuSans-2e"/>
       <use x="95.410156" xlink:href="#DejaVuSans-35"/>
      </g>
     </g>
    </g>
    <g id="ytick_3">
     <g id="line2d_21">
      <path clip-path="url(#p7b40ff5359)" d="M 55.413938 151.097344 
L 421.2 151.097344 
" style="fill:none;stroke:#9ad9c8;stroke-dasharray:1.12,1.848;stroke-dashoffset:0;stroke-opacity:0.26;stroke-width:1.12;"/>
     </g>
     <g id="line2d_22"/>
     <g id="text_12">
      <!-- 1.0 -->
      <g style="fill:#d9a384;" transform="translate(29.776 155.884359)scale(0.126 -0.126)">
       <use xlink:href="#DejaVuSans-31"/>
       <use x="63.623047" xlink:href="#DejaVuSans-2e"/>
       <use x="95.410156" xlink:href="#DejaVuSans-30"/>
      </g>
     </g>
    </g>
    <g id="ytick_4">
     <g id="line2d_23">
      <path clip-path="url(#p7b40ff5359)" d="M 55.413938 105.927234 
L 421.2 105.927234 
" style="fill:none;stroke:#9ad9c8;stroke-dasharray:1.12,1.848;stroke-dashoffset:0;stroke-opacity:0.26;stroke-width:1.12;"/>
     </g>
     <g id="line2d_24"/>
     <g id="text_13">
      <!-- 1.5 -->
      <g style="fill:#d9a384;" transform="translate(29.776 110.71425)scale(0.126 -0.126)">
       <use xlink:href="#DejaVuSans-31"/>
       <use x="63.623047" xlink:href="#DejaVuSans-2e"/>
       <use x="95.410156" xlink:href="#DejaVuSans-35"/>
      </g>
     </g>
    </g>
    <g id="ytick_5">
     <g id="line2d_25">
      <path clip-path="url(#p7b40ff5359)" d="M 55.413938 60.757125 
L 421.2 60.757125 
" style="fill:none;stroke:#9ad9c8;stroke-dasharray:1.12,1.848;stroke-dashoffset:0;stroke-opacity:0.26;stroke-width:1.12;"/>
     </g>
     <g id="line2d_26"/>
     <g id="text_14">
      <!-- 2.0 -->
      <g style="fill:#d9a384;" transform="translate(29.776 65.544141)scale(0.126 -0.126)">
       <use xlink:href="#DejaVuSans-32"/>
       <use x="63.623047" xlink:href="#DejaVuSans-2e"/>
       <use x="95.410156" xlink:href="#DejaVuSans-30"/>
      </g>
     </g>
    </g>
    <g id="ytick_6">
     <g id="line2d_27">
      <path clip-path="url(#p7b40ff5359)" d="M 55.413938 15.587016 
L 421.2 15.587016 
" style="fill:none;stroke:#9ad9c8;stroke-dasharray:1.12,1.848;stroke-dashoffset:0;stroke-opacity:0.26;stroke-width:1.12;"/>
     </g>
     <g id="line2d_28"/>
     <g id="text_15">
      <!-- 2.5 -->
      <g style="fill:#d9a384;" transform="translate(29.776 20.374031)scale(0.126 -0.126)">
       <use xlink:href="#DejaVuSans-32"/>
       <use x="63.623047" xlink:href="#DejaVuSans-2e"/>
       <use x="95.410156" xlink:href="#DejaVuSans-35"/>
      </g>
     </g>
    </g>
    <g id="text_16">
     <!-- $N_{exp}$/$N_{MC}$ -->
     <g style="fill:#d9a384;" transform="translate(21.312 159.256289)rotate(-90)scale(0.144 -0.144)">
      <defs>
       <path d="M 1081 4666 
L 1931 4666 
L 3219 666 
L 4000 4666 
L 4616 4666 
L 3706 0 
L 2853 0 
L 1569 4025 
L 788 0 
L 172 0 
L 1081 4666 
z
" id="DejaVuSans-Oblique-4e" transform="scale(0.015625)"/>
       <path d="M 3078 2063 
Q 3088 2113 3092 2166 
Q 3097 2219 3097 2272 
Q 3097 2653 2873 2875 
Q 2650 3097 2266 3097 
Q 1838 3097 1509 2826 
Q 1181 2556 1013 2059 
L 3078 2063 
z
M 3578 1613 
L 903 1613 
Q 884 1494 878 1425 
Q 872 1356 872 1306 
Q 872 872 1139 634 
Q 1406 397 1894 397 
Q 2269 397 2603 481 
Q 2938 566 3225 728 
L 3116 159 
Q 2806 34 2476 -28 
Q 2147 -91 1806 -91 
Q 1078 -91 686 257 
Q 294 606 294 1247 
Q 294 1794 489 2264 
Q 684 2734 1063 3103 
Q 1306 3334 1642 3459 
Q 1978 3584 2356 3584 
Q 2950 3584 3301 3228 
Q 3653 2872 3653 2272 
Q 3653 2128 3634 1964 
Q 3616 1800 3578 1613 
z
" id="DejaVuSans-Oblique-65" transform="scale(0.015625)"/>
       <path d="M 3841 3500 
L 2234 1784 
L 3219 0 
L 2559 0 
L 1819 1388 
L 531 0 
L -166 0 
L 1556 1844 
L 641 3500 
L 1300 3500 
L 1972 2234 
L 3144 3500 
L 3841 3500 
z
" id="DejaVuSans-Oblique-78" transform="scale(0.015625)"/>
       <path d="M 3175 2156 
Q 3175 2616 2975 2859 
Q 2775 3103 2400 3103 
Q 2144 3103 1911 2972 
Q 1678 2841 1497 2591 
Q 1319 2344 1212 1994 
Q 1106 1644 1106 1300 
Q 1106 863 1306 627 
Q 1506 391 1875 391 
Q 2147 391 2380 519 
Q 2613 647 2778 891 
Q 2956 1147 3065 1494 
Q 3175 1841 3175 2156 
z
M 1394 2969 
Q 1625 3272 1939 3428 
Q 2253 3584 2638 3584 
Q 3175 3584 3472 3232 
Q 3769 2881 3769 2247 
Q 3769 1728 3584 1258 
Q 3400 788 3053 416 
Q 2822 169 2531 39 
Q 2241 -91 1919 -91 
Q 1547 -91 1294 64 
Q 1041 219 916 525 
L 556 -1331 
L -19 -1331 
L 922 3500 
L 1497 3500 
L 1394 2969 
z
" id="DejaVuSans-Oblique-70" transform="scale(0.015625)"/>
       <path d="M 1081 4666 
L 2028 4666 
L 2572 1522 
L 4378 4666 
L 5350 4666 
L 4441 0 
L 3828 0 
L 4622 4091 
L 2791 897 
L 2175 897 
L 1581 4103 
L 788 0 
L 172 0 
L 1081 4666 
z
" id="DejaVuSans-Oblique-4d" transform="scale(0.015625)"/>
       <path d="M 4447 4306 
L 4319 3641 
Q 4019 3944 3683 4091 
Q 3347 4238 2956 4238 
Q 2422 4238 2017 3981 
Q 1613 3725 1319 3200 
Q 1131 2863 1032 2486 
Q 934 2109 934 1728 
Q 934 1091 1264 756 
Q 1594 422 2222 422 
Q 2656 422 3056 561 
Q 3456 700 3834 978 
L 3688 231 
Q 3316 72 2936 -9 
Q 2556 -91 2175 -91 
Q 1278 -91 773 396 
Q 269 884 269 1753 
Q 269 2309 461 2846 
Q 653 3384 1013 3828 
Q 1394 4300 1883 4525 
Q 2372 4750 3022 4750 
Q 3422 4750 3780 4639 
Q 4138 4528 4447 4306 
z
" id="DejaVuSans-Oblique-43" transform="scale(0.015625)"/>
      </defs>
      <use transform="translate(0 0.09375)" xlink:href="#DejaVuSans-Oblique-4e"/>
      <use transform="translate(74.804688 -16.3125)scale(0.7)" xlink:href="#DejaVuSans-Oblique-65"/>
      <use transform="translate(117.871094 -16.3125)scale(0.7)" xlink:href="#DejaVuSans-Oblique-78"/>
      <use transform="translate(159.296875 -16.3125)scale(0.7)" xlink:href="#DejaVuSans-Oblique-70"/>
      <use transform="translate(206.464844 0.09375)" xlink:href="#DejaVuSans-2f"/>
      <use transform="translate(240.15625 0.09375)" xlink:href="#DejaVuSans-Oblique-4e"/>
      <use transform="translate(314.960938 -16.3125)scale(0.7)" xlink:href="#DejaVuSans-Oblique-4d"/>
      <use transform="translate(375.356445 -16.3125)scale(0.7)" xlink:href="#DejaVuSans-Oblique-43"/>
     </g>
    </g>
   </g>
   <g id="LineCollection_1">
    <path clip-path="url(#p7b40ff5359)" d="M 77.58279 191.004573 
L 77.58279 156.414184 
" style="fill:none;stroke:#8c7b48;stroke-width:2;"/>
    <path clip-path="url(#p7b40ff5359)" d="M 88.667216 188.765661 
L 88.667216 172.706099 
" style="fill:none;stroke:#8c7b48;stroke-width:2;"/>
    <path clip-path="url(#p7b40ff5359)" d="M 99.751642 168.407626 
L 99.751642 156.233812 
" style="fill:none;stroke:#8c7b48;stroke-width:2;"/>
    <path clip-path="url(#p7b40ff5359)" d="M 110.836068 155.961416 
L 110.836068 146.325303 
" style="fill:none;stroke:#8c7b48;stroke-width:2;"/>
    <path clip-path="url(#p7b40ff5359)" d="M 121.920494 158.878538 
L 121.920494 149.206933 
" style="fill:none;stroke:#8c7b48;stroke-width:2;"/>
    <path clip-path="url(#p7b40ff5359)" d="M 133.00492 155.996323 
L 133.00492 145.955013 
" style="fill:none;stroke:#8c7b48;stroke-width:2;"/>
    <path clip-path="url(#p7b40ff5359)" d="M 144.089347 156.631898 
L 144.089347 146.433882 
" style="fill:none;stroke:#8c7b48;stroke-width:2;"/>
    <path clip-path="url(#p7b40ff5359)" d="M 155.173773 156.101034 
L 155.173773 145.458343 
" style="fill:none;stroke:#8c7b48;stroke-width:2;"/>
    <path clip-path="url(#p7b40ff5359)" d="M 166.258199 158.347864 
L 166.258199 148.25422 
" style="fill:none;stroke:#8c7b48;stroke-width:2;"/>
    <path clip-path="url(#p7b40ff5359)" d="M 177.342625 157.448366 
L 177.342625 147.448633 
" style="fill:none;stroke:#8c7b48;stroke-width:2;"/>
    <path clip-path="url(#p7b40ff5359)" d="M 188.427051 158.099787 
L 188.427051 148.704741 
" style="fill:none;stroke:#8c7b48;stroke-width:2;"/>
    <path clip-path="url(#p7b40ff5359)" d="M 199.511477 158.59574 
L 199.511477 146.776668 
" style="fill:none;stroke:#8c7b48;stroke-width:2;"/>
    <path clip-path="url(#p7b40ff5359)" d="M 210.595903 173.185316 
L 210.595903 160.983546 
" style="fill:none;stroke:#8c7b48;stroke-width:2;"/>
    <path clip-path="url(#p7b40ff5359)" d="M 221.68033 164.870596 
L 221.68033 151.133375 
" style="fill:none;stroke:#8c7b48;stroke-width:2;"/>
    <path clip-path="url(#p7b40ff5359)" d="M 232.764756 154.305145 
L 232.764756 137.490561 
" style="fill:none;stroke:#8c7b48;stroke-width:2;"/>
    <path clip-path="url(#p7b40ff5359)" d="M 243.849182 168.63018 
L 243.849182 151.923728 
" style="fill:none;stroke:#8c7b48;stroke-width:2;"/>
    <path clip-path="url(#p7b40ff5359)" d="M 254.933608 180.451578 
L 254.933608 163.28522 
" style="fill:none;stroke:#8c7b48;stroke-width:2;"/>
    <path clip-path="url(#p7b40ff5359)" d="M 266.018034 190.527756 
L 266.018034 172.43673 
" style="fill:none;stroke:#8c7b48;stroke-width:2;"/>
    <path clip-path="url(#p7b40ff5359)" d="M 277.10246 164.909093 
L 277.10246 140.632829 
" style="fill:none;stroke:#8c7b48;stroke-width:2;"/>
    <path clip-path="url(#p7b40ff5359)" d="M 288.186886 171.339297 
L 288.186886 146.737822 
" style="fill:none;stroke:#8c7b48;stroke-width:2;"/>
    <path clip-path="url(#p7b40ff5359)" d="M 299.271312 167.858507 
L 299.271312 139.905983 
" style="fill:none;stroke:#8c7b48;stroke-width:2;"/>
    <path clip-path="url(#p7b40ff5359)" d="M 310.355739 183.046613 
L 310.355739 156.421805 
" style="fill:none;stroke:#8c7b48;stroke-width:2;"/>
    <path clip-path="url(#p7b40ff5359)" d="M 321.440165 181.717555 
L 321.440165 151.405553 
" style="fill:none;stroke:#8c7b48;stroke-width:2;"/>
    <path clip-path="url(#p7b40ff5359)" d="M 332.524591 126.756063 
L 332.524591 73.413015 
" style="fill:none;stroke:#8c7b48;stroke-width:2;"/>
    <path clip-path="url(#p7b40ff5359)" d="M 343.609017 216.324568 
L 343.609017 175.256664 
" style="fill:none;stroke:#8c7b48;stroke-width:2;"/>
    <path clip-path="url(#p7b40ff5359)" d="M 354.693443 199.657296 
L 354.693443 98.757072 
" style="fill:none;stroke:#8c7b48;stroke-width:2;"/>
    <path clip-path="url(#p7b40ff5359)" d="M 365.777869 195.765386 
L 365.777869 107.32062 
" style="fill:none;stroke:#8c7b48;stroke-width:2;"/>
    <path clip-path="url(#p7b40ff5359)" d="M 376.862295 194.055968 
L 376.862295 79.628419 
" style="fill:none;stroke:#8c7b48;stroke-width:2;"/>
    <path clip-path="url(#p7b40ff5359)" d="M 387.946722 204.089078 
L 387.946722 80.834986 
" style="fill:none;stroke:#8c7b48;stroke-width:2;"/>
    <path clip-path="url(#p7b40ff5359)" d="M 399.031148 199.964554 
L 399.031148 -1 
" style="fill:none;stroke:#8c7b48;stroke-width:2;"/>
   </g>
   <g id="line2d_29">
    <path clip-path="url(#p7b40ff5359)" d="M 72.040577 156.056472 
L 404.573361 156.056472 
" style="fill:none;stroke:#000000;stroke-linecap:square;stroke-width:2;"/>
   </g>
   <g id="line2d_30">
    <defs>
     <path d="M 0 2.5 
C 0.663008 2.5 1.29895 2.236584 1.767767 1.767767 
C 2.236584 1.29895 2.5 0.663008 2.5 0 
C 2.5 -0.663008 2.236584 -1.29895 1.767767 -1.767767 
C 1.29895 -2.236584 0.663008 -2.5 0 -2.5 
C -0.663008 -2.5 -1.29895 -2.236584 -1.767767 -1.767767 
C -2.236584 -1.29895 -2.5 -0.663008 -2.5 0 
C -2.5 0.663008 -2.236584 1.29895 -1.767767 1.767767 
C -1.29895 2.236584 -0.663008 2.5 0 2.5 
z
" id="mde98dd6e40"/>
    </defs>
    <g clip-path="url(#p7b40ff5359)">
     <use style="fill:#8c7b48;" x="77.58279" xlink:href="#mde98dd6e40" y="175.735418"/>
     <use style="fill:#8c7b48;" x="88.667216" xlink:href="#mde98dd6e40" y="181.240121"/>
     <use style="fill:#8c7b48;" x="99.751642" xlink:href="#mde98dd6e40" y="162.547663"/>
     <use style="fill:#8c7b48;" x="110.836068" xlink:href="#mde98dd6e40" y="151.269187"/>
     <use style="fill:#8c7b48;" x="121.920494" xlink:href="#mde98dd6e40" y="154.173585"/>
     <use style="fill:#8c7b48;" x="133.00492" xlink:href="#mde98dd6e40" y="151.11192"/>
     <use style="fill:#8c7b48;" x="144.089347" xlink:href="#mde98dd6e40" y="151.674225"/>
     <use style="fill:#8c7b48;" x="155.173773" xlink:href="#mde98dd6e40" y="150.932209"/>
     <use style="fill:#8c7b48;" x="166.258199" xlink:href="#mde98dd6e40" y="153.442243"/>
     <use style="fill:#8c7b48;" x="177.342625" xlink:href="#mde98dd6e40" y="152.585822"/>
     <use style="fill:#8c7b48;" x="188.427051" xlink:href="#mde98dd6e40" y="153.524943"/>
     <use style="fill:#8c7b48;" x="199.511477" xlink:href="#mde98dd6e40" y="152.877706"/>
     <use style="fill:#8c7b48;" x="210.595903" xlink:href="#mde98dd6e40" y="167.326526"/>
     <use style="fill:#8c7b48;" x="221.68033" xlink:href="#mde98dd6e40" y="158.275411"/>
     <use style="fill:#8c7b48;" x="232.764756" xlink:href="#mde98dd6e40" y="146.254803"/>
     <use style="fill:#8c7b48;" x="243.849182" xlink:href="#mde98dd6e40" y="160.689392"/>
     <use style="fill:#8c7b48;" x="254.933608" xlink:href="#mde98dd6e40" y="172.372656"/>
     <use style="fill:#8c7b48;" x="266.018034" xlink:href="#mde98dd6e40" y="182.126106"/>
     <use style="fill:#8c7b48;" x="277.10246" xlink:href="#mde98dd6e40" y="153.558543"/>
     <use style="fill:#8c7b48;" x="288.186886" xlink:href="#mde98dd6e40" y="159.905357"/>
     <use style="fill:#8c7b48;" x="299.271312" xlink:href="#mde98dd6e40" y="154.931905"/>
     <use style="fill:#8c7b48;" x="310.355739" xlink:href="#mde98dd6e40" y="170.888043"/>
     <use style="fill:#8c7b48;" x="321.440165" xlink:href="#mde98dd6e40" y="167.987094"/>
     <use style="fill:#8c7b48;" x="332.524591" xlink:href="#mde98dd6e40" y="102.431936"/>
     <use style="fill:#8c7b48;" x="343.609017" xlink:href="#mde98dd6e40" y="199.925539"/>
     <use style="fill:#8c7b48;" x="354.693443" xlink:href="#mde98dd6e40" y="161.582643"/>
     <use style="fill:#8c7b48;" x="365.777869" xlink:href="#mde98dd6e40" y="161.276748"/>
     <use style="fill:#8c7b48;" x="376.862295" xlink:href="#mde98dd6e40" y="150.876785"/>
     <use style="fill:#8c7b48;" x="387.946722" xlink:href="#mde98dd6e40" y="159.827347"/>
     <use style="fill:#8c7b48;" x="399.031148" xlink:href="#mde98dd6e40" y="124.946509"/>
    </g>
   </g>
   <g id="patch_3">
    <path d="M 55.413938 241.437563 
L 55.413938 15.587016 
" style="fill:none;stroke:#d9a384;stroke-linecap:square;stroke-linejoin:miter;stroke-width:1.12;"/>
   </g>
   <g id="patch_4">
    <path d="M 421.2 241.437563 
L 421.2 15.587016 
" style="fill:none;stroke:#d9a384;stroke-linecap:square;stroke-linejoin:miter;stroke-width:1.12;"/>
   </g>
   <g id="patch_5">
    <path d="M 55.413938 241.437563 
L 421.2 241.437563 
" style="fill:none;stroke:#d9a384;stroke-linecap:square;stroke-linejoin:miter;stroke-width:1.12;"/>
   </g>
   <g id="patch_6">
    <path d="M 55.413938 15.587016 
L 421.2 15.587016 
" style="fill:none;stroke:#d9a384;stroke-linecap:square;stroke-linejoin:miter;stroke-width:1.12;"/>
   </g>
   <g id="text_17">
    <!-- HIGH19 -->
    <g style="fill:#d9a384;" transform="translate(94.209429 94.729422)scale(0.1 -0.1)">
     <defs>
      <path d="M 628 4666 
L 1259 4666 
L 1259 2753 
L 3553 2753 
L 3553 4666 
L 4184 4666 
L 4184 0 
L 3553 0 
L 3553 2222 
L 1259 2222 
L 1259 0 
L 628 0 
L 628 4666 
z
" id="DejaVuSans-48" transform="scale(0.015625)"/>
      <path d="M 628 4666 
L 1259 4666 
L 1259 0 
L 628 0 
L 628 4666 
z
" id="DejaVuSans-49" transform="scale(0.015625)"/>
      <path d="M 3809 666 
L 3809 1919 
L 2778 1919 
L 2778 2438 
L 4434 2438 
L 4434 434 
Q 4069 175 3628 42 
Q 3188 -91 2688 -91 
Q 1594 -91 976 548 
Q 359 1188 359 2328 
Q 359 3472 976 4111 
Q 1594 4750 2688 4750 
Q 3144 4750 3555 4637 
Q 3966 4525 4313 4306 
L 4313 3634 
Q 3963 3931 3569 4081 
Q 3175 4231 2741 4231 
Q 1884 4231 1454 3753 
Q 1025 3275 1025 2328 
Q 1025 1384 1454 906 
Q 1884 428 2741 428 
Q 3075 428 3337 486 
Q 3600 544 3809 666 
z
" id="DejaVuSans-47" transform="scale(0.015625)"/>
      <path d="M 703 97 
L 703 672 
Q 941 559 1184 500 
Q 1428 441 1663 441 
Q 2288 441 2617 861 
Q 2947 1281 2994 2138 
Q 2813 1869 2534 1725 
Q 2256 1581 1919 1581 
Q 1219 1581 811 2004 
Q 403 2428 403 3163 
Q 403 3881 828 4315 
Q 1253 4750 1959 4750 
Q 2769 4750 3195 4129 
Q 3622 3509 3622 2328 
Q 3622 1225 3098 567 
Q 2575 -91 1691 -91 
Q 1453 -91 1209 -44 
Q 966 3 703 97 
z
M 1959 2075 
Q 2384 2075 2632 2365 
Q 2881 2656 2881 3163 
Q 2881 3666 2632 3958 
Q 2384 4250 1959 4250 
Q 1534 4250 1286 3958 
Q 1038 3666 1038 3163 
Q 1038 2656 1286 2365 
Q 1534 2075 1959 2075 
z
" id="DejaVuSans-39" transform="scale(0.015625)"/>
     </defs>
     <use xlink:href="#DejaVuSans-48"/>
     <use x="75.195312" xlink:href="#DejaVuSans-49"/>
     <use x="104.6875" xlink:href="#DejaVuSans-47"/>
     <use x="182.177734" xlink:href="#DejaVuSans-48"/>
     <use x="257.373047" xlink:href="#DejaVuSans-31"/>
     <use x="320.996094" xlink:href="#DejaVuSans-39"/>
    </g>
    <!-- mean = 0.945±0.015 -->
    <g style="fill:#d9a384;" transform="translate(94.209429 105.927234)scale(0.1 -0.1)">
     <defs>
      <path d="M 678 2906 
L 4684 2906 
L 4684 2381 
L 678 2381 
L 678 2906 
z
M 678 1631 
L 4684 1631 
L 4684 1100 
L 678 1100 
L 678 1631 
z
" id="DejaVuSans-3d" transform="scale(0.015625)"/>
     </defs>
     <use xlink:href="#DejaVuSans-6d"/>
     <use x="97.412109" xlink:href="#DejaVuSans-65"/>
     <use x="158.935547" xlink:href="#DejaVuSans-61"/>
     <use x="220.214844" xlink:href="#DejaVuSans-6e"/>
     <use x="283.59375" xlink:href="#DejaVuSans-20"/>
     <use x="315.380859" xlink:href="#DejaVuSans-3d"/>
     <use x="399.169922" xlink:href="#DejaVuSans-20"/>
     <use x="430.957031" xlink:href="#DejaVuSans-30"/>
     <use x="494.580078" xlink:href="#DejaVuSans-2e"/>
     <use x="526.367188" xlink:href="#DejaVuSans-39"/>
     <use x="589.990234" xlink:href="#DejaVuSans-34"/>
     <use x="653.613281" xlink:href="#DejaVuSans-35"/>
     <use x="717.236328" xlink:href="#DejaVuSans-b1"/>
     <use x="801.025391" xlink:href="#DejaVuSans-30"/>
     <use x="864.648438" xlink:href="#DejaVuSans-2e"/>
     <use x="896.435547" xlink:href="#DejaVuSans-30"/>
     <use x="960.058594" xlink:href="#DejaVuSans-31"/>
     <use x="1023.681641" xlink:href="#DejaVuSans-35"/>
    </g>
   </g>
  </g>
 </g>
 <defs>
  <clipPath id="p7b40ff5359">
   <rect height="225.850547" width="365.786062" x="55.413938" y="15.587016"/>
  </clipPath>
 </defs>
</svg>
