<?xml version="1.0" encoding="utf-8" standalone="no"?>
<!DOCTYPE svg PUBLIC "-//W3C//DTD SVG 1.1//EN"
  "http://www.w3.org/Graphics/SVG/1.1/DTD/svg11.dtd">
<svg height="288pt" version="1.1" viewBox="0 0 432 288" width="432pt" xmlns="http://www.w3.org/2000/svg" xmlns:xlink="http://www.w3.org/1999/xlink">
 <metadata>
  <rdf:RDF xmlns:cc="http://creativecommons.org/ns#" xmlns:dc="http://purl.org/dc/elements/1.1/" xmlns:rdf="http://www.w3.org/1999/02/22-rdf-syntax-ns#">
   <cc:Work>
    <dc:type rdf:resource="http://purl.org/dc/dcmitype/StillImage"/>
    <dc:date>2021-10-28T00:22:10.855977</dc:date>
    <dc:format>image/svg+xml</dc:format>
    <dc:creator>
     <cc:Agent>
      <dc:title>Matplotlib v3.4.3, https://matplotlib.org/</dc:title>
     </cc:Agent>
    </dc:creator>
   </cc:Work>
  </rdf:RDF>
 </metadata>
 <defs>
  <style type="text/css">*{stroke-linecap:butt;stroke-linejoin:round;}</style>
 </defs>
 <g id="figure_1">
  <g id="patch_1">
   <path d="M 0 288 
L 432 288 
L 432 0 
L 0 0 
z
" style="fill:none;"/>
  </g>
  <g id="axes_1">
   <g id="patch_2">
    <path d="M 50.37 240.429563 
L 421.2 240.429563 
L 421.2 10.8 
L 50.37 10.8 
z
" style="fill:#542d59;"/>
   </g>
   <g id="matplotlib.axis_1">
    <g id="xtick_1">
     <g id="line2d_1">
      <path clip-path="url(#pb940ecde5d)" d="M 67.225909 240.429563 
L 67.225909 10.8 
" style="fill:none;stroke:#9ad9c8;stroke-dasharray:1.12,1.848;stroke-dashoffset:0;stroke-opacity:0.26;stroke-width:1.12;"/>
     </g>
     <g id="line2d_2"/>
     <g id="text_1">
      <!-- 0.0 -->
      <g style="fill:#d9a384;" transform="translate(57.20694 255.603594)scale(0.126 -0.126)">
       <defs>
        <path d="M 2034 4250 
Q 1547 4250 1301 3770 
Q 1056 3291 1056 2328 
Q 1056 1369 1301 889 
Q 1547 409 2034 409 
Q 2525 409 2770 889 
Q 3016 1369 3016 2328 
Q 3016 3291 2770 3770 
Q 2525 4250 2034 4250 
z
M 2034 4750 
Q 2819 4750 3233 4129 
Q 3647 3509 3647 2328 
Q 3647 1150 3233 529 
Q 2819 -91 2034 -91 
Q 1250 -91 836 529 
Q 422 1150 422 2328 
Q 422 3509 836 4129 
Q 1250 4750 2034 4750 
z
" id="DejaVuSans-30" transform="scale(0.015625)"/>
        <path d="M 684 794 
L 1344 794 
L 1344 0 
L 684 0 
L 684 794 
z
" id="DejaVuSans-2e" transform="scale(0.015625)"/>
       </defs>
       <use xlink:href="#DejaVuSans-30"/>
       <use x="63.623047" xlink:href="#DejaVuSans-2e"/>
       <use x="95.410156" xlink:href="#DejaVuSans-30"/>
      </g>
     </g>
    </g>
    <g id="xtick_2">
     <g id="line2d_3">
      <path clip-path="url(#pb940ecde5d)" d="M 120.879934 240.429563 
L 120.879934 10.8 
" style="fill:none;stroke:#9ad9c8;stroke-dasharray:1.12,1.848;stroke-dashoffset:0;stroke-opacity:0.26;stroke-width:1.12;"/>
     </g>
     <g id="line2d_4"/>
     <g id="text_2">
      <!-- 0.5 -->
      <g style="fill:#d9a384;" transform="translate(110.860965 255.603594)scale(0.126 -0.126)">
       <defs>
        <path d="M 691 4666 
L 3169 4666 
L 3169 4134 
L 1269 4134 
L 1269 2991 
Q 1406 3038 1543 3061 
Q 1681 3084 1819 3084 
Q 2600 3084 3056 2656 
Q 3513 2228 3513 1497 
Q 3513 744 3044 326 
Q 2575 -91 1722 -91 
Q 1428 -91 1123 -41 
Q 819 9 494 109 
L 494 744 
Q 775 591 1075 516 
Q 1375 441 1709 441 
Q 2250 441 2565 725 
Q 2881 1009 2881 1497 
Q 2881 1984 2565 2268 
Q 2250 2553 1709 2553 
Q 1456 2553 1204 2497 
Q 953 2441 691 2322 
L 691 4666 
z
" id="DejaVuSans-35" transform="scale(0.015625)"/>
       </defs>
       <use xlink:href="#DejaVuSans-30"/>
       <use x="63.623047" xlink:href="#DejaVuSans-2e"/>
       <use x="95.410156" xlink:href="#DejaVuSans-35"/>
      </g>
     </g>
    </g>
    <g id="xtick_3">
     <g id="line2d_5">
      <path clip-path="url(#pb940ecde5d)" d="M 174.533959 240.429563 
L 174.533959 10.8 
" style="fill:none;stroke:#9ad9c8;stroke-dasharray:1.12,1.848;stroke-dashoffset:0;stroke-opacity:0.26;stroke-width:1.12;"/>
     </g>
     <g id="line2d_6"/>
     <g id="text_3">
      <!-- 1.0 -->
      <g style="fill:#d9a384;" transform="translate(164.51499 255.603594)scale(0.126 -0.126)">
       <defs>
        <path d="M 794 531 
L 1825 531 
L 1825 4091 
L 703 3866 
L 703 4441 
L 1819 4666 
L 2450 4666 
L 2450 531 
L 3481 531 
L 3481 0 
L 794 0 
L 794 531 
z
" id="DejaVuSans-31" transform="scale(0.015625)"/>
       </defs>
       <use xlink:href="#DejaVuSans-31"/>
       <use x="63.623047" xlink:href="#DejaVuSans-2e"/>
       <use x="95.410156" xlink:href="#DejaVuSans-30"/>
      </g>
     </g>
    </g>
    <g id="xtick_4">
     <g id="line2d_7">
      <path clip-path="url(#pb940ecde5d)" d="M 228.187984 240.429563 
L 228.187984 10.8 
" style="fill:none;stroke:#9ad9c8;stroke-dasharray:1.12,1.848;stroke-dashoffset:0;stroke-opacity:0.26;stroke-width:1.12;"/>
     </g>
     <g id="line2d_8"/>
     <g id="text_4">
      <!-- 1.5 -->
      <g style="fill:#d9a384;" transform="translate(218.169015 255.603594)scale(0.126 -0.126)">
       <use xlink:href="#DejaVuSans-31"/>
       <use x="63.623047" xlink:href="#DejaVuSans-2e"/>
       <use x="95.410156" xlink:href="#DejaVuSans-35"/>
      </g>
     </g>
    </g>
    <g id="xtick_5">
     <g id="line2d_9">
      <path clip-path="url(#pb940ecde5d)" d="M 281.842009 240.429563 
L 281.842009 10.8 
" style="fill:none;stroke:#9ad9c8;stroke-dasharray:1.12,1.848;stroke-dashoffset:0;stroke-opacity:0.26;stroke-width:1.12;"/>
     </g>
     <g id="line2d_10"/>
     <g id="text_5">
      <!-- 2.0 -->
      <g style="fill:#d9a384;" transform="translate(271.823041 255.603594)scale(0.126 -0.126)">
       <defs>
        <path d="M 1228 531 
L 3431 531 
L 3431 0 
L 469 0 
L 469 531 
Q 828 903 1448 1529 
Q 2069 2156 2228 2338 
Q 2531 2678 2651 2914 
Q 2772 3150 2772 3378 
Q 2772 3750 2511 3984 
Q 2250 4219 1831 4219 
Q 1534 4219 1204 4116 
Q 875 4013 500 3803 
L 500 4441 
Q 881 4594 1212 4672 
Q 1544 4750 1819 4750 
Q 2544 4750 2975 4387 
Q 3406 4025 3406 3419 
Q 3406 3131 3298 2873 
Q 3191 2616 2906 2266 
Q 2828 2175 2409 1742 
Q 1991 1309 1228 531 
z
" id="DejaVuSans-32" transform="scale(0.015625)"/>
       </defs>
       <use xlink:href="#DejaVuSans-32"/>
       <use x="63.623047" xlink:href="#DejaVuSans-2e"/>
       <use x="95.410156" xlink:href="#DejaVuSans-30"/>
      </g>
     </g>
    </g>
    <g id="xtick_6">
     <g id="line2d_11">
      <path clip-path="url(#pb940ecde5d)" d="M 335.496034 240.429563 
L 335.496034 10.8 
" style="fill:none;stroke:#9ad9c8;stroke-dasharray:1.12,1.848;stroke-dashoffset:0;stroke-opacity:0.26;stroke-width:1.12;"/>
     </g>
     <g id="line2d_12"/>
     <g id="text_6">
      <!-- 2.5 -->
      <g style="fill:#d9a384;" transform="translate(325.477066 255.603594)scale(0.126 -0.126)">
       <use xlink:href="#DejaVuSans-32"/>
       <use x="63.623047" xlink:href="#DejaVuSans-2e"/>
       <use x="95.410156" xlink:href="#DejaVuSans-35"/>
      </g>
     </g>
    </g>
    <g id="xtick_7">
     <g id="line2d_13">
      <path clip-path="url(#pb940ecde5d)" d="M 389.150059 240.429563 
L 389.150059 10.8 
" style="fill:none;stroke:#9ad9c8;stroke-dasharray:1.12,1.848;stroke-dashoffset:0;stroke-opacity:0.26;stroke-width:1.12;"/>
     </g>
     <g id="line2d_14"/>
     <g id="text_7">
      <!-- 3.0 -->
      <g style="fill:#d9a384;" transform="translate(379.131091 255.603594)scale(0.126 -0.126)">
       <defs>
        <path d="M 2597 2516 
Q 3050 2419 3304 2112 
Q 3559 1806 3559 1356 
Q 3559 666 3084 287 
Q 2609 -91 1734 -91 
Q 1441 -91 1130 -33 
Q 819 25 488 141 
L 488 750 
Q 750 597 1062 519 
Q 1375 441 1716 441 
Q 2309 441 2620 675 
Q 2931 909 2931 1356 
Q 2931 1769 2642 2001 
Q 2353 2234 1838 2234 
L 1294 2234 
L 1294 2753 
L 1863 2753 
Q 2328 2753 2575 2939 
Q 2822 3125 2822 3475 
Q 2822 3834 2567 4026 
Q 2313 4219 1838 4219 
Q 1578 4219 1281 4162 
Q 984 4106 628 3988 
L 628 4550 
Q 988 4650 1302 4700 
Q 1616 4750 1894 4750 
Q 2613 4750 3031 4423 
Q 3450 4097 3450 3541 
Q 3450 3153 3228 2886 
Q 3006 2619 2597 2516 
z
" id="DejaVuSans-33" transform="scale(0.015625)"/>
       </defs>
       <use xlink:href="#DejaVuSans-33"/>
       <use x="63.623047" xlink:href="#DejaVuSans-2e"/>
       <use x="95.410156" xlink:href="#DejaVuSans-30"/>
      </g>
     </g>
    </g>
    <g id="text_8">
     <!-- $\pi^\pm$ polar angle [rad] -->
     <g style="fill:#d9a384;" transform="translate(161.985 274.176)scale(0.144 -0.144)">
      <defs>
       <path d="M 584 3500 
L 3938 3500 
L 3825 2925 
L 3384 2925 
L 2966 775 
Q 2922 550 2981 450 
Q 3038 353 3209 353 
Q 3256 353 3325 363 
Q 3397 369 3419 372 
L 3338 -44 
Q 3222 -84 3103 -103 
Q 2981 -122 2866 -122 
Q 2491 -122 2388 81 
Q 2284 288 2391 838 
L 2797 2925 
L 1506 2925 
L 938 0 
L 350 0 
L 919 2925 
L 472 2925 
L 584 3500 
z
" id="DejaVuSans-Oblique-3c0" transform="scale(0.015625)"/>
       <path d="M 2944 4013 
L 2944 2803 
L 4684 2803 
L 4684 2272 
L 2944 2272 
L 2944 1063 
L 2419 1063 
L 2419 2272 
L 678 2272 
L 678 2803 
L 2419 2803 
L 2419 4013 
L 2944 4013 
z
M 678 531 
L 4684 531 
L 4684 0 
L 678 0 
L 678 531 
z
" id="DejaVuSans-b1" transform="scale(0.015625)"/>
       <path id="DejaVuSans-20" transform="scale(0.015625)"/>
       <path d="M 1159 525 
L 1159 -1331 
L 581 -1331 
L 581 3500 
L 1159 3500 
L 1159 2969 
Q 1341 3281 1617 3432 
Q 1894 3584 2278 3584 
Q 2916 3584 3314 3078 
Q 3713 2572 3713 1747 
Q 3713 922 3314 415 
Q 2916 -91 2278 -91 
Q 1894 -91 1617 61 
Q 1341 213 1159 525 
z
M 3116 1747 
Q 3116 2381 2855 2742 
Q 2594 3103 2138 3103 
Q 1681 3103 1420 2742 
Q 1159 2381 1159 1747 
Q 1159 1113 1420 752 
Q 1681 391 2138 391 
Q 2594 391 2855 752 
Q 3116 1113 3116 1747 
z
" id="DejaVuSans-70" transform="scale(0.015625)"/>
       <path d="M 1959 3097 
Q 1497 3097 1228 2736 
Q 959 2375 959 1747 
Q 959 1119 1226 758 
Q 1494 397 1959 397 
Q 2419 397 2687 759 
Q 2956 1122 2956 1747 
Q 2956 2369 2687 2733 
Q 2419 3097 1959 3097 
z
M 1959 3584 
Q 2709 3584 3137 3096 
Q 3566 2609 3566 1747 
Q 3566 888 3137 398 
Q 2709 -91 1959 -91 
Q 1206 -91 779 398 
Q 353 888 353 1747 
Q 353 2609 779 3096 
Q 1206 3584 1959 3584 
z
" id="DejaVuSans-6f" transform="scale(0.015625)"/>
       <path d="M 603 4863 
L 1178 4863 
L 1178 0 
L 603 0 
L 603 4863 
z
" id="DejaVuSans-6c" transform="scale(0.015625)"/>
       <path d="M 2194 1759 
Q 1497 1759 1228 1600 
Q 959 1441 959 1056 
Q 959 750 1161 570 
Q 1363 391 1709 391 
Q 2188 391 2477 730 
Q 2766 1069 2766 1631 
L 2766 1759 
L 2194 1759 
z
M 3341 1997 
L 3341 0 
L 2766 0 
L 2766 531 
Q 2569 213 2275 61 
Q 1981 -91 1556 -91 
Q 1019 -91 701 211 
Q 384 513 384 1019 
Q 384 1609 779 1909 
Q 1175 2209 1959 2209 
L 2766 2209 
L 2766 2266 
Q 2766 2663 2505 2880 
Q 2244 3097 1772 3097 
Q 1472 3097 1187 3025 
Q 903 2953 641 2809 
L 641 3341 
Q 956 3463 1253 3523 
Q 1550 3584 1831 3584 
Q 2591 3584 2966 3190 
Q 3341 2797 3341 1997 
z
" id="DejaVuSans-61" transform="scale(0.015625)"/>
       <path d="M 2631 2963 
Q 2534 3019 2420 3045 
Q 2306 3072 2169 3072 
Q 1681 3072 1420 2755 
Q 1159 2438 1159 1844 
L 1159 0 
L 581 0 
L 581 3500 
L 1159 3500 
L 1159 2956 
Q 1341 3275 1631 3429 
Q 1922 3584 2338 3584 
Q 2397 3584 2469 3576 
Q 2541 3569 2628 3553 
L 2631 2963 
z
" id="DejaVuSans-72" transform="scale(0.015625)"/>
       <path d="M 3513 2113 
L 3513 0 
L 2938 0 
L 2938 2094 
Q 2938 2591 2744 2837 
Q 2550 3084 2163 3084 
Q 1697 3084 1428 2787 
Q 1159 2491 1159 1978 
L 1159 0 
L 581 0 
L 581 3500 
L 1159 3500 
L 1159 2956 
Q 1366 3272 1645 3428 
Q 1925 3584 2291 3584 
Q 2894 3584 3203 3211 
Q 3513 2838 3513 2113 
z
" id="DejaVuSans-6e" transform="scale(0.015625)"/>
       <path d="M 2906 1791 
Q 2906 2416 2648 2759 
Q 2391 3103 1925 3103 
Q 1463 3103 1205 2759 
Q 947 2416 947 1791 
Q 947 1169 1205 825 
Q 1463 481 1925 481 
Q 2391 481 2648 825 
Q 2906 1169 2906 1791 
z
M 3481 434 
Q 3481 -459 3084 -895 
Q 2688 -1331 1869 -1331 
Q 1566 -1331 1297 -1286 
Q 1028 -1241 775 -1147 
L 775 -588 
Q 1028 -725 1275 -790 
Q 1522 -856 1778 -856 
Q 2344 -856 2625 -561 
Q 2906 -266 2906 331 
L 2906 616 
Q 2728 306 2450 153 
Q 2172 0 1784 0 
Q 1141 0 747 490 
Q 353 981 353 1791 
Q 353 2603 747 3093 
Q 1141 3584 1784 3584 
Q 2172 3584 2450 3431 
Q 2728 3278 2906 2969 
L 2906 3500 
L 3481 3500 
L 3481 434 
z
" id="DejaVuSans-67" transform="scale(0.015625)"/>
       <path d="M 3597 1894 
L 3597 1613 
L 953 1613 
Q 991 1019 1311 708 
Q 1631 397 2203 397 
Q 2534 397 2845 478 
Q 3156 559 3463 722 
L 3463 178 
Q 3153 47 2828 -22 
Q 2503 -91 2169 -91 
Q 1331 -91 842 396 
Q 353 884 353 1716 
Q 353 2575 817 3079 
Q 1281 3584 2069 3584 
Q 2775 3584 3186 3129 
Q 3597 2675 3597 1894 
z
M 3022 2063 
Q 3016 2534 2758 2815 
Q 2500 3097 2075 3097 
Q 1594 3097 1305 2825 
Q 1016 2553 972 2059 
L 3022 2063 
z
" id="DejaVuSans-65" transform="scale(0.015625)"/>
       <path d="M 550 4863 
L 1875 4863 
L 1875 4416 
L 1125 4416 
L 1125 -397 
L 1875 -397 
L 1875 -844 
L 550 -844 
L 550 4863 
z
" id="DejaVuSans-5b" transform="scale(0.015625)"/>
       <path d="M 2906 2969 
L 2906 4863 
L 3481 4863 
L 3481 0 
L 2906 0 
L 2906 525 
Q 2725 213 2448 61 
Q 2172 -91 1784 -91 
Q 1150 -91 751 415 
Q 353 922 353 1747 
Q 353 2572 751 3078 
Q 1150 3584 1784 3584 
Q 2172 3584 2448 3432 
Q 2725 3281 2906 2969 
z
M 947 1747 
Q 947 1113 1208 752 
Q 1469 391 1925 391 
Q 2381 391 2643 752 
Q 2906 1113 2906 1747 
Q 2906 2381 2643 2742 
Q 2381 3103 1925 3103 
Q 1469 3103 1208 2742 
Q 947 2381 947 1747 
z
" id="DejaVuSans-64" transform="scale(0.015625)"/>
       <path d="M 1947 4863 
L 1947 -844 
L 622 -844 
L 622 -397 
L 1369 -397 
L 1369 4416 
L 622 4416 
L 622 4863 
L 1947 4863 
z
" id="DejaVuSans-5d" transform="scale(0.015625)"/>
      </defs>
      <use transform="translate(0 0.826562)" xlink:href="#DejaVuSans-Oblique-3c0"/>
      <use transform="translate(78.308919 39.107812)scale(0.7)" xlink:href="#DejaVuSans-b1"/>
      <use transform="translate(153.333333 0.826562)" xlink:href="#DejaVuSans-20"/>
      <use transform="translate(185.120443 0.826562)" xlink:href="#DejaVuSans-70"/>
      <use transform="translate(248.597005 0.826562)" xlink:href="#DejaVuSans-6f"/>
      <use transform="translate(309.778646 0.826562)" xlink:href="#DejaVuSans-6c"/>
      <use transform="translate(337.561849 0.826562)" xlink:href="#DejaVuSans-61"/>
      <use transform="translate(398.841146 0.826562)" xlink:href="#DejaVuSans-72"/>
      <use transform="translate(439.954427 0.826562)" xlink:href="#DejaVuSans-20"/>
      <use transform="translate(471.741536 0.826562)" xlink:href="#DejaVuSans-61"/>
      <use transform="translate(533.020833 0.826562)" xlink:href="#DejaVuSans-6e"/>
      <use transform="translate(596.39974 0.826562)" xlink:href="#DejaVuSans-67"/>
      <use transform="translate(659.876302 0.826562)" xlink:href="#DejaVuSans-6c"/>
      <use transform="translate(687.659505 0.826562)" xlink:href="#DejaVuSans-65"/>
      <use transform="translate(749.182943 0.826562)" xlink:href="#DejaVuSans-20"/>
      <use transform="translate(780.970052 0.826562)" xlink:href="#DejaVuSans-5b"/>
      <use transform="translate(819.983724 0.826562)" xlink:href="#DejaVuSans-72"/>
      <use transform="translate(861.097005 0.826562)" xlink:href="#DejaVuSans-61"/>
      <use transform="translate(922.376302 0.826562)" xlink:href="#DejaVuSans-64"/>
      <use transform="translate(985.852865 0.826562)" xlink:href="#DejaVuSans-5d"/>
     </g>
    </g>
   </g>
   <g id="matplotlib.axis_2">
    <g id="ytick_1">
     <g id="line2d_15">
      <path clip-path="url(#pb940ecde5d)" d="M 50.37 240.429563 
L 421.2 240.429563 
" style="fill:none;stroke:#9ad9c8;stroke-dasharray:1.12,1.848;stroke-dashoffset:0;stroke-opacity:0.26;stroke-width:1.12;"/>
     </g>
     <g id="line2d_16"/>
     <g id="text_9">
      <!-- 0 -->
      <g style="fill:#d9a384;" transform="translate(36.75325 245.216578)scale(0.126 -0.126)">
       <use xlink:href="#DejaVuSans-30"/>
      </g>
     </g>
    </g>
    <g id="ytick_2">
     <g id="line2d_17">
      <path clip-path="url(#pb940ecde5d)" d="M 50.37 194.231172 
L 421.2 194.231172 
" style="fill:none;stroke:#9ad9c8;stroke-dasharray:1.12,1.848;stroke-dashoffset:0;stroke-opacity:0.26;stroke-width:1.12;"/>
     </g>
     <g id="line2d_18"/>
     <g id="text_10">
      <!-- 10 -->
      <g style="fill:#d9a384;" transform="translate(28.7365 199.018187)scale(0.126 -0.126)">
       <use xlink:href="#DejaVuSans-31"/>
       <use x="63.623047" xlink:href="#DejaVuSans-30"/>
      </g>
     </g>
    </g>
    <g id="ytick_3">
     <g id="line2d_19">
      <path clip-path="url(#pb940ecde5d)" d="M 50.37 148.032781 
L 421.2 148.032781 
" style="fill:none;stroke:#9ad9c8;stroke-dasharray:1.12,1.848;stroke-dashoffset:0;stroke-opacity:0.26;stroke-width:1.12;"/>
     </g>
     <g id="line2d_20"/>
     <g id="text_11">
      <!-- 20 -->
      <g style="fill:#d9a384;" transform="translate(28.7365 152.819796)scale(0.126 -0.126)">
       <use xlink:href="#DejaVuSans-32"/>
       <use x="63.623047" xlink:href="#DejaVuSans-30"/>
      </g>
     </g>
    </g>
    <g id="ytick_4">
     <g id="line2d_21">
      <path clip-path="url(#pb940ecde5d)" d="M 50.37 101.83439 
L 421.2 101.83439 
" style="fill:none;stroke:#9ad9c8;stroke-dasharray:1.12,1.848;stroke-dashoffset:0;stroke-opacity:0.26;stroke-width:1.12;"/>
     </g>
     <g id="line2d_22"/>
     <g id="text_12">
      <!-- 30 -->
      <g style="fill:#d9a384;" transform="translate(28.7365 106.621405)scale(0.126 -0.126)">
       <use xlink:href="#DejaVuSans-33"/>
       <use x="63.623047" xlink:href="#DejaVuSans-30"/>
      </g>
     </g>
    </g>
    <g id="ytick_5">
     <g id="line2d_23">
      <path clip-path="url(#pb940ecde5d)" d="M 50.37 55.635999 
L 421.2 55.635999 
" style="fill:none;stroke:#9ad9c8;stroke-dasharray:1.12,1.848;stroke-dashoffset:0;stroke-opacity:0.26;stroke-width:1.12;"/>
     </g>
     <g id="line2d_24"/>
     <g id="text_13">
      <!-- 40 -->
      <g style="fill:#d9a384;" transform="translate(28.7365 60.423014)scale(0.126 -0.126)">
       <defs>
        <path d="M 2419 4116 
L 825 1625 
L 2419 1625 
L 2419 4116 
z
M 2253 4666 
L 3047 4666 
L 3047 1625 
L 3713 1625 
L 3713 1100 
L 3047 1100 
L 3047 0 
L 2419 0 
L 2419 1100 
L 313 1100 
L 313 1709 
L 2253 4666 
z
" id="DejaVuSans-34" transform="scale(0.015625)"/>
       </defs>
       <use xlink:href="#DejaVuSans-34"/>
       <use x="63.623047" xlink:href="#DejaVuSans-30"/>
      </g>
     </g>
    </g>
    <g id="text_14">
     <!-- number of events [a.u.] -->
     <g style="fill:#d9a384;" transform="translate(21.74175 210.948281)rotate(-90)scale(0.144 -0.144)">
      <defs>
       <path d="M 544 1381 
L 544 3500 
L 1119 3500 
L 1119 1403 
Q 1119 906 1312 657 
Q 1506 409 1894 409 
Q 2359 409 2629 706 
Q 2900 1003 2900 1516 
L 2900 3500 
L 3475 3500 
L 3475 0 
L 2900 0 
L 2900 538 
Q 2691 219 2414 64 
Q 2138 -91 1772 -91 
Q 1169 -91 856 284 
Q 544 659 544 1381 
z
M 1991 3584 
L 1991 3584 
z
" id="DejaVuSans-75" transform="scale(0.015625)"/>
       <path d="M 3328 2828 
Q 3544 3216 3844 3400 
Q 4144 3584 4550 3584 
Q 5097 3584 5394 3201 
Q 5691 2819 5691 2113 
L 5691 0 
L 5113 0 
L 5113 2094 
Q 5113 2597 4934 2840 
Q 4756 3084 4391 3084 
Q 3944 3084 3684 2787 
Q 3425 2491 3425 1978 
L 3425 0 
L 2847 0 
L 2847 2094 
Q 2847 2600 2669 2842 
Q 2491 3084 2119 3084 
Q 1678 3084 1418 2786 
Q 1159 2488 1159 1978 
L 1159 0 
L 581 0 
L 581 3500 
L 1159 3500 
L 1159 2956 
Q 1356 3278 1631 3431 
Q 1906 3584 2284 3584 
Q 2666 3584 2933 3390 
Q 3200 3197 3328 2828 
z
" id="DejaVuSans-6d" transform="scale(0.015625)"/>
       <path d="M 3116 1747 
Q 3116 2381 2855 2742 
Q 2594 3103 2138 3103 
Q 1681 3103 1420 2742 
Q 1159 2381 1159 1747 
Q 1159 1113 1420 752 
Q 1681 391 2138 391 
Q 2594 391 2855 752 
Q 3116 1113 3116 1747 
z
M 1159 2969 
Q 1341 3281 1617 3432 
Q 1894 3584 2278 3584 
Q 2916 3584 3314 3078 
Q 3713 2572 3713 1747 
Q 3713 922 3314 415 
Q 2916 -91 2278 -91 
Q 1894 -91 1617 61 
Q 1341 213 1159 525 
L 1159 0 
L 581 0 
L 581 4863 
L 1159 4863 
L 1159 2969 
z
" id="DejaVuSans-62" transform="scale(0.015625)"/>
       <path d="M 2375 4863 
L 2375 4384 
L 1825 4384 
Q 1516 4384 1395 4259 
Q 1275 4134 1275 3809 
L 1275 3500 
L 2222 3500 
L 2222 3053 
L 1275 3053 
L 1275 0 
L 697 0 
L 697 3053 
L 147 3053 
L 147 3500 
L 697 3500 
L 697 3744 
Q 697 4328 969 4595 
Q 1241 4863 1831 4863 
L 2375 4863 
z
" id="DejaVuSans-66" transform="scale(0.015625)"/>
       <path d="M 191 3500 
L 800 3500 
L 1894 563 
L 2988 3500 
L 3597 3500 
L 2284 0 
L 1503 0 
L 191 3500 
z
" id="DejaVuSans-76" transform="scale(0.015625)"/>
       <path d="M 1172 4494 
L 1172 3500 
L 2356 3500 
L 2356 3053 
L 1172 3053 
L 1172 1153 
Q 1172 725 1289 603 
Q 1406 481 1766 481 
L 2356 481 
L 2356 0 
L 1766 0 
Q 1100 0 847 248 
Q 594 497 594 1153 
L 594 3053 
L 172 3053 
L 172 3500 
L 594 3500 
L 594 4494 
L 1172 4494 
z
" id="DejaVuSans-74" transform="scale(0.015625)"/>
       <path d="M 2834 3397 
L 2834 2853 
Q 2591 2978 2328 3040 
Q 2066 3103 1784 3103 
Q 1356 3103 1142 2972 
Q 928 2841 928 2578 
Q 928 2378 1081 2264 
Q 1234 2150 1697 2047 
L 1894 2003 
Q 2506 1872 2764 1633 
Q 3022 1394 3022 966 
Q 3022 478 2636 193 
Q 2250 -91 1575 -91 
Q 1294 -91 989 -36 
Q 684 19 347 128 
L 347 722 
Q 666 556 975 473 
Q 1284 391 1588 391 
Q 1994 391 2212 530 
Q 2431 669 2431 922 
Q 2431 1156 2273 1281 
Q 2116 1406 1581 1522 
L 1381 1569 
Q 847 1681 609 1914 
Q 372 2147 372 2553 
Q 372 3047 722 3315 
Q 1072 3584 1716 3584 
Q 2034 3584 2315 3537 
Q 2597 3491 2834 3397 
z
" id="DejaVuSans-73" transform="scale(0.015625)"/>
      </defs>
      <use xlink:href="#DejaVuSans-6e"/>
      <use x="63.378906" xlink:href="#DejaVuSans-75"/>
      <use x="126.757812" xlink:href="#DejaVuSans-6d"/>
      <use x="224.169922" xlink:href="#DejaVuSans-62"/>
      <use x="287.646484" xlink:href="#DejaVuSans-65"/>
      <use x="349.169922" xlink:href="#DejaVuSans-72"/>
      <use x="390.283203" xlink:href="#DejaVuSans-20"/>
      <use x="422.070312" xlink:href="#DejaVuSans-6f"/>
      <use x="483.251953" xlink:href="#DejaVuSans-66"/>
      <use x="518.457031" xlink:href="#DejaVuSans-20"/>
      <use x="550.244141" xlink:href="#DejaVuSans-65"/>
      <use x="611.767578" xlink:href="#DejaVuSans-76"/>
      <use x="670.947266" xlink:href="#DejaVuSans-65"/>
      <use x="732.470703" xlink:href="#DejaVuSans-6e"/>
      <use x="795.849609" xlink:href="#DejaVuSans-74"/>
      <use x="835.058594" xlink:href="#DejaVuSans-73"/>
      <use x="887.158203" xlink:href="#DejaVuSans-20"/>
      <use x="918.945312" xlink:href="#DejaVuSans-5b"/>
      <use x="957.958984" xlink:href="#DejaVuSans-61"/>
      <use x="1019.238281" xlink:href="#DejaVuSans-2e"/>
      <use x="1051.025391" xlink:href="#DejaVuSans-75"/>
      <use x="1114.404297" xlink:href="#DejaVuSans-2e"/>
      <use x="1146.191406" xlink:href="#DejaVuSans-5d"/>
     </g>
    </g>
   </g>
   <g id="patch_3">
    <path clip-path="url(#pb940ecde5d)" d="M 67.225909 240.429563 
L 67.225909 240.429563 
L 80.710636 240.429563 
L 80.710636 240.429563 
L 94.195364 240.429563 
L 94.195364 240.429563 
L 107.680091 240.429563 
L 107.680091 237.842344 
L 121.164818 237.842344 
L 121.164818 221.651215 
L 134.649545 221.651215 
L 134.649545 190.72244 
L 148.134273 190.72244 
L 148.134273 149.93114 
L 161.619 149.93114 
L 161.619 117.697998 
L 175.103727 117.697998 
L 175.103727 99.251075 
L 188.588455 99.251075 
L 188.588455 82.796213 
L 202.073182 82.796213 
L 202.073182 81.685769 
L 215.557909 81.685769 
L 215.557909 85.810254 
L 229.042636 85.810254 
L 229.042636 75.525655 
L 242.527364 75.525655 
L 242.527364 85.181669 
L 256.012091 85.181669 
L 256.012091 85.801057 
L 269.496818 85.801057 
L 269.496818 84.726559 
L 282.981545 84.726559 
L 282.981545 101.721439 
L 296.466273 101.721439 
L 296.466273 117.606948 
L 309.951 117.606948 
L 309.951 144.476556 
L 323.435727 144.476556 
L 323.435727 189.30407 
L 336.920455 189.30407 
L 336.920455 227.101924 
L 350.405182 227.101924 
L 350.405182 238.118032 
L 363.889909 238.118032 
L 363.889909 240.429563 
L 377.374636 240.429563 
L 377.374636 240.429563 
L 390.859364 240.429563 
L 390.859364 240.429563 
L 404.344091 240.429563 
L 404.344091 240.429563 
" style="fill:none;stroke:#9ad9c8;stroke-linejoin:miter;stroke-width:2;"/>
   </g>
   <g id="line2d_25">
    <path clip-path="url(#pb940ecde5d)" d="M 267.977415 240.429563 
L 267.977415 -1 
" style="fill:none;stroke:#000000;stroke-linecap:square;stroke-width:2;"/>
   </g>
   <g id="line2d_26">
    <path clip-path="url(#pb940ecde5d)" d="M 203.592585 240.429563 
L 203.592585 -1 
" style="fill:none;stroke:#000000;stroke-linecap:square;stroke-width:2;"/>
   </g>
   <g id="patch_4">
    <path d="M 50.37 240.429563 
L 50.37 10.8 
" style="fill:none;stroke:#d9a384;stroke-linecap:square;stroke-linejoin:miter;stroke-width:1.12;"/>
   </g>
   <g id="patch_5">
    <path d="M 421.2 240.429563 
L 421.2 10.8 
" style="fill:none;stroke:#d9a384;stroke-linecap:square;stroke-linejoin:miter;stroke-width:1.12;"/>
   </g>
   <g id="patch_6">
    <path d="M 50.37 240.429563 
L 421.2 240.429563 
" style="fill:none;stroke:#d9a384;stroke-linecap:square;stroke-linejoin:miter;stroke-width:1.12;"/>
   </g>
   <g id="patch_7">
    <path d="M 50.37 10.8 
L 421.2 10.8 
" style="fill:none;stroke:#d9a384;stroke-linecap:square;stroke-linejoin:miter;stroke-width:1.12;"/>
   </g>
   <g id="LineCollection_1">
    <path clip-path="url(#pb940ecde5d)" style="fill:none;stroke:#8c7b48;stroke-width:2;"/>
    <path clip-path="url(#pb940ecde5d)" style="fill:none;stroke:#8c7b48;stroke-width:2;"/>
    <path clip-path="url(#pb940ecde5d)" style="fill:none;stroke:#8c7b48;stroke-width:2;"/>
    <path clip-path="url(#pb940ecde5d)" d="M 114.422455 239.624078 
L 114.422455 225.23711 
" style="fill:none;stroke:#8c7b48;stroke-width:2;"/>
    <path clip-path="url(#pb940ecde5d)" d="M 127.907182 216.205842 
L 127.907182 185.337726 
" style="fill:none;stroke:#8c7b48;stroke-width:2;"/>
    <path clip-path="url(#pb940ecde5d)" d="M 141.391909 204.630665 
L 141.391909 169.312545 
" style="fill:none;stroke:#8c7b48;stroke-width:2;"/>
    <path clip-path="url(#pb940ecde5d)" d="M 154.876636 188.741632 
L 154.876636 148.342076 
" style="fill:none;stroke:#8c7b48;stroke-width:2;"/>
    <path clip-path="url(#pb940ecde5d)" d="M 168.361364 126.873724 
L 168.361364 71.788706 
" style="fill:none;stroke:#8c7b48;stroke-width:2;"/>
    <path clip-path="url(#pb940ecde5d)" d="M 181.846091 139.434198 
L 181.846091 86.924524 
" style="fill:none;stroke:#8c7b48;stroke-width:2;"/>
    <path clip-path="url(#pb940ecde5d)" d="M 195.330818 135.255134 
L 195.330818 81.871894 
" style="fill:none;stroke:#8c7b48;stroke-width:2;"/>
    <path clip-path="url(#pb940ecde5d)" d="M 208.815545 93.088014 
L 208.815545 31.703883 
" style="fill:none;stroke:#8c7b48;stroke-width:2;"/>
    <path clip-path="url(#pb940ecde5d)" d="M 222.300273 84.587266 
L 222.300273 21.734741 
" style="fill:none;stroke:#8c7b48;stroke-width:2;"/>
    <path clip-path="url(#pb940ecde5d)" d="M 235.785 131.068173 
L 235.785 76.826747 
" style="fill:none;stroke:#8c7b48;stroke-width:2;"/>
    <path clip-path="url(#pb940ecde5d)" d="M 249.269727 139.434198 
L 249.269727 86.924524 
" style="fill:none;stroke:#8c7b48;stroke-width:2;"/>
    <path clip-path="url(#pb940ecde5d)" d="M 262.754455 105.801311 
L 262.754455 46.693929 
" style="fill:none;stroke:#8c7b48;stroke-width:2;"/>
    <path clip-path="url(#pb940ecde5d)" d="M 276.239182 118.463834 
L 276.239182 61.732594 
" style="fill:none;stroke:#8c7b48;stroke-width:2;"/>
    <path clip-path="url(#pb940ecde5d)" d="M 289.723909 147.766792 
L 289.723909 97.053905 
" style="fill:none;stroke:#8c7b48;stroke-width:2;"/>
    <path clip-path="url(#pb940ecde5d)" d="M 303.208636 139.434198 
L 303.208636 86.924524 
" style="fill:none;stroke:#8c7b48;stroke-width:2;"/>
    <path clip-path="url(#pb940ecde5d)" d="M 316.693364 200.698549 
L 316.693364 164.034349 
" style="fill:none;stroke:#8c7b48;stroke-width:2;"/>
    <path clip-path="url(#pb940ecde5d)" d="M 330.178091 219.966889 
L 330.178091 190.760933 
" style="fill:none;stroke:#8c7b48;stroke-width:2;"/>
    <path clip-path="url(#pb940ecde5d)" d="M 343.662818 230.761123 
L 343.662818 207.411639 
" style="fill:none;stroke:#8c7b48;stroke-width:2;"/>
    <path clip-path="url(#pb940ecde5d)" d="M 357.147545 239.624078 
L 357.147545 225.23711 
" style="fill:none;stroke:#8c7b48;stroke-width:2;"/>
    <path clip-path="url(#pb940ecde5d)" style="fill:none;stroke:#8c7b48;stroke-width:2;"/>
    <path clip-path="url(#pb940ecde5d)" style="fill:none;stroke:#8c7b48;stroke-width:2;"/>
    <path clip-path="url(#pb940ecde5d)" style="fill:none;stroke:#8c7b48;stroke-width:2;"/>
   </g>
   <g id="line2d_27">
    <defs>
     <path d="M 0 2.5 
C 0.663008 2.5 1.29895 2.236584 1.767767 1.767767 
C 2.236584 1.29895 2.5 0.663008 2.5 0 
C 2.5 -0.663008 2.236584 -1.29895 1.767767 -1.767767 
C 1.29895 -2.236584 0.663008 -2.5 0 -2.5 
C -0.663008 -2.5 -1.29895 -2.236584 -1.767767 -1.767767 
C -2.236584 -1.29895 -2.5 -0.663008 -2.5 0 
C -2.5 0.663008 -2.236584 1.29895 -1.767767 1.767767 
C -1.29895 2.236584 -0.663008 2.5 0 2.5 
z
" id="m3d5855eaab"/>
    </defs>
    <g clip-path="url(#pb940ecde5d)">
     <use style="fill:#8c7b48;" x="73.968273" xlink:href="#m3d5855eaab" y="240.429563"/>
     <use style="fill:#8c7b48;" x="87.453" xlink:href="#m3d5855eaab" y="240.429563"/>
     <use style="fill:#8c7b48;" x="100.937727" xlink:href="#m3d5855eaab" y="240.429563"/>
     <use style="fill:#8c7b48;" x="114.422455" xlink:href="#m3d5855eaab" y="235.809723"/>
     <use style="fill:#8c7b48;" x="127.907182" xlink:href="#m3d5855eaab" y="203.47085"/>
     <use style="fill:#8c7b48;" x="141.391909" xlink:href="#m3d5855eaab" y="189.611332"/>
     <use style="fill:#8c7b48;" x="154.876636" xlink:href="#m3d5855eaab" y="171.131976"/>
     <use style="fill:#8c7b48;" x="168.361364" xlink:href="#m3d5855eaab" y="101.83439"/>
     <use style="fill:#8c7b48;" x="181.846091" xlink:href="#m3d5855eaab" y="115.693907"/>
     <use style="fill:#8c7b48;" x="195.330818" xlink:href="#m3d5855eaab" y="111.074068"/>
     <use style="fill:#8c7b48;" x="208.815545" xlink:href="#m3d5855eaab" y="64.875677"/>
     <use style="fill:#8c7b48;" x="222.300273" xlink:href="#m3d5855eaab" y="55.635999"/>
     <use style="fill:#8c7b48;" x="235.785" xlink:href="#m3d5855eaab" y="106.454229"/>
     <use style="fill:#8c7b48;" x="249.269727" xlink:href="#m3d5855eaab" y="115.693907"/>
     <use style="fill:#8c7b48;" x="262.754455" xlink:href="#m3d5855eaab" y="78.735194"/>
     <use style="fill:#8c7b48;" x="276.239182" xlink:href="#m3d5855eaab" y="92.594711"/>
     <use style="fill:#8c7b48;" x="289.723909" xlink:href="#m3d5855eaab" y="124.933585"/>
     <use style="fill:#8c7b48;" x="303.208636" xlink:href="#m3d5855eaab" y="115.693907"/>
     <use style="fill:#8c7b48;" x="316.693364" xlink:href="#m3d5855eaab" y="184.991493"/>
     <use style="fill:#8c7b48;" x="330.178091" xlink:href="#m3d5855eaab" y="208.090689"/>
     <use style="fill:#8c7b48;" x="343.662818" xlink:href="#m3d5855eaab" y="221.950206"/>
     <use style="fill:#8c7b48;" x="357.147545" xlink:href="#m3d5855eaab" y="235.809723"/>
     <use style="fill:#8c7b48;" x="370.632273" xlink:href="#m3d5855eaab" y="240.429563"/>
     <use style="fill:#8c7b48;" x="384.117" xlink:href="#m3d5855eaab" y="240.429563"/>
     <use style="fill:#8c7b48;" x="397.601727" xlink:href="#m3d5855eaab" y="240.429563"/>
    </g>
   </g>
   <g id="legend_1">
    <g id="patch_8">
     <path d="M 349.070906 57.868875 
L 412.38 57.868875 
Q 414.9 57.868875 414.9 55.348875 
L 414.9 19.62 
Q 414.9 17.1 412.38 17.1 
L 349.070906 17.1 
Q 346.550906 17.1 346.550906 19.62 
L 346.550906 55.348875 
Q 346.550906 57.868875 349.070906 57.868875 
z
" style="fill:#542d59;opacity:0.8;stroke:#cccccc;stroke-linejoin:miter;stroke-width:0.16;"/>
    </g>
    <g id="patch_9">
     <path d="M 351.590906 31.714031 
L 376.790906 31.714031 
L 376.790906 22.894031 
L 351.590906 22.894031 
z
" style="fill:none;stroke:#9ad9c8;stroke-linejoin:miter;stroke-width:2;"/>
    </g>
    <g id="text_15">
     <!-- mc -->
     <g style="fill:#d9a384;" transform="translate(386.870906 31.714031)scale(0.126 -0.126)">
      <defs>
       <path d="M 3122 3366 
L 3122 2828 
Q 2878 2963 2633 3030 
Q 2388 3097 2138 3097 
Q 1578 3097 1268 2742 
Q 959 2388 959 1747 
Q 959 1106 1268 751 
Q 1578 397 2138 397 
Q 2388 397 2633 464 
Q 2878 531 3122 666 
L 3122 134 
Q 2881 22 2623 -34 
Q 2366 -91 2075 -91 
Q 1284 -91 818 406 
Q 353 903 353 1747 
Q 353 2603 823 3093 
Q 1294 3584 2113 3584 
Q 2378 3584 2631 3529 
Q 2884 3475 3122 3366 
z
" id="DejaVuSans-63" transform="scale(0.015625)"/>
      </defs>
      <use xlink:href="#DejaVuSans-6d"/>
      <use x="97.412109" xlink:href="#DejaVuSans-63"/>
     </g>
    </g>
    <g id="LineCollection_2">
     <path d="M 364.190906 52.098469 
L 364.190906 39.498469 
" style="fill:none;stroke:#8c7b48;stroke-width:2;"/>
    </g>
    <g id="line2d_28"/>
    <g id="line2d_29">
     <defs>
      <path d="M 0 7.5 
C 1.989023 7.5 3.896849 6.709753 5.303301 5.303301 
C 6.709753 3.896849 7.5 1.989023 7.5 0 
C 7.5 -1.989023 6.709753 -3.896849 5.303301 -5.303301 
C 3.896849 -6.709753 1.989023 -7.5 0 -7.5 
C -1.989023 -7.5 -3.896849 -6.709753 -5.303301 -5.303301 
C -6.709753 -3.896849 -7.5 -1.989023 -7.5 0 
C -7.5 1.989023 -6.709753 3.896849 -5.303301 5.303301 
C -3.896849 6.709753 -1.989023 7.5 0 7.5 
z
" id="mba397e5d5d"/>
     </defs>
     <g>
      <use style="fill:#8c7b48;" x="364.190906" xlink:href="#mba397e5d5d" y="45.798469"/>
     </g>
    </g>
    <g id="text_16">
     <!-- exp -->
     <g style="fill:#d9a384;" transform="translate(386.870906 50.208469)scale(0.126 -0.126)">
      <defs>
       <path d="M 3513 3500 
L 2247 1797 
L 3578 0 
L 2900 0 
L 1881 1375 
L 863 0 
L 184 0 
L 1544 1831 
L 300 3500 
L 978 3500 
L 1906 2253 
L 2834 3500 
L 3513 3500 
z
" id="DejaVuSans-78" transform="scale(0.015625)"/>
      </defs>
      <use xlink:href="#DejaVuSans-65"/>
      <use x="59.773438" xlink:href="#DejaVuSans-78"/>
      <use x="118.953125" xlink:href="#DejaVuSans-70"/>
     </g>
    </g>
   </g>
  </g>
 </g>
 <defs>
  <clipPath id="pb940ecde5d">
   <rect height="229.629562" width="370.83" x="50.37" y="10.8"/>
  </clipPath>
 </defs>
</svg>
