<?xml version="1.0" encoding="utf-8" standalone="no"?>
<!DOCTYPE svg PUBLIC "-//W3C//DTD SVG 1.1//EN"
  "http://www.w3.org/Graphics/SVG/1.1/DTD/svg11.dtd">
<svg height="288pt" version="1.1" viewBox="0 0 432 288" width="432pt" xmlns="http://www.w3.org/2000/svg" xmlns:xlink="http://www.w3.org/1999/xlink">
 <metadata>
  <rdf:RDF xmlns:cc="http://creativecommons.org/ns#" xmlns:dc="http://purl.org/dc/elements/1.1/" xmlns:rdf="http://www.w3.org/1999/02/22-rdf-syntax-ns#">
   <cc:Work>
    <dc:type rdf:resource="http://purl.org/dc/dcmitype/StillImage"/>
    <dc:date>2021-10-28T00:11:24.720116</dc:date>
    <dc:format>image/svg+xml</dc:format>
    <dc:creator>
     <cc:Agent>
      <dc:title>Matplotlib v3.4.3, https://matplotlib.org/</dc:title>
     </cc:Agent>
    </dc:creator>
   </cc:Work>
  </rdf:RDF>
 </metadata>
 <defs>
  <style type="text/css">*{stroke-linecap:butt;stroke-linejoin:round;}</style>
 </defs>
 <g id="figure_1">
  <g id="patch_1">
   <path d="M 0 288 
L 432 288 
L 432 0 
L 0 0 
z
" style="fill:none;"/>
  </g>
  <g id="axes_1">
   <g id="patch_2">
    <path d="M 63.430688 240.429563 
L 421.2 240.429563 
L 421.2 15.587016 
L 63.430688 15.587016 
z
" style="fill:#542d59;"/>
   </g>
   <g id="matplotlib.axis_1">
    <g id="xtick_1">
     <g id="line2d_1">
      <path clip-path="url(#pd6349ab745)" d="M 79.692929 240.429563 
L 79.692929 15.587016 
" style="fill:none;stroke:#9ad9c8;stroke-dasharray:1.12,1.848;stroke-dashoffset:0;stroke-opacity:0.26;stroke-width:1.12;"/>
     </g>
     <g id="line2d_2"/>
     <g id="text_1">
      <!-- 0.0 -->
      <g style="fill:#d9a384;" transform="translate(69.67396 255.603594)scale(0.126 -0.126)">
       <defs>
        <path d="M 2034 4250 
Q 1547 4250 1301 3770 
Q 1056 3291 1056 2328 
Q 1056 1369 1301 889 
Q 1547 409 2034 409 
Q 2525 409 2770 889 
Q 3016 1369 3016 2328 
Q 3016 3291 2770 3770 
Q 2525 4250 2034 4250 
z
M 2034 4750 
Q 2819 4750 3233 4129 
Q 3647 3509 3647 2328 
Q 3647 1150 3233 529 
Q 2819 -91 2034 -91 
Q 1250 -91 836 529 
Q 422 1150 422 2328 
Q 422 3509 836 4129 
Q 1250 4750 2034 4750 
z
" id="DejaVuSans-30" transform="scale(0.015625)"/>
        <path d="M 684 794 
L 1344 794 
L 1344 0 
L 684 0 
L 684 794 
z
" id="DejaVuSans-2e" transform="scale(0.015625)"/>
       </defs>
       <use xlink:href="#DejaVuSans-30"/>
       <use x="63.623047" xlink:href="#DejaVuSans-2e"/>
       <use x="95.410156" xlink:href="#DejaVuSans-30"/>
      </g>
     </g>
    </g>
    <g id="xtick_2">
     <g id="line2d_3">
      <path clip-path="url(#pd6349ab745)" d="M 131.457251 240.429563 
L 131.457251 15.587016 
" style="fill:none;stroke:#9ad9c8;stroke-dasharray:1.12,1.848;stroke-dashoffset:0;stroke-opacity:0.26;stroke-width:1.12;"/>
     </g>
     <g id="line2d_4"/>
     <g id="text_2">
      <!-- 0.5 -->
      <g style="fill:#d9a384;" transform="translate(121.438283 255.603594)scale(0.126 -0.126)">
       <defs>
        <path d="M 691 4666 
L 3169 4666 
L 3169 4134 
L 1269 4134 
L 1269 2991 
Q 1406 3038 1543 3061 
Q 1681 3084 1819 3084 
Q 2600 3084 3056 2656 
Q 3513 2228 3513 1497 
Q 3513 744 3044 326 
Q 2575 -91 1722 -91 
Q 1428 -91 1123 -41 
Q 819 9 494 109 
L 494 744 
Q 775 591 1075 516 
Q 1375 441 1709 441 
Q 2250 441 2565 725 
Q 2881 1009 2881 1497 
Q 2881 1984 2565 2268 
Q 2250 2553 1709 2553 
Q 1456 2553 1204 2497 
Q 953 2441 691 2322 
L 691 4666 
z
" id="DejaVuSans-35" transform="scale(0.015625)"/>
       </defs>
       <use xlink:href="#DejaVuSans-30"/>
       <use x="63.623047" xlink:href="#DejaVuSans-2e"/>
       <use x="95.410156" xlink:href="#DejaVuSans-35"/>
      </g>
     </g>
    </g>
    <g id="xtick_3">
     <g id="line2d_5">
      <path clip-path="url(#pd6349ab745)" d="M 183.221574 240.429563 
L 183.221574 15.587016 
" style="fill:none;stroke:#9ad9c8;stroke-dasharray:1.12,1.848;stroke-dashoffset:0;stroke-opacity:0.26;stroke-width:1.12;"/>
     </g>
     <g id="line2d_6"/>
     <g id="text_3">
      <!-- 1.0 -->
      <g style="fill:#d9a384;" transform="translate(173.202605 255.603594)scale(0.126 -0.126)">
       <defs>
        <path d="M 794 531 
L 1825 531 
L 1825 4091 
L 703 3866 
L 703 4441 
L 1819 4666 
L 2450 4666 
L 2450 531 
L 3481 531 
L 3481 0 
L 794 0 
L 794 531 
z
" id="DejaVuSans-31" transform="scale(0.015625)"/>
       </defs>
       <use xlink:href="#DejaVuSans-31"/>
       <use x="63.623047" xlink:href="#DejaVuSans-2e"/>
       <use x="95.410156" xlink:href="#DejaVuSans-30"/>
      </g>
     </g>
    </g>
    <g id="xtick_4">
     <g id="line2d_7">
      <path clip-path="url(#pd6349ab745)" d="M 234.985896 240.429563 
L 234.985896 15.587016 
" style="fill:none;stroke:#9ad9c8;stroke-dasharray:1.12,1.848;stroke-dashoffset:0;stroke-opacity:0.26;stroke-width:1.12;"/>
     </g>
     <g id="line2d_8"/>
     <g id="text_4">
      <!-- 1.5 -->
      <g style="fill:#d9a384;" transform="translate(224.966927 255.603594)scale(0.126 -0.126)">
       <use xlink:href="#DejaVuSans-31"/>
       <use x="63.623047" xlink:href="#DejaVuSans-2e"/>
       <use x="95.410156" xlink:href="#DejaVuSans-35"/>
      </g>
     </g>
    </g>
    <g id="xtick_5">
     <g id="line2d_9">
      <path clip-path="url(#pd6349ab745)" d="M 286.750218 240.429563 
L 286.750218 15.587016 
" style="fill:none;stroke:#9ad9c8;stroke-dasharray:1.12,1.848;stroke-dashoffset:0;stroke-opacity:0.26;stroke-width:1.12;"/>
     </g>
     <g id="line2d_10"/>
     <g id="text_5">
      <!-- 2.0 -->
      <g style="fill:#d9a384;" transform="translate(276.73125 255.603594)scale(0.126 -0.126)">
       <defs>
        <path d="M 1228 531 
L 3431 531 
L 3431 0 
L 469 0 
L 469 531 
Q 828 903 1448 1529 
Q 2069 2156 2228 2338 
Q 2531 2678 2651 2914 
Q 2772 3150 2772 3378 
Q 2772 3750 2511 3984 
Q 2250 4219 1831 4219 
Q 1534 4219 1204 4116 
Q 875 4013 500 3803 
L 500 4441 
Q 881 4594 1212 4672 
Q 1544 4750 1819 4750 
Q 2544 4750 2975 4387 
Q 3406 4025 3406 3419 
Q 3406 3131 3298 2873 
Q 3191 2616 2906 2266 
Q 2828 2175 2409 1742 
Q 1991 1309 1228 531 
z
" id="DejaVuSans-32" transform="scale(0.015625)"/>
       </defs>
       <use xlink:href="#DejaVuSans-32"/>
       <use x="63.623047" xlink:href="#DejaVuSans-2e"/>
       <use x="95.410156" xlink:href="#DejaVuSans-30"/>
      </g>
     </g>
    </g>
    <g id="xtick_6">
     <g id="line2d_11">
      <path clip-path="url(#pd6349ab745)" d="M 338.514541 240.429563 
L 338.514541 15.587016 
" style="fill:none;stroke:#9ad9c8;stroke-dasharray:1.12,1.848;stroke-dashoffset:0;stroke-opacity:0.26;stroke-width:1.12;"/>
     </g>
     <g id="line2d_12"/>
     <g id="text_6">
      <!-- 2.5 -->
      <g style="fill:#d9a384;" transform="translate(328.495572 255.603594)scale(0.126 -0.126)">
       <use xlink:href="#DejaVuSans-32"/>
       <use x="63.623047" xlink:href="#DejaVuSans-2e"/>
       <use x="95.410156" xlink:href="#DejaVuSans-35"/>
      </g>
     </g>
    </g>
    <g id="xtick_7">
     <g id="line2d_13">
      <path clip-path="url(#pd6349ab745)" d="M 390.278863 240.429563 
L 390.278863 15.587016 
" style="fill:none;stroke:#9ad9c8;stroke-dasharray:1.12,1.848;stroke-dashoffset:0;stroke-opacity:0.26;stroke-width:1.12;"/>
     </g>
     <g id="line2d_14"/>
     <g id="text_7">
      <!-- 3.0 -->
      <g style="fill:#d9a384;" transform="translate(380.259894 255.603594)scale(0.126 -0.126)">
       <defs>
        <path d="M 2597 2516 
Q 3050 2419 3304 2112 
Q 3559 1806 3559 1356 
Q 3559 666 3084 287 
Q 2609 -91 1734 -91 
Q 1441 -91 1130 -33 
Q 819 25 488 141 
L 488 750 
Q 750 597 1062 519 
Q 1375 441 1716 441 
Q 2309 441 2620 675 
Q 2931 909 2931 1356 
Q 2931 1769 2642 2001 
Q 2353 2234 1838 2234 
L 1294 2234 
L 1294 2753 
L 1863 2753 
Q 2328 2753 2575 2939 
Q 2822 3125 2822 3475 
Q 2822 3834 2567 4026 
Q 2313 4219 1838 4219 
Q 1578 4219 1281 4162 
Q 984 4106 628 3988 
L 628 4550 
Q 988 4650 1302 4700 
Q 1616 4750 1894 4750 
Q 2613 4750 3031 4423 
Q 3450 4097 3450 3541 
Q 3450 3153 3228 2886 
Q 3006 2619 2597 2516 
z
" id="DejaVuSans-33" transform="scale(0.015625)"/>
       </defs>
       <use xlink:href="#DejaVuSans-33"/>
       <use x="63.623047" xlink:href="#DejaVuSans-2e"/>
       <use x="95.410156" xlink:href="#DejaVuSans-30"/>
      </g>
     </g>
    </g>
    <g id="text_8">
     <!-- $\pi^\pm$ polar angle [rad] -->
     <g style="fill:#d9a384;" transform="translate(168.515344 274.176)scale(0.144 -0.144)">
      <defs>
       <path d="M 584 3500 
L 3938 3500 
L 3825 2925 
L 3384 2925 
L 2966 775 
Q 2922 550 2981 450 
Q 3038 353 3209 353 
Q 3256 353 3325 363 
Q 3397 369 3419 372 
L 3338 -44 
Q 3222 -84 3103 -103 
Q 2981 -122 2866 -122 
Q 2491 -122 2388 81 
Q 2284 288 2391 838 
L 2797 2925 
L 1506 2925 
L 938 0 
L 350 0 
L 919 2925 
L 472 2925 
L 584 3500 
z
" id="DejaVuSans-Oblique-3c0" transform="scale(0.015625)"/>
       <path d="M 2944 4013 
L 2944 2803 
L 4684 2803 
L 4684 2272 
L 2944 2272 
L 2944 1063 
L 2419 1063 
L 2419 2272 
L 678 2272 
L 678 2803 
L 2419 2803 
L 2419 4013 
L 2944 4013 
z
M 678 531 
L 4684 531 
L 4684 0 
L 678 0 
L 678 531 
z
" id="DejaVuSans-b1" transform="scale(0.015625)"/>
       <path id="DejaVuSans-20" transform="scale(0.015625)"/>
       <path d="M 1159 525 
L 1159 -1331 
L 581 -1331 
L 581 3500 
L 1159 3500 
L 1159 2969 
Q 1341 3281 1617 3432 
Q 1894 3584 2278 3584 
Q 2916 3584 3314 3078 
Q 3713 2572 3713 1747 
Q 3713 922 3314 415 
Q 2916 -91 2278 -91 
Q 1894 -91 1617 61 
Q 1341 213 1159 525 
z
M 3116 1747 
Q 3116 2381 2855 2742 
Q 2594 3103 2138 3103 
Q 1681 3103 1420 2742 
Q 1159 2381 1159 1747 
Q 1159 1113 1420 752 
Q 1681 391 2138 391 
Q 2594 391 2855 752 
Q 3116 1113 3116 1747 
z
" id="DejaVuSans-70" transform="scale(0.015625)"/>
       <path d="M 1959 3097 
Q 1497 3097 1228 2736 
Q 959 2375 959 1747 
Q 959 1119 1226 758 
Q 1494 397 1959 397 
Q 2419 397 2687 759 
Q 2956 1122 2956 1747 
Q 2956 2369 2687 2733 
Q 2419 3097 1959 3097 
z
M 1959 3584 
Q 2709 3584 3137 3096 
Q 3566 2609 3566 1747 
Q 3566 888 3137 398 
Q 2709 -91 1959 -91 
Q 1206 -91 779 398 
Q 353 888 353 1747 
Q 353 2609 779 3096 
Q 1206 3584 1959 3584 
z
" id="DejaVuSans-6f" transform="scale(0.015625)"/>
       <path d="M 603 4863 
L 1178 4863 
L 1178 0 
L 603 0 
L 603 4863 
z
" id="DejaVuSans-6c" transform="scale(0.015625)"/>
       <path d="M 2194 1759 
Q 1497 1759 1228 1600 
Q 959 1441 959 1056 
Q 959 750 1161 570 
Q 1363 391 1709 391 
Q 2188 391 2477 730 
Q 2766 1069 2766 1631 
L 2766 1759 
L 2194 1759 
z
M 3341 1997 
L 3341 0 
L 2766 0 
L 2766 531 
Q 2569 213 2275 61 
Q 1981 -91 1556 -91 
Q 1019 -91 701 211 
Q 384 513 384 1019 
Q 384 1609 779 1909 
Q 1175 2209 1959 2209 
L 2766 2209 
L 2766 2266 
Q 2766 2663 2505 2880 
Q 2244 3097 1772 3097 
Q 1472 3097 1187 3025 
Q 903 2953 641 2809 
L 641 3341 
Q 956 3463 1253 3523 
Q 1550 3584 1831 3584 
Q 2591 3584 2966 3190 
Q 3341 2797 3341 1997 
z
" id="DejaVuSans-61" transform="scale(0.015625)"/>
       <path d="M 2631 2963 
Q 2534 3019 2420 3045 
Q 2306 3072 2169 3072 
Q 1681 3072 1420 2755 
Q 1159 2438 1159 1844 
L 1159 0 
L 581 0 
L 581 3500 
L 1159 3500 
L 1159 2956 
Q 1341 3275 1631 3429 
Q 1922 3584 2338 3584 
Q 2397 3584 2469 3576 
Q 2541 3569 2628 3553 
L 2631 2963 
z
" id="DejaVuSans-72" transform="scale(0.015625)"/>
       <path d="M 3513 2113 
L 3513 0 
L 2938 0 
L 2938 2094 
Q 2938 2591 2744 2837 
Q 2550 3084 2163 3084 
Q 1697 3084 1428 2787 
Q 1159 2491 1159 1978 
L 1159 0 
L 581 0 
L 581 3500 
L 1159 3500 
L 1159 2956 
Q 1366 3272 1645 3428 
Q 1925 3584 2291 3584 
Q 2894 3584 3203 3211 
Q 3513 2838 3513 2113 
z
" id="DejaVuSans-6e" transform="scale(0.015625)"/>
       <path d="M 2906 1791 
Q 2906 2416 2648 2759 
Q 2391 3103 1925 3103 
Q 1463 3103 1205 2759 
Q 947 2416 947 1791 
Q 947 1169 1205 825 
Q 1463 481 1925 481 
Q 2391 481 2648 825 
Q 2906 1169 2906 1791 
z
M 3481 434 
Q 3481 -459 3084 -895 
Q 2688 -1331 1869 -1331 
Q 1566 -1331 1297 -1286 
Q 1028 -1241 775 -1147 
L 775 -588 
Q 1028 -725 1275 -790 
Q 1522 -856 1778 -856 
Q 2344 -856 2625 -561 
Q 2906 -266 2906 331 
L 2906 616 
Q 2728 306 2450 153 
Q 2172 0 1784 0 
Q 1141 0 747 490 
Q 353 981 353 1791 
Q 353 2603 747 3093 
Q 1141 3584 1784 3584 
Q 2172 3584 2450 3431 
Q 2728 3278 2906 2969 
L 2906 3500 
L 3481 3500 
L 3481 434 
z
" id="DejaVuSans-67" transform="scale(0.015625)"/>
       <path d="M 3597 1894 
L 3597 1613 
L 953 1613 
Q 991 1019 1311 708 
Q 1631 397 2203 397 
Q 2534 397 2845 478 
Q 3156 559 3463 722 
L 3463 178 
Q 3153 47 2828 -22 
Q 2503 -91 2169 -91 
Q 1331 -91 842 396 
Q 353 884 353 1716 
Q 353 2575 817 3079 
Q 1281 3584 2069 3584 
Q 2775 3584 3186 3129 
Q 3597 2675 3597 1894 
z
M 3022 2063 
Q 3016 2534 2758 2815 
Q 2500 3097 2075 3097 
Q 1594 3097 1305 2825 
Q 1016 2553 972 2059 
L 3022 2063 
z
" id="DejaVuSans-65" transform="scale(0.015625)"/>
       <path d="M 550 4863 
L 1875 4863 
L 1875 4416 
L 1125 4416 
L 1125 -397 
L 1875 -397 
L 1875 -844 
L 550 -844 
L 550 4863 
z
" id="DejaVuSans-5b" transform="scale(0.015625)"/>
       <path d="M 2906 2969 
L 2906 4863 
L 3481 4863 
L 3481 0 
L 2906 0 
L 2906 525 
Q 2725 213 2448 61 
Q 2172 -91 1784 -91 
Q 1150 -91 751 415 
Q 353 922 353 1747 
Q 353 2572 751 3078 
Q 1150 3584 1784 3584 
Q 2172 3584 2448 3432 
Q 2725 3281 2906 2969 
z
M 947 1747 
Q 947 1113 1208 752 
Q 1469 391 1925 391 
Q 2381 391 2643 752 
Q 2906 1113 2906 1747 
Q 2906 2381 2643 2742 
Q 2381 3103 1925 3103 
Q 1469 3103 1208 2742 
Q 947 2381 947 1747 
z
" id="DejaVuSans-64" transform="scale(0.015625)"/>
       <path d="M 1947 4863 
L 1947 -844 
L 622 -844 
L 622 -397 
L 1369 -397 
L 1369 4416 
L 622 4416 
L 622 4863 
L 1947 4863 
z
" id="DejaVuSans-5d" transform="scale(0.015625)"/>
      </defs>
      <use transform="translate(0 0.826562)" xlink:href="#DejaVuSans-Oblique-3c0"/>
      <use transform="translate(78.308919 39.107812)scale(0.7)" xlink:href="#DejaVuSans-b1"/>
      <use transform="translate(153.333333 0.826562)" xlink:href="#DejaVuSans-20"/>
      <use transform="translate(185.120443 0.826562)" xlink:href="#DejaVuSans-70"/>
      <use transform="translate(248.597005 0.826562)" xlink:href="#DejaVuSans-6f"/>
      <use transform="translate(309.778646 0.826562)" xlink:href="#DejaVuSans-6c"/>
      <use transform="translate(337.561849 0.826562)" xlink:href="#DejaVuSans-61"/>
      <use transform="translate(398.841146 0.826562)" xlink:href="#DejaVuSans-72"/>
      <use transform="translate(439.954427 0.826562)" xlink:href="#DejaVuSans-20"/>
      <use transform="translate(471.741536 0.826562)" xlink:href="#DejaVuSans-61"/>
      <use transform="translate(533.020833 0.826562)" xlink:href="#DejaVuSans-6e"/>
      <use transform="translate(596.39974 0.826562)" xlink:href="#DejaVuSans-67"/>
      <use transform="translate(659.876302 0.826562)" xlink:href="#DejaVuSans-6c"/>
      <use transform="translate(687.659505 0.826562)" xlink:href="#DejaVuSans-65"/>
      <use transform="translate(749.182943 0.826562)" xlink:href="#DejaVuSans-20"/>
      <use transform="translate(780.970052 0.826562)" xlink:href="#DejaVuSans-5b"/>
      <use transform="translate(819.983724 0.826562)" xlink:href="#DejaVuSans-72"/>
      <use transform="translate(861.097005 0.826562)" xlink:href="#DejaVuSans-61"/>
      <use transform="translate(922.376302 0.826562)" xlink:href="#DejaVuSans-64"/>
      <use transform="translate(985.852865 0.826562)" xlink:href="#DejaVuSans-5d"/>
     </g>
    </g>
   </g>
   <g id="matplotlib.axis_2">
    <g id="ytick_1">
     <g id="line2d_15">
      <path clip-path="url(#pd6349ab745)" d="M 63.430688 240.429563 
L 421.2 240.429563 
" style="fill:none;stroke:#9ad9c8;stroke-dasharray:1.12,1.848;stroke-dashoffset:0;stroke-opacity:0.26;stroke-width:1.12;"/>
     </g>
     <g id="line2d_16"/>
     <g id="text_9">
      <!-- 0.00 -->
      <g style="fill:#d9a384;" transform="translate(29.776 245.216578)scale(0.126 -0.126)">
       <use xlink:href="#DejaVuSans-30"/>
       <use x="63.623047" xlink:href="#DejaVuSans-2e"/>
       <use x="95.410156" xlink:href="#DejaVuSans-30"/>
       <use x="159.033203" xlink:href="#DejaVuSans-30"/>
      </g>
     </g>
    </g>
    <g id="ytick_2">
     <g id="line2d_17">
      <path clip-path="url(#pd6349ab745)" d="M 63.430688 212.324244 
L 421.2 212.324244 
" style="fill:none;stroke:#9ad9c8;stroke-dasharray:1.12,1.848;stroke-dashoffset:0;stroke-opacity:0.26;stroke-width:1.12;"/>
     </g>
     <g id="line2d_18"/>
     <g id="text_10">
      <!-- 0.25 -->
      <g style="fill:#d9a384;" transform="translate(29.776 217.11126)scale(0.126 -0.126)">
       <use xlink:href="#DejaVuSans-30"/>
       <use x="63.623047" xlink:href="#DejaVuSans-2e"/>
       <use x="95.410156" xlink:href="#DejaVuSans-32"/>
       <use x="159.033203" xlink:href="#DejaVuSans-35"/>
      </g>
     </g>
    </g>
    <g id="ytick_3">
     <g id="line2d_19">
      <path clip-path="url(#pd6349ab745)" d="M 63.430688 184.218926 
L 421.2 184.218926 
" style="fill:none;stroke:#9ad9c8;stroke-dasharray:1.12,1.848;stroke-dashoffset:0;stroke-opacity:0.26;stroke-width:1.12;"/>
     </g>
     <g id="line2d_20"/>
     <g id="text_11">
      <!-- 0.50 -->
      <g style="fill:#d9a384;" transform="translate(29.776 189.005941)scale(0.126 -0.126)">
       <use xlink:href="#DejaVuSans-30"/>
       <use x="63.623047" xlink:href="#DejaVuSans-2e"/>
       <use x="95.410156" xlink:href="#DejaVuSans-35"/>
       <use x="159.033203" xlink:href="#DejaVuSans-30"/>
      </g>
     </g>
    </g>
    <g id="ytick_4">
     <g id="line2d_21">
      <path clip-path="url(#pd6349ab745)" d="M 63.430688 156.113607 
L 421.2 156.113607 
" style="fill:none;stroke:#9ad9c8;stroke-dasharray:1.12,1.848;stroke-dashoffset:0;stroke-opacity:0.26;stroke-width:1.12;"/>
     </g>
     <g id="line2d_22"/>
     <g id="text_12">
      <!-- 0.75 -->
      <g style="fill:#d9a384;" transform="translate(29.776 160.900623)scale(0.126 -0.126)">
       <defs>
        <path d="M 525 4666 
L 3525 4666 
L 3525 4397 
L 1831 0 
L 1172 0 
L 2766 4134 
L 525 4134 
L 525 4666 
z
" id="DejaVuSans-37" transform="scale(0.015625)"/>
       </defs>
       <use xlink:href="#DejaVuSans-30"/>
       <use x="63.623047" xlink:href="#DejaVuSans-2e"/>
       <use x="95.410156" xlink:href="#DejaVuSans-37"/>
       <use x="159.033203" xlink:href="#DejaVuSans-35"/>
      </g>
     </g>
    </g>
    <g id="ytick_5">
     <g id="line2d_23">
      <path clip-path="url(#pd6349ab745)" d="M 63.430688 128.008289 
L 421.2 128.008289 
" style="fill:none;stroke:#9ad9c8;stroke-dasharray:1.12,1.848;stroke-dashoffset:0;stroke-opacity:0.26;stroke-width:1.12;"/>
     </g>
     <g id="line2d_24"/>
     <g id="text_13">
      <!-- 1.00 -->
      <g style="fill:#d9a384;" transform="translate(29.776 132.795305)scale(0.126 -0.126)">
       <use xlink:href="#DejaVuSans-31"/>
       <use x="63.623047" xlink:href="#DejaVuSans-2e"/>
       <use x="95.410156" xlink:href="#DejaVuSans-30"/>
       <use x="159.033203" xlink:href="#DejaVuSans-30"/>
      </g>
     </g>
    </g>
    <g id="ytick_6">
     <g id="line2d_25">
      <path clip-path="url(#pd6349ab745)" d="M 63.430688 99.902971 
L 421.2 99.902971 
" style="fill:none;stroke:#9ad9c8;stroke-dasharray:1.12,1.848;stroke-dashoffset:0;stroke-opacity:0.26;stroke-width:1.12;"/>
     </g>
     <g id="line2d_26"/>
     <g id="text_14">
      <!-- 1.25 -->
      <g style="fill:#d9a384;" transform="translate(29.776 104.689986)scale(0.126 -0.126)">
       <use xlink:href="#DejaVuSans-31"/>
       <use x="63.623047" xlink:href="#DejaVuSans-2e"/>
       <use x="95.410156" xlink:href="#DejaVuSans-32"/>
       <use x="159.033203" xlink:href="#DejaVuSans-35"/>
      </g>
     </g>
    </g>
    <g id="ytick_7">
     <g id="line2d_27">
      <path clip-path="url(#pd6349ab745)" d="M 63.430688 71.797652 
L 421.2 71.797652 
" style="fill:none;stroke:#9ad9c8;stroke-dasharray:1.12,1.848;stroke-dashoffset:0;stroke-opacity:0.26;stroke-width:1.12;"/>
     </g>
     <g id="line2d_28"/>
     <g id="text_15">
      <!-- 1.50 -->
      <g style="fill:#d9a384;" transform="translate(29.776 76.584668)scale(0.126 -0.126)">
       <use xlink:href="#DejaVuSans-31"/>
       <use x="63.623047" xlink:href="#DejaVuSans-2e"/>
       <use x="95.410156" xlink:href="#DejaVuSans-35"/>
       <use x="159.033203" xlink:href="#DejaVuSans-30"/>
      </g>
     </g>
    </g>
    <g id="ytick_8">
     <g id="line2d_29">
      <path clip-path="url(#pd6349ab745)" d="M 63.430688 43.692334 
L 421.2 43.692334 
" style="fill:none;stroke:#9ad9c8;stroke-dasharray:1.12,1.848;stroke-dashoffset:0;stroke-opacity:0.26;stroke-width:1.12;"/>
     </g>
     <g id="line2d_30"/>
     <g id="text_16">
      <!-- 1.75 -->
      <g style="fill:#d9a384;" transform="translate(29.776 48.47935)scale(0.126 -0.126)">
       <use xlink:href="#DejaVuSans-31"/>
       <use x="63.623047" xlink:href="#DejaVuSans-2e"/>
       <use x="95.410156" xlink:href="#DejaVuSans-37"/>
       <use x="159.033203" xlink:href="#DejaVuSans-35"/>
      </g>
     </g>
    </g>
    <g id="ytick_9">
     <g id="line2d_31">
      <path clip-path="url(#pd6349ab745)" d="M 63.430688 15.587016 
L 421.2 15.587016 
" style="fill:none;stroke:#9ad9c8;stroke-dasharray:1.12,1.848;stroke-dashoffset:0;stroke-opacity:0.26;stroke-width:1.12;"/>
     </g>
     <g id="line2d_32"/>
     <g id="text_17">
      <!-- 2.00 -->
      <g style="fill:#d9a384;" transform="translate(29.776 20.374031)scale(0.126 -0.126)">
       <use xlink:href="#DejaVuSans-32"/>
       <use x="63.623047" xlink:href="#DejaVuSans-2e"/>
       <use x="95.410156" xlink:href="#DejaVuSans-30"/>
       <use x="159.033203" xlink:href="#DejaVuSans-30"/>
      </g>
     </g>
    </g>
    <g id="text_18">
     <!-- $N_{exp}$/$N_{MC}$ -->
     <g style="fill:#d9a384;" transform="translate(21.312 158.752289)rotate(-90)scale(0.144 -0.144)">
      <defs>
       <path d="M 1081 4666 
L 1931 4666 
L 3219 666 
L 4000 4666 
L 4616 4666 
L 3706 0 
L 2853 0 
L 1569 4025 
L 788 0 
L 172 0 
L 1081 4666 
z
" id="DejaVuSans-Oblique-4e" transform="scale(0.015625)"/>
       <path d="M 3078 2063 
Q 3088 2113 3092 2166 
Q 3097 2219 3097 2272 
Q 3097 2653 2873 2875 
Q 2650 3097 2266 3097 
Q 1838 3097 1509 2826 
Q 1181 2556 1013 2059 
L 3078 2063 
z
M 3578 1613 
L 903 1613 
Q 884 1494 878 1425 
Q 872 1356 872 1306 
Q 872 872 1139 634 
Q 1406 397 1894 397 
Q 2269 397 2603 481 
Q 2938 566 3225 728 
L 3116 159 
Q 2806 34 2476 -28 
Q 2147 -91 1806 -91 
Q 1078 -91 686 257 
Q 294 606 294 1247 
Q 294 1794 489 2264 
Q 684 2734 1063 3103 
Q 1306 3334 1642 3459 
Q 1978 3584 2356 3584 
Q 2950 3584 3301 3228 
Q 3653 2872 3653 2272 
Q 3653 2128 3634 1964 
Q 3616 1800 3578 1613 
z
" id="DejaVuSans-Oblique-65" transform="scale(0.015625)"/>
       <path d="M 3841 3500 
L 2234 1784 
L 3219 0 
L 2559 0 
L 1819 1388 
L 531 0 
L -166 0 
L 1556 1844 
L 641 3500 
L 1300 3500 
L 1972 2234 
L 3144 3500 
L 3841 3500 
z
" id="DejaVuSans-Oblique-78" transform="scale(0.015625)"/>
       <path d="M 3175 2156 
Q 3175 2616 2975 2859 
Q 2775 3103 2400 3103 
Q 2144 3103 1911 2972 
Q 1678 2841 1497 2591 
Q 1319 2344 1212 1994 
Q 1106 1644 1106 1300 
Q 1106 863 1306 627 
Q 1506 391 1875 391 
Q 2147 391 2380 519 
Q 2613 647 2778 891 
Q 2956 1147 3065 1494 
Q 3175 1841 3175 2156 
z
M 1394 2969 
Q 1625 3272 1939 3428 
Q 2253 3584 2638 3584 
Q 3175 3584 3472 3232 
Q 3769 2881 3769 2247 
Q 3769 1728 3584 1258 
Q 3400 788 3053 416 
Q 2822 169 2531 39 
Q 2241 -91 1919 -91 
Q 1547 -91 1294 64 
Q 1041 219 916 525 
L 556 -1331 
L -19 -1331 
L 922 3500 
L 1497 3500 
L 1394 2969 
z
" id="DejaVuSans-Oblique-70" transform="scale(0.015625)"/>
       <path d="M 1625 4666 
L 2156 4666 
L 531 -594 
L 0 -594 
L 1625 4666 
z
" id="DejaVuSans-2f" transform="scale(0.015625)"/>
       <path d="M 1081 4666 
L 2028 4666 
L 2572 1522 
L 4378 4666 
L 5350 4666 
L 4441 0 
L 3828 0 
L 4622 4091 
L 2791 897 
L 2175 897 
L 1581 4103 
L 788 0 
L 172 0 
L 1081 4666 
z
" id="DejaVuSans-Oblique-4d" transform="scale(0.015625)"/>
       <path d="M 4447 4306 
L 4319 3641 
Q 4019 3944 3683 4091 
Q 3347 4238 2956 4238 
Q 2422 4238 2017 3981 
Q 1613 3725 1319 3200 
Q 1131 2863 1032 2486 
Q 934 2109 934 1728 
Q 934 1091 1264 756 
Q 1594 422 2222 422 
Q 2656 422 3056 561 
Q 3456 700 3834 978 
L 3688 231 
Q 3316 72 2936 -9 
Q 2556 -91 2175 -91 
Q 1278 -91 773 396 
Q 269 884 269 1753 
Q 269 2309 461 2846 
Q 653 3384 1013 3828 
Q 1394 4300 1883 4525 
Q 2372 4750 3022 4750 
Q 3422 4750 3780 4639 
Q 4138 4528 4447 4306 
z
" id="DejaVuSans-Oblique-43" transform="scale(0.015625)"/>
      </defs>
      <use transform="translate(0 0.09375)" xlink:href="#DejaVuSans-Oblique-4e"/>
      <use transform="translate(74.804688 -16.3125)scale(0.7)" xlink:href="#DejaVuSans-Oblique-65"/>
      <use transform="translate(117.871094 -16.3125)scale(0.7)" xlink:href="#DejaVuSans-Oblique-78"/>
      <use transform="translate(159.296875 -16.3125)scale(0.7)" xlink:href="#DejaVuSans-Oblique-70"/>
      <use transform="translate(206.464844 0.09375)" xlink:href="#DejaVuSans-2f"/>
      <use transform="translate(240.15625 0.09375)" xlink:href="#DejaVuSans-Oblique-4e"/>
      <use transform="translate(314.960938 -16.3125)scale(0.7)" xlink:href="#DejaVuSans-Oblique-4d"/>
      <use transform="translate(375.356445 -16.3125)scale(0.7)" xlink:href="#DejaVuSans-Oblique-43"/>
     </g>
    </g>
   </g>
   <g id="LineCollection_1">
    <path clip-path="url(#pd6349ab745)" style="fill:none;stroke:#8c7b48;stroke-width:2;"/>
    <path clip-path="url(#pd6349ab745)" style="fill:none;stroke:#8c7b48;stroke-width:2;"/>
    <path clip-path="url(#pd6349ab745)" style="fill:none;stroke:#8c7b48;stroke-width:2;"/>
    <path clip-path="url(#pd6349ab745)" style="fill:none;stroke:#8c7b48;stroke-width:2;"/>
    <path clip-path="url(#pd6349ab745)" style="fill:none;stroke:#8c7b48;stroke-width:2;"/>
    <path clip-path="url(#pd6349ab745)" d="M 124.414093 215.446741 
L 124.414093 -1 
" style="fill:none;stroke:#8c7b48;stroke-width:2;"/>
    <path clip-path="url(#pd6349ab745)" d="M 132.545214 202.581003 
L 132.545214 77.676607 
" style="fill:none;stroke:#8c7b48;stroke-width:2;"/>
    <path clip-path="url(#pd6349ab745)" d="M 140.676335 186.143956 
L 140.676335 128.437339 
" style="fill:none;stroke:#8c7b48;stroke-width:2;"/>
    <path clip-path="url(#pd6349ab745)" d="M 148.807455 182.362745 
L 148.807455 149.699728 
" style="fill:none;stroke:#8c7b48;stroke-width:2;"/>
    <path clip-path="url(#pd6349ab745)" d="M 156.938576 167.991283 
L 156.938576 141.920086 
" style="fill:none;stroke:#8c7b48;stroke-width:2;"/>
    <path clip-path="url(#pd6349ab745)" d="M 165.069697 137.769614 
L 165.069697 114.07839 
" style="fill:none;stroke:#8c7b48;stroke-width:2;"/>
    <path clip-path="url(#pd6349ab745)" d="M 173.200817 145.652226 
L 173.200817 125.751347 
" style="fill:none;stroke:#8c7b48;stroke-width:2;"/>
    <path clip-path="url(#pd6349ab745)" d="M 181.331938 152.194881 
L 181.331938 135.573158 
" style="fill:none;stroke:#8c7b48;stroke-width:2;"/>
    <path clip-path="url(#pd6349ab745)" d="M 189.463059 127.16086 
L 189.463059 109.055623 
" style="fill:none;stroke:#8c7b48;stroke-width:2;"/>
    <path clip-path="url(#pd6349ab745)" d="M 197.59418 143.223578 
L 197.59418 127.948047 
" style="fill:none;stroke:#8c7b48;stroke-width:2;"/>
    <path clip-path="url(#pd6349ab745)" d="M 205.7253 140.849548 
L 205.7253 126.120807 
" style="fill:none;stroke:#8c7b48;stroke-width:2;"/>
    <path clip-path="url(#pd6349ab745)" d="M 213.856421 133.895201 
L 213.856421 119.037544 
" style="fill:none;stroke:#8c7b48;stroke-width:2;"/>
    <path clip-path="url(#pd6349ab745)" d="M 221.987542 139.670754 
L 221.987542 125.020849 
" style="fill:none;stroke:#8c7b48;stroke-width:2;"/>
    <path clip-path="url(#pd6349ab745)" d="M 230.118663 124.376708 
L 230.118663 109.024983 
" style="fill:none;stroke:#8c7b48;stroke-width:2;"/>
    <path clip-path="url(#pd6349ab745)" d="M 238.249783 137.549606 
L 238.249783 123.629253 
" style="fill:none;stroke:#8c7b48;stroke-width:2;"/>
    <path clip-path="url(#pd6349ab745)" d="M 246.380904 156.007043 
L 246.380904 142.777263 
" style="fill:none;stroke:#8c7b48;stroke-width:2;"/>
    <path clip-path="url(#pd6349ab745)" d="M 254.512025 136.324847 
L 254.512025 122.179246 
" style="fill:none;stroke:#8c7b48;stroke-width:2;"/>
    <path clip-path="url(#pd6349ab745)" d="M 262.643146 131.245427 
L 262.643146 115.846044 
" style="fill:none;stroke:#8c7b48;stroke-width:2;"/>
    <path clip-path="url(#pd6349ab745)" d="M 270.774266 128.818621 
L 270.774266 113.903786 
" style="fill:none;stroke:#8c7b48;stroke-width:2;"/>
    <path clip-path="url(#pd6349ab745)" d="M 278.905387 144.627947 
L 278.905387 129.40226 
" style="fill:none;stroke:#8c7b48;stroke-width:2;"/>
    <path clip-path="url(#pd6349ab745)" d="M 287.036508 146.724444 
L 287.036508 132.317609 
" style="fill:none;stroke:#8c7b48;stroke-width:2;"/>
    <path clip-path="url(#pd6349ab745)" d="M 295.167629 147.238021 
L 295.167629 131.799436 
" style="fill:none;stroke:#8c7b48;stroke-width:2;"/>
    <path clip-path="url(#pd6349ab745)" d="M 303.298749 147.447143 
L 303.298749 130.394454 
" style="fill:none;stroke:#8c7b48;stroke-width:2;"/>
    <path clip-path="url(#pd6349ab745)" d="M 311.42987 151.332038 
L 311.42987 132.974252 
" style="fill:none;stroke:#8c7b48;stroke-width:2;"/>
    <path clip-path="url(#pd6349ab745)" d="M 319.560991 146.185464 
L 319.560991 124.436399 
" style="fill:none;stroke:#8c7b48;stroke-width:2;"/>
    <path clip-path="url(#pd6349ab745)" d="M 327.692112 155.075983 
L 327.692112 129.996095 
" style="fill:none;stroke:#8c7b48;stroke-width:2;"/>
    <path clip-path="url(#pd6349ab745)" d="M 335.823232 175.28309 
L 335.823232 147.191935 
" style="fill:none;stroke:#8c7b48;stroke-width:2;"/>
    <path clip-path="url(#pd6349ab745)" d="M 343.954353 157.477728 
L 343.954353 106.375462 
" style="fill:none;stroke:#8c7b48;stroke-width:2;"/>
    <path clip-path="url(#pd6349ab745)" d="M 352.085474 227.499639 
L 352.085474 156.444208 
" style="fill:none;stroke:#8c7b48;stroke-width:2;"/>
    <path clip-path="url(#pd6349ab745)" d="M 360.216594 6.203106 
L 360.216594 -1 
" style="fill:none;stroke:#8c7b48;stroke-width:2;"/>
    <path clip-path="url(#pd6349ab745)" style="fill:none;stroke:#8c7b48;stroke-width:2;"/>
    <path clip-path="url(#pd6349ab745)" style="fill:none;stroke:#8c7b48;stroke-width:2;"/>
    <path clip-path="url(#pd6349ab745)" style="fill:none;stroke:#8c7b48;stroke-width:2;"/>
    <path clip-path="url(#pd6349ab745)" style="fill:none;stroke:#8c7b48;stroke-width:2;"/>
    <path clip-path="url(#pd6349ab745)" style="fill:none;stroke:#8c7b48;stroke-width:2;"/>
   </g>
   <g id="line2d_33">
    <path clip-path="url(#pd6349ab745)" d="M 79.692929 134.148648 
L 404.937759 134.148648 
" style="fill:none;stroke:#000000;stroke-linecap:square;stroke-width:2;"/>
   </g>
   <g id="line2d_34">
    <defs>
     <path d="M 0 2.5 
C 0.663008 2.5 1.29895 2.236584 1.767767 1.767767 
C 2.236584 1.29895 2.5 0.663008 2.5 0 
C 2.5 -0.663008 2.236584 -1.29895 1.767767 -1.767767 
C 1.29895 -2.236584 0.663008 -2.5 0 -2.5 
C -0.663008 -2.5 -1.29895 -2.236584 -1.767767 -1.767767 
C -2.236584 -1.29895 -2.5 -0.663008 -2.5 0 
C -2.5 0.663008 -2.236584 1.29895 -1.767767 1.767767 
C -1.29895 2.236584 -0.663008 2.5 0 2.5 
z
" id="m0c062362bc"/>
    </defs>
    <g clip-path="url(#pd6349ab745)">
     <use style="fill:#8c7b48;" x="124.414093" xlink:href="#m0c062362bc" y="97.14114"/>
     <use style="fill:#8c7b48;" x="132.545214" xlink:href="#m0c062362bc" y="157.726632"/>
     <use style="fill:#8c7b48;" x="140.676335" xlink:href="#m0c062362bc" y="161.811416"/>
     <use style="fill:#8c7b48;" x="148.807455" xlink:href="#m0c062362bc" y="167.68971"/>
     <use style="fill:#8c7b48;" x="156.938576" xlink:href="#m0c062362bc" y="155.893149"/>
     <use style="fill:#8c7b48;" x="165.069697" xlink:href="#m0c062362bc" y="126.511759"/>
     <use style="fill:#8c7b48;" x="173.200817" xlink:href="#m0c062362bc" y="136.156691"/>
     <use style="fill:#8c7b48;" x="181.331938" xlink:href="#m0c062362bc" y="144.229454"/>
     <use style="fill:#8c7b48;" x="189.463059" xlink:href="#m0c062362bc" y="118.433297"/>
     <use style="fill:#8c7b48;" x="197.59418" xlink:href="#m0c062362bc" y="135.855902"/>
     <use style="fill:#8c7b48;" x="205.7253" xlink:href="#m0c062362bc" y="133.73175"/>
     <use style="fill:#8c7b48;" x="213.856421" xlink:href="#m0c062362bc" y="126.702188"/>
     <use style="fill:#8c7b48;" x="221.987542" xlink:href="#m0c062362bc" y="132.587279"/>
     <use style="fill:#8c7b48;" x="230.118663" xlink:href="#m0c062362bc" y="116.933043"/>
     <use style="fill:#8c7b48;" x="238.249783" xlink:href="#m0c062362bc" y="130.804365"/>
     <use style="fill:#8c7b48;" x="246.380904" xlink:href="#m0c062362bc" y="149.625486"/>
     <use style="fill:#8c7b48;" x="254.512025" xlink:href="#m0c062362bc" y="129.471301"/>
     <use style="fill:#8c7b48;" x="262.643146" xlink:href="#m0c062362bc" y="123.79266"/>
     <use style="fill:#8c7b48;" x="270.774266" xlink:href="#m0c062362bc" y="121.588894"/>
     <use style="fill:#8c7b48;" x="278.905387" xlink:href="#m0c062362bc" y="137.287056"/>
     <use style="fill:#8c7b48;" x="287.036508" xlink:href="#m0c062362bc" y="139.770789"/>
     <use style="fill:#8c7b48;" x="295.167629" xlink:href="#m0c062362bc" y="139.804941"/>
     <use style="fill:#8c7b48;" x="303.298749" xlink:href="#m0c062362bc" y="139.266886"/>
     <use style="fill:#8c7b48;" x="311.42987" xlink:href="#m0c062362bc" y="142.565906"/>
     <use style="fill:#8c7b48;" x="319.560991" xlink:href="#m0c062362bc" y="135.850506"/>
     <use style="fill:#8c7b48;" x="327.692112" xlink:href="#m0c062362bc" y="143.299688"/>
     <use style="fill:#8c7b48;" x="335.823232" xlink:href="#m0c062362bc" y="162.40328"/>
     <use style="fill:#8c7b48;" x="343.954353" xlink:href="#m0c062362bc" y="134.699301"/>
     <use style="fill:#8c7b48;" x="352.085474" xlink:href="#m0c062362bc" y="204.111475"/>
     <use style="fill:#8c7b48;" x="355.592981" xlink:href="#m0c062362bc" y="-1"/>
    </g>
   </g>
   <g id="patch_3">
    <path d="M 63.430688 240.429563 
L 63.430688 15.587016 
" style="fill:none;stroke:#d9a384;stroke-linecap:square;stroke-linejoin:miter;stroke-width:1.12;"/>
   </g>
   <g id="patch_4">
    <path d="M 421.2 240.429563 
L 421.2 15.587016 
" style="fill:none;stroke:#d9a384;stroke-linecap:square;stroke-linejoin:miter;stroke-width:1.12;"/>
   </g>
   <g id="patch_5">
    <path d="M 63.430688 240.429563 
L 421.2 240.429563 
" style="fill:none;stroke:#d9a384;stroke-linecap:square;stroke-linejoin:miter;stroke-width:1.12;"/>
   </g>
   <g id="patch_6">
    <path d="M 63.430688 15.587016 
L 421.2 15.587016 
" style="fill:none;stroke:#d9a384;stroke-linecap:square;stroke-linejoin:miter;stroke-width:1.12;"/>
   </g>
   <g id="text_19">
    <!-- HIGH19 -->
    <g style="fill:#d9a384;" transform="translate(286.750218 88.705158)scale(0.1 -0.1)">
     <defs>
      <path d="M 628 4666 
L 1259 4666 
L 1259 2753 
L 3553 2753 
L 3553 4666 
L 4184 4666 
L 4184 0 
L 3553 0 
L 3553 2222 
L 1259 2222 
L 1259 0 
L 628 0 
L 628 4666 
z
" id="DejaVuSans-48" transform="scale(0.015625)"/>
      <path d="M 628 4666 
L 1259 4666 
L 1259 0 
L 628 0 
L 628 4666 
z
" id="DejaVuSans-49" transform="scale(0.015625)"/>
      <path d="M 3809 666 
L 3809 1919 
L 2778 1919 
L 2778 2438 
L 4434 2438 
L 4434 434 
Q 4069 175 3628 42 
Q 3188 -91 2688 -91 
Q 1594 -91 976 548 
Q 359 1188 359 2328 
Q 359 3472 976 4111 
Q 1594 4750 2688 4750 
Q 3144 4750 3555 4637 
Q 3966 4525 4313 4306 
L 4313 3634 
Q 3963 3931 3569 4081 
Q 3175 4231 2741 4231 
Q 1884 4231 1454 3753 
Q 1025 3275 1025 2328 
Q 1025 1384 1454 906 
Q 1884 428 2741 428 
Q 3075 428 3337 486 
Q 3600 544 3809 666 
z
" id="DejaVuSans-47" transform="scale(0.015625)"/>
      <path d="M 703 97 
L 703 672 
Q 941 559 1184 500 
Q 1428 441 1663 441 
Q 2288 441 2617 861 
Q 2947 1281 2994 2138 
Q 2813 1869 2534 1725 
Q 2256 1581 1919 1581 
Q 1219 1581 811 2004 
Q 403 2428 403 3163 
Q 403 3881 828 4315 
Q 1253 4750 1959 4750 
Q 2769 4750 3195 4129 
Q 3622 3509 3622 2328 
Q 3622 1225 3098 567 
Q 2575 -91 1691 -91 
Q 1453 -91 1209 -44 
Q 966 3 703 97 
z
M 1959 2075 
Q 2384 2075 2632 2365 
Q 2881 2656 2881 3163 
Q 2881 3666 2632 3958 
Q 2384 4250 1959 4250 
Q 1534 4250 1286 3958 
Q 1038 3666 1038 3163 
Q 1038 2656 1286 2365 
Q 1534 2075 1959 2075 
z
" id="DejaVuSans-39" transform="scale(0.015625)"/>
     </defs>
     <use xlink:href="#DejaVuSans-48"/>
     <use x="75.195312" xlink:href="#DejaVuSans-49"/>
     <use x="104.6875" xlink:href="#DejaVuSans-47"/>
     <use x="182.177734" xlink:href="#DejaVuSans-48"/>
     <use x="257.373047" xlink:href="#DejaVuSans-31"/>
     <use x="320.996094" xlink:href="#DejaVuSans-39"/>
    </g>
    <!-- mean = 0.945±0.015 -->
    <g style="fill:#d9a384;" transform="translate(286.750218 99.902971)scale(0.1 -0.1)">
     <defs>
      <path d="M 3328 2828 
Q 3544 3216 3844 3400 
Q 4144 3584 4550 3584 
Q 5097 3584 5394 3201 
Q 5691 2819 5691 2113 
L 5691 0 
L 5113 0 
L 5113 2094 
Q 5113 2597 4934 2840 
Q 4756 3084 4391 3084 
Q 3944 3084 3684 2787 
Q 3425 2491 3425 1978 
L 3425 0 
L 2847 0 
L 2847 2094 
Q 2847 2600 2669 2842 
Q 2491 3084 2119 3084 
Q 1678 3084 1418 2786 
Q 1159 2488 1159 1978 
L 1159 0 
L 581 0 
L 581 3500 
L 1159 3500 
L 1159 2956 
Q 1356 3278 1631 3431 
Q 1906 3584 2284 3584 
Q 2666 3584 2933 3390 
Q 3200 3197 3328 2828 
z
" id="DejaVuSans-6d" transform="scale(0.015625)"/>
      <path d="M 678 2906 
L 4684 2906 
L 4684 2381 
L 678 2381 
L 678 2906 
z
M 678 1631 
L 4684 1631 
L 4684 1100 
L 678 1100 
L 678 1631 
z
" id="DejaVuSans-3d" transform="scale(0.015625)"/>
      <path d="M 2419 4116 
L 825 1625 
L 2419 1625 
L 2419 4116 
z
M 2253 4666 
L 3047 4666 
L 3047 1625 
L 3713 1625 
L 3713 1100 
L 3047 1100 
L 3047 0 
L 2419 0 
L 2419 1100 
L 313 1100 
L 313 1709 
L 2253 4666 
z
" id="DejaVuSans-34" transform="scale(0.015625)"/>
     </defs>
     <use xlink:href="#DejaVuSans-6d"/>
     <use x="97.412109" xlink:href="#DejaVuSans-65"/>
     <use x="158.935547" xlink:href="#DejaVuSans-61"/>
     <use x="220.214844" xlink:href="#DejaVuSans-6e"/>
     <use x="283.59375" xlink:href="#DejaVuSans-20"/>
     <use x="315.380859" xlink:href="#DejaVuSans-3d"/>
     <use x="399.169922" xlink:href="#DejaVuSans-20"/>
     <use x="430.957031" xlink:href="#DejaVuSans-30"/>
     <use x="494.580078" xlink:href="#DejaVuSans-2e"/>
     <use x="526.367188" xlink:href="#DejaVuSans-39"/>
     <use x="589.990234" xlink:href="#DejaVuSans-34"/>
     <use x="653.613281" xlink:href="#DejaVuSans-35"/>
     <use x="717.236328" xlink:href="#DejaVuSans-b1"/>
     <use x="801.025391" xlink:href="#DejaVuSans-30"/>
     <use x="864.648438" xlink:href="#DejaVuSans-2e"/>
     <use x="896.435547" xlink:href="#DejaVuSans-30"/>
     <use x="960.058594" xlink:href="#DejaVuSans-31"/>
     <use x="1023.681641" xlink:href="#DejaVuSans-35"/>
    </g>
   </g>
  </g>
 </g>
 <defs>
  <clipPath id="pd6349ab745">
   <rect height="224.842547" width="357.769312" x="63.430688" y="15.587016"/>
  </clipPath>
 </defs>
</svg>
